<svg xmlns="http://www.w3.org/2000/svg" width="67" height="67" viewBox="0 0 67 67"><g transform="translate(-124 -448)"><g transform="translate(2 120)"><path d="M153.722,418.588v.188h0a.345.345,0,0,1-.313.226,3.227,3.227,0,0,1-.434.072c-.278.035-.538,0-.816.017-.072,0-.139-.017-.191-.017-.067-.017-.142.017-.208-.035a1.013,1.013,0,0,1-.385-.087.317.317,0,0,1-.153-.1l.017-.017c-.1-.035-.1-.139-.174-.208a.588.588,0,0,1-.1-.261l.035-.035a.09.09,0,0,1-.035-.069.061.061,0,0,0,.017-.035.387.387,0,0,1-.049-.087,2.316,2.316,0,0,1,.032-.347l.017-.017v-.017c-.017.017-.017.017-.017.035-.067-.035-.032-.069-.015-.1a.178.178,0,0,1,.032-.087.453.453,0,0,1,0-.292.053.053,0,0,1-.049-.02.178.178,0,0,0,.032-.087v-.122c-.015,0-.032-.017-.067-.035.017-.035.017-.069.035-.1a.491.491,0,0,1-.075-.09.045.045,0,0,1,.017-.032l-.052-.107.017-.017c-.017-.035-.032-.052-.049-.087V416.6l-.261-.191H150.5c-.049-.017-.084-.017-.142-.035-.014-.017-.067-.017-.1-.032h-.107a.415.415,0,0,1-.136-.017c-.017,0-.067.017-.1.017H149.2c-.09,0-.174.032-.26.032a1.707,1.707,0,0,0-.3,0,.614.614,0,0,0-.229.09.325.325,0,0,0-.119.206.83.83,0,0,0-.084.347.621.621,0,0,0-.038.191c.02.052-.017.107,0,.156,0,.035.02.087,0,.122a.153.153,0,0,0-.017.122v.3c-.017.139-.017.278-.035.417a1.2,1.2,0,0,1-.226.538.374.374,0,0,1-.171.1.96.96,0,0,1-.385.087c-.084.052-.174.017-.258.035a6.621,6.621,0,0,1-.8.017.241.241,0,0,1-.191-.035.381.381,0,0,0-.142-.017,1.014,1.014,0,0,1-.5-.122h-.017c-.032-.052-.049-.122-.084-.191a1.506,1.506,0,0,0-.035-.26c.017-.087.052-.174.069-.261.017-.017-.017-.017-.017-.035l.049-.052a.988.988,0,0,0-.014-.226c0-.069.014-.139.014-.208a.07.07,0,0,1,.058-.017c.035-.052-.023-.1.035-.156a.249.249,0,0,1,.084-.278c-.017-.035-.017-.035.017-.243.017-.069.049-.156.067-.243.035-.017.058-.035.09-.052a.1.1,0,0,1-.032-.069h.067a.279.279,0,0,0,.017-.171l.052-.107c-.069-.07,0-.136.032-.208-.032-.122.093-.226.093-.365.017,0,.017,0,.049-.017a2.8,2.8,0,0,1,.069-.33c.067-.052.156-.084.191-.188-.035-.038-.049-.072.017-.09-.017-.032-.035-.032-.052-.067a.687.687,0,0,1,.069-.122c-.017-.02-.035-.038-.035-.055a.513.513,0,0,0,.1-.414.161.161,0,0,0,.075-.017v-.069a.175.175,0,0,1,.032-.073l-.032-.035c.017-.066.049-.136.067-.188-.035-.069.035-.122.017-.191h.035c.017-.052.017-.09.032-.139l-.014-.017v-.055c.032-.1.067-.188.107-.327.014-.052.032-.139.049-.226a.839.839,0,0,0,.136-.365c0-.017.017-.035.035-.052-.035-.052-.017-.122-.017-.208a.2.2,0,0,0,.055-.017c.017-.1.017-.174.035-.243h.035c.017-.052.049-.087.067-.139a.773.773,0,0,1-.067-.052c.035,0,.049-.017.067-.017a.132.132,0,0,1,.017-.174c.035-.052.017-.087-.017-.136a.177.177,0,0,0,.069-.159c.055-.017-.017-.052.023-.084a.167.167,0,0,0,.032-.09c.017,0,.035-.017.052-.017,0-.087.017-.156.017-.243.049-.014-.035-.052.017-.069v-.035a.049.049,0,0,1,.032-.017h.017a.184.184,0,0,0-.067-.087.159.159,0,0,1,.084-.032c-.017-.017-.017-.038-.035-.072.069-.035.069-.1.093-.156-.023-.017-.023-.017-.041-.017,0-.014.017-.014.017-.014s0,.014.023.014a.3.3,0,0,1,.032-.119c0-.035-.017-.055-.017-.09a.126.126,0,0,1,.069-.032c-.035-.072-.017-.09.049-.177a1.349,1.349,0,0,1,0-.243v-.035c0-.067.069-.067.052-.139a1.215,1.215,0,0,0,.09-.087c-.055-.035-.035-.084-.035-.122l.052-.049a.265.265,0,0,0-.052-.09.064.064,0,0,1,.052-.017c.017-.087.035-.171.052-.243.017-.014.017-.014.032-.014.017-.1.035-.211.052-.333l-.017-.017a1.038,1.038,0,0,1,.035-.119.2.2,0,0,0,.017-.139c.072-.017,0-.09.072-.107.052,0,0-.084.052-.1a.256.256,0,0,1-.035-.084c.049-.087.017-.208.119-.3V407.8c.017-.049.09-.1.035-.171a.821.821,0,0,1,.038-.087c-.055-.087.035-.156.017-.243a.7.7,0,0,1,.052-.261c.032-.069.017-.156.084-.226.067-.052.067-.139.124-.223.035-.02.052-.038.1-.072h.084v-.035h.142c0-.035,0-.052.017-.07.035-.017.107,0,.159-.017a.155.155,0,0,1,.171.017h.014c.124-.052.229.017.336,0a.037.037,0,0,0,.032-.035.194.194,0,0,0,.194.017.223.223,0,0,1,.151,0,.213.213,0,0,0,.177.017c.052-.017.084.017.142,0s.084.017.136.035h.032c.035.017.058.052.093.07a.126.126,0,0,1,.084.017.185.185,0,0,1,.124.139,3.533,3.533,0,0,1,.084.417.133.133,0,0,0,.035.087c.035.052.017.069,0,.1.017.052.067.1.067.156a3.186,3.186,0,0,1,.093.434.6.6,0,0,1,.067.243.049.049,0,0,0,.017.032.461.461,0,0,0,.067.261c.017.038.035.09.058.139.017.1.052.226.067.33a.6.6,0,0,1,0,.176c.017.017.035.017.069.035-.017.017-.017.035-.035.049a1.013,1.013,0,0,1,.119.315c0,.032.017.067.017.1a.167.167,0,0,1,.023.1v.084l.049.1c0,.035.035.072.017.107.052.049.035.1.052.153a.34.34,0,0,1,.049.177c0,.032-.014.066-.014.084a.184.184,0,0,0,.049.072c0,.015-.017.015-.017.032a.187.187,0,0,0,.058.072c.032.153.067.292.1.466a.913.913,0,0,1,.067.174c.035.211.107.417.142.625.035.156.084.313.119.469.058.156.09.313.142.486.017.035,0,.069.017.1.035.035-.052.052,0,.087.017.017,0,.069.017.1a1.434,1.434,0,0,0,.032.243c.017-.017.035-.017.069-.035a2.086,2.086,0,0,0,.107.469c.017.174.084.344.119.521.035.122.072.243.107.347a1.679,1.679,0,0,1,.052.292l-.017.017a.75.75,0,0,1,.119.315,2.807,2.807,0,0,1,.072.278c.017.049,0,.1.017.153-.072.072,0,.122.017.194l-.017.014a.064.064,0,0,0,.052.017.243.243,0,0,0,.014.09h.035v.017a.49.49,0,0,1,.035.153c.017.035.017.087.035.139.055.122.055.261.107.382-.035.035-.017.069-.017.122.017,0,.035,0,.035.017l.049.1c-.017.017-.017.038-.032.052l.049.052a.313.313,0,0,0,.052.208.2.2,0,0,1,.038.122v.1a.172.172,0,0,0,0,.087.054.054,0,0,1,.035-.017c.017.032.017.087.035.122a.62.62,0,0,1,.067.191l.017.017a.9.9,0,0,0,.069.191c.038.052.02.139.038.208a.191.191,0,0,0,.035.122A.862.862,0,0,1,153.722,418.588Zm-6.927-.608c-.017,0-.035-.017-.052-.017l.035.035Zm.327-3.262v-.07c-.035,0-.049.014-.084.07l-.017.017v.035h.035l.017-.017c.015-.018.032-.035.05-.035Zm.42,3.609h-.052l-.017-.035-.072.017v.052l.017.017v.014s.023.02.023.038a.172.172,0,0,1,.049-.07Zm.139-4.133c-.02,0-.02-.017-.038-.017,0,.017.017.017.017.035h.02Zm.33.973a.232.232,0,0,0,0-.206v-.038l-.069.226-.055-.067a.252.252,0,0,1-.069.1.017.017,0,0,0,.017.017c0,.02,0,.02.017.02h.035l.055.067c.017.035.052.072.035.122l.017-.017a.049.049,0,0,1,.017-.032.158.158,0,0,1,0-.193Zm.417-1.7v.1c.017.017.017.038.017.072h.087v-.055a.289.289,0,0,1,.014-.275.218.218,0,0,1,.069-.09l.055-.206-.107-.191.142-.156-.017-.035h-.017a.184.184,0,0,1-.107.069v.014c-.017.02-.049.055-.084.09a.364.364,0,0,1-.035.052c-.017.017-.017.035-.041.052l-.084.122-.1-.1s-.035-.035-.055-.052a.061.061,0,0,0-.017.035l-.052.035c0,.017.017.032.017.052v.017a.161.161,0,0,1,.124.052.548.548,0,0,1,.119.226v.069a.175.175,0,0,1,.072.1Zm.22,1.2-.032-.087h-.226a.105.105,0,0,0,.038.072.132.132,0,0,1,.087-.035h.017a.124.124,0,0,1,.116.046Zm-.067-7,.052-.017a.217.217,0,0,1,.014-.084v-.052a.105.105,0,0,1,.023-.069l-.072.139c0,.033-.016.051-.016.083Zm.035-.379.072.087a.366.366,0,0,1,.136-.139c.017,0,.017,0,.035-.017a.1.1,0,0,1,.017-.07c-.017-.017-.017-.035-.017-.069a.237.237,0,0,1,.055-.139v-.052h-.124l-.084.052a.017.017,0,0,0-.017.017.189.189,0,0,1-.017.087.3.3,0,0,1-.038.1v.017a.258.258,0,0,1-.018.125Zm.159,7.43a.571.571,0,0,1-.052-.087l-.075.032a.267.267,0,0,1,.058.09v.066Zm.174.223-.017-.139-.055-.017a.3.3,0,0,1-.087-.049l.087.171c0,.035.017.035.055.055C148.949,414.961,148.949,414.941,148.949,414.941Zm1.175-.729c-.017-.139-.032-.278-.049-.4-.017-.017-.035-.017-.069-.017.017-.035.017-.069.035-.107a.035.035,0,0,1-.035-.032.413.413,0,0,1-.032-.194c0-.049-.093-.1-.017-.153-.035-.052-.017-.09,0-.139h-.035c-.017-.087-.04-.174-.058-.243,0-.017,0-.017.017-.035-.032,0-.049-.017-.067-.017.017-.038.017-.087.035-.122-.017,0-.035-.017-.052-.017a.189.189,0,0,0,.017-.087c-.017-.017-.035-.017-.052-.035.017-.035.035-.069.017-.087,0-.035-.035-.069-.049-.087a.107.107,0,0,1,.032-.052.058.058,0,0,0-.049-.017,1.016,1.016,0,0,1-.035-.226c0-.07.017-.139-.058-.209a.116.116,0,0,1-.014-.066.951.951,0,0,1-.035-.194c-.017-.035.017-.069.017-.1a.017.017,0,0,0-.017-.017.061.061,0,0,1-.035.017.347.347,0,0,0-.017-.122c-.084.4-.174.782-.26,1.2a.064.064,0,0,1-.049.017l.035.069c-.107.5-.211.99-.33,1.494h.153c.052,0,.107.017.159.017a.121.121,0,0,0,.084.017h.084c.04,0,.093,0,.093-.017.032-.038.049.017.067,0,.035-.038.052.017.067.017a.381.381,0,0,1,.093-.035c.017,0,.032.017.017.017a.242.242,0,0,1,.1-.017c.017,0,.049.035.072.017s.069.017.1,0a.206.206,0,0,0,.12-.039Zm-.831.559-.017-.035-.017-.017-.049.035h-.017Zm.052.535h-.035v.038h.035Zm.292-.692h-.1v.017c.035.017.069.049.069.067.014,0,.014.02.014.02l.017-.02v-.084Zm.194-4.322c.017.014.032.014.049.032.023-.017.023-.032.04-.049-.017-.02-.017-.02-.04-.02Zm.107,4.7h-.017v.014l-.072-.014a.13.13,0,0,1,.032.067c.019-.014.041-.049.058-.059Zm.588-6.478a.738.738,0,0,1,.124.09l.035.032c-.017-.049-.017-.084-.035-.122a.2.2,0,0,0-.023-.066l-.017-.017c-.017-.038-.035-.1-.067-.174,0-.017-.017-.017-.035-.017l-.035.1-.174-.087a.469.469,0,0,0-.119-.069.225.225,0,0,1-.107-.122.266.266,0,0,1,.032-.191v-.017c.075-.121.124-.194.093-.3-.017-.02-.017-.02-.017-.035l-.142.087v.764a.639.639,0,0,1,.174-.035.349.349,0,0,1,.229.087c.015.046.05.064.085.095Zm-.208,6.947c-.017-.072-.017-.072-.035-.09h-.017c-.017.017-.017.017-.035.017a.426.426,0,0,1-.139.107.7.7,0,0,0,.049.122c.023.014.041.014.041.032v.017h.017c.014,0,.014.017.014.017a.234.234,0,0,1,.1-.218Zm.049-5.937a.064.064,0,0,0-.017.052l.017-.035Zm.09,5.19c0-.02-.014-.038-.032-.07,0,.014-.017.032-.017.049l.035.038a.015.015,0,0,1,.014-.013Zm1.094-1.285h.049c-.017-.069-.035-.122-.049-.191,0-.02-.017-.02-.052-.052v.087l-.017.1-.067.035h-.041l-.017.017c-.017,0-.017,0-.017.017-.017,0-.032.015-.049.035a.258.258,0,0,1-.136.052.246.246,0,0,1-.124-.052c-.017.035-.017.052-.035.07,0,.052-.017.087-.017.122a.373.373,0,0,1-.084.139l.171-.017.049.174c.058.035.075.084.09.191l.017.07-.243.156c0,.017-.032.049-.049.067l-.11.069-.067-.087c-.084-.1-.1-.171-.017-.275l.084-.107.017-.084-.017-.087c0,.017-.014.017-.032.035l-.052.052a.285.285,0,0,1-.107.07c-.017,0-.017,0-.035.014l-.032.017h-.017l.049.365-.049.017.26.069-.017.107c0,.017-.017.049-.017.067a.14.14,0,0,1,.1-.049l.107-.035a1.17,1.17,0,0,1,.243-.26l.035-.038a.247.247,0,0,1,.159-.067l-.017-.017-.177.066.119-.136-.1-.139V414l-.067-.017.084-.069v-.07a.24.24,0,0,1,.067-.142c.035-.032.075-.049.093-.067a.233.233,0,0,1,.1-.191Zm-.8,1.855c-.017.035-.035.055-.067.055l-.017.049c.017-.017.035-.017.035-.032.05-.033.05-.051.05-.068Zm.119.437V415.7c-.017.017-.035.017-.035.032a.017.017,0,0,0,.017.017c0-.013.019-.013.019-.028Zm.075-.055-.017-.084v.067Zm.327-3.557v.035l.067.017h.058c0-.017.017-.035.017-.052a.168.168,0,0,0,.168-.069c.017-.017.017-.07.035-.1,0,0,.023,0,.023-.017a.172.172,0,0,1-.023-.1.238.238,0,0,1-.119.035.089.089,0,0,0-.084.035l-.017.017v.017l-.023.139-.084-.035c0,.017-.017.035-.017.052Zm.156,4.081Zm.622-1.111c-.017,0-.032.017-.049.017h-.017c-.017,0-.035,0-.035-.017v.035a.2.2,0,0,1-.124.188c-.017.017-.035.017-.049.038l-.087.067v-.035a.227.227,0,0,1-.107.017.3.3,0,0,1-.032.107l.014.014a.108.108,0,0,1,.017.072l.017-.02a.246.246,0,0,1,.226-.191h.017a.076.076,0,0,1,.058.017.253.253,0,0,1,.032-.1A.2.2,0,0,1,152,415.2v-.035a.356.356,0,0,0,.052-.083Zm-.394-3.039c-.017-.017-.041,0-.058.017a.1.1,0,0,0,.058.035l.015-.017v-.035Zm.067,2.776a.091.091,0,0,1,.017.07l.049-.032c-.014,0-.014-.017-.014-.017s-.033-.018-.05-.018Zm.119-2.012v-.1c0-.017-.017-.035-.017-.052v.017a.091.091,0,0,0,.019.138Zm0,2.081v.052l.017-.017c0-.017,0-.017.023-.035Zm.124,1.824a.064.064,0,0,1-.052.017l.087.052a.049.049,0,0,1,.032.017.185.185,0,0,1-.065-.083Zm.1-1.824c-.017-.032-.067-.032-.067-.032h-.017l.035.067Zm.035-.032.055-.055c-.032-.017-.032-.032-.055-.032v-.017h-.069a.111.111,0,0,1-.014.066c.014,0,.032.02.049.02l.058.035Zm.107-1.042a.064.064,0,0,1-.017-.052c0,.017-.017.017-.017.035v-.017c.017.017.017.035.035.049Zm.226,1c0,.02,0,.02-.017.02a.074.074,0,0,0,0,.084l.035-.035c.02-.006,0-.023-.015-.061Z" transform="translate(-16.307 -30.336)" fill="#515151"/><path d="M154.89,417.89c-.035.208-.017.417-.035.625,0,.035-.017.087-.017.136a.3.3,0,0,1-.035.122,1.1,1.1,0,0,1-.156.229.542.542,0,0,1-.226.07h-1.042c-.035,0-.072.017-.072-.017,0-.052-.017-.038-.035-.02a.06.06,0,0,1-.084.038c-.1-.017-.226.035-.327-.017-.093.052-.177.017-.26.017s-.142.035-.194-.017c-.017-.02-.049.017-.067.017-.159-.017-.3.035-.434-.017-.035.069-.11-.052-.159.017-.035-.07-.1.017-.136-.017-.058.035-.124-.052-.159.017h-2.414c-.049,0-.1.017-.136-.017,0-.02-.038.017-.055.017a.816.816,0,0,1-.206,0c-.038,0-.072-.038-.09-.055s-.017-.066-.017-.084c-.014-.038-.032-.038-.049-.052.049-.052-.017-.09-.035-.139s.017-.072-.035-.1c-.014-.017.052-.052,0-.087a1.391,1.391,0,0,0-.032-.263,1.8,1.8,0,0,1-.023-.345c0-.052-.069-.087-.035-.139.058-.035,0-.087.035-.122.055-.069,0-.139-.017-.208,0-.038-.052-.07,0-.1.017,0,0-.035-.017-.049a.156.156,0,0,1-.035-.124V417a.245.245,0,0,1,.035-.153.141.141,0,0,0-.017-.142c-.017-.052-.032-.087.017-.122-.035-.017,0-.069-.017-.069a.2.2,0,0,1-.049-.153V416.1c.017-.055.049-.1.032-.139-.032-.072.017-.142-.014-.211-.035-.032-.017-.1.014-.153a.058.058,0,0,0,0-.087.172.172,0,0,0,.017-.055c0-.069.093-.139-.032-.174-.017,0-.052-.069-.035-.087a.285.285,0,0,0,0-.122v-.139c0-.035-.017-.084.017-.122a.147.147,0,0,0,0-.122c-.052-.032,0-.067,0-.1s.067-.122.017-.171c-.017,0,.014-.035.014-.052a.625.625,0,0,0-.014-.243c-.017-.017,0-.055-.017-.087,0-.072.032-.139-.017-.208v-.035a.065.065,0,0,0,0-.1c0-.017-.017-.035,0-.052a.065.065,0,0,0,0-.1c.035-.055,0-.122.035-.177s0-.067-.017-.1a.1.1,0,0,1,0-.122c.017-.02,0-.052,0-.087,0-.055.017-.122.017-.174.067-.02-.035-.069.014-.1s-.014-.1.035-.156v-.052c-.017-.035-.067-.087-.049-.087.032-.035.014-.069.014-.107a1.708,1.708,0,0,0-.032-.275,3.207,3.207,0,0,1,.017-.4.464.464,0,0,1,.014-.208c.035-.052-.014-.122.017-.188.017-.038-.017-.09-.017-.107.052-.032.017-.07,0-.1,0-.017,0-.049.017-.049.035-.038.052-.072,0-.09-.032-.032.035-.052.017-.087a.127.127,0,0,1-.035-.087v-.538c0-.017.017-.049.017-.067.017-.038.052-.1.035-.1-.052-.055.041-.09.017-.122a.113.113,0,0,1-.017-.072.763.763,0,0,1-.052-.382.037.037,0,0,1,.035-.032c.035,0,.035-.055.017-.055-.035-.049.017-.084.017-.139,0-.017.023-.017.023-.032-.107-.072.017-.156-.023-.229a.774.774,0,0,1-.035-.4.2.2,0,0,1,.017-.139c.017-.035-.017-.087-.017-.122v-.3a.517.517,0,0,1,.017-.171.119.119,0,0,0,.041-.1c0-.052-.041-.09-.023-.139-.119-.052-.052-.122-.035-.191a1.912,1.912,0,0,1,.035-.313,1.415,1.415,0,0,1,.041-.243.473.473,0,0,1,.275-.313c.069.035.069-.087.136-.052.017-.07.052.017.107-.017a.072.072,0,0,1,.1-.017c.017,0,.069-.035.124-.052.035-.017.087.017.119-.035a.893.893,0,0,0,.313-.035c.055,0,.09.052.142,0,.032-.017.084.017.136.035h.3c.017,0,.052.017.067.017s.052-.017.069-.017h.035c.072-.017.072.069.139.052a.11.11,0,0,1,.119.07c.075.017.093.072.142.1a1.656,1.656,0,0,1,.159.209c0,.035.067.069,0,.1a.252.252,0,0,0,.052.035c-.017.052.049.1.014.174v.017a.352.352,0,0,1,.069.261,4.649,4.649,0,0,1,0,.7,1.654,1.654,0,0,1-.035.414,1,1,0,0,1-.017.229c-.049.174,0,.33-.032.483a3.375,3.375,0,0,0-.017.42c-.017.035-.017.084-.035.119s.035.052,0,.1c-.017.038.035.087.035.139v1.01c0,.032,0,.084-.017.1-.058.02.035.052-.017.087v.087a.033.033,0,0,0,0,.052.726.726,0,0,1,.035.281,2.086,2.086,0,0,1-.017.327,1.2,1.2,0,0,0-.017.347,2.125,2.125,0,0,1,.035.33c-.017.084.017.174-.035.278-.017.017.035.067.035.122v1.25a.26.26,0,0,1-.035.1v.1a.857.857,0,0,0,.017.292c.017.035,0,.072,0,.122a.907.907,0,0,0,.017.1v.472a.249.249,0,0,1-.035.153c.052.052.017.1.035.156v.33a1.326,1.326,0,0,1-.035.243.332.332,0,0,0,.171.347c.014,0,.156.035.174.035.124-.017.26.035.385-.035.035.052.1.017.153.035a.472.472,0,0,0,.31,0,.453.453,0,0,1,.058-.035c.067.052.151.017.226.035a.258.258,0,0,0,.226,0,.655.655,0,0,1,.446,0c.035.017.075.017.124.035.035,0,.052-.052.084-.017.052-.052.124,0,.177-.035a.309.309,0,0,1,.174-.017.679.679,0,0,0,.188,0c.058-.017.107.087.142,0h.174a.821.821,0,0,1,.3.052.049.049,0,0,0,.067,0,.093.093,0,0,1,.087.055.055.055,0,0,0,.072-.02.1.1,0,0,0,.017.069,1.248,1.248,0,0,1,.136.087.576.576,0,0,1,.124.33C154.89,417.508,154.907,417.7,154.89,417.89Zm-4.9-9.251a.447.447,0,0,1,.069-.124c.017-.015.035-.015.017-.084V408.4c0-.035-.017-.069-.017-.107h-.052a.182.182,0,0,1-.174.09.2.2,0,0,1-.188-.174.017.017,0,0,0-.017-.017c-.014-.02-.072-.052-.107-.087l-.119-.1a.279.279,0,0,1-.368-.052h-.1c0,.017.017.052.017.069a.263.263,0,0,1,.049.087.436.436,0,0,1-.067.3c-.017.014-.035.052-.052.07.035.035.069.066.1.1H149a.168.168,0,0,1,.127.069.616.616,0,0,1,.116-.052c.052-.017.069-.017.087-.038a.127.127,0,0,1,.107-.049h.243l.119.208Zm-.729,6.475Zm.035-.017v.052h0a.033.033,0,0,0,0-.049Zm.973-5.746c-.035-.017-.084-.035-.1-.09h-.107c-.017,0-.017,0-.017.038l-.052.1v.02a.064.064,0,0,1,.017.052l.226-.017c.017-.033.017-.071.034-.1Zm.243-2a.247.247,0,0,1-.035-.1l-.226-.156c0,.017,0,.017-.017.017a.139.139,0,0,1-.084.087.371.371,0,0,1,.067.208.486.486,0,0,1,.159-.017c.017.017.035,0,.069-.017.016,0,.055-.019.068-.019Zm2.379,10.762a.017.017,0,0,0-.017-.017v-.035a.1.1,0,0,1-.015-.052c-.035-.035-.075-.052-.11-.09l-.049-.049-.052-.035v-.017c-.049.069-.049.1-.017.139,0,.017.017.035.017.052a.306.306,0,0,1,.211.087c.016,0,.016.02.034.02Zm.278-.68-.017-.014-.035-.035v.035c.017.014.017.035.035.035a.064.064,0,0,0,.052.017Zm.017.316Zm.417-.208a.017.017,0,0,1-.017-.017.1.1,0,0,1-.055-.1l-.119-.052.136-.1h.023a.511.511,0,0,1-.107-.035l-.1.122c0,.017,0,.017.017.035a.262.262,0,0,1-.09.171l-.052.055h-.014c.014.017.014.035.014.069v.052a.064.064,0,0,0,.052-.017.911.911,0,0,1,.177-.087.116.116,0,0,1,.067-.035.235.235,0,0,0,.065-.059Z" transform="translate(-10.753 -30.35)" fill="#515151"/><path d="M155.163,409.636c-.017-.017-.038-.049-.055-.066.038-.055-.084-.122-.017-.194a.507.507,0,0,0-.035-.122l.017-.017a.069.069,0,0,0-.049-.014V409.1c-.069-.09-.136-.174-.211-.278v-.038a.017.017,0,0,0-.017-.017.575.575,0,0,1-.208-.136c-.067-.052-.153-.07-.226-.124-.017,0-.017,0-.035-.015h-.208a.177.177,0,0,0-.1.032.958.958,0,0,0-.31.4.882.882,0,0,0-.093.261c-.017.084-.084.171-.067.261a3.39,3.39,0,0,0-.084.449c0,.055-.017.1-.017.176-.017.049-.017.1-.035.171,0,.017-.023.017-.023.055s.058.084,0,.153c-.017,0-.017.035,0,.072.023.171-.052.362-.035.536a.166.166,0,0,1-.032.09c.014.014.014.032.032.032l-.032.035a.761.761,0,0,1,0,.469v.035a1.681,1.681,0,0,0,.014.4c.035.191,0,.4.017.605a.733.733,0,0,1-.032.194,1.175,1.175,0,0,1,0,.226.658.658,0,0,0-.017.261c0,.035-.017.052-.035.087.067.07.017.122-.017.174,0,.017.017.049.017.07a1.879,1.879,0,0,1,0,.313,3.012,3.012,0,0,0-.035.4.251.251,0,0,1-.017.122c-.014.038.052.055.017.1-.017.035,0,.09,0,.122a.374.374,0,0,1,0,.139.289.289,0,0,0,.017.122,1.288,1.288,0,0,1,.017.365.838.838,0,0,0,.017.09c.035.136.067.258.1.4a1.256,1.256,0,0,0,.226.521,1.323,1.323,0,0,1,.159.191l.017-.017a.29.29,0,0,0,.159.069c.049.017.049.052.067.087a.979.979,0,0,0,.226,0,.968.968,0,0,0,.31-.052c.017,0,.017-.017.035-.017s.017.017.058.035c0-.035.017-.052.017-.069h.049c.035-.035.069-.052.1-.087.017-.017.052-.052.093-.087,0-.136.119-.258.119-.417.014,0,.032-.017.049-.035a.035.035,0,0,0-.035-.032,1.251,1.251,0,0,0,.052-.246c.017-.07,0-.153.017-.24.017,0,.038-.017.055-.017v-.122l.052-.055c-.069-.084.017-.156.035-.243a.058.058,0,0,0,.049-.017v-.067c.069,0,.159.017.208-.055.052,0,.087-.017.127,0,.049.038.067-.017.1,0a.162.162,0,0,0,.119-.035c.038-.014.107.017.142-.014,0-.017.014,0,.014,0a1.329,1.329,0,0,1,.454,0c.119.014.243,0,.379.014.02,0,.038-.014.055-.014.052.087.1.087.208.049a1.309,1.309,0,0,0,.136.055.064.064,0,0,0,.052-.017.219.219,0,0,1,.191,0,.3.3,0,0,1,.226.122v.067a.354.354,0,0,1,.069.226c0,.069.032.156-.017.229s.035.153-.035.2a2.076,2.076,0,0,1-.1.452c-.017.055-.09.072-.072.139a.524.524,0,0,1-.052.156c-.017.035-.017.087-.035.139a1.233,1.233,0,0,0-.049.139c-.107.226-.211.434-.336.66a3.054,3.054,0,0,1-.24.452,1.688,1.688,0,0,1-.313.327,1.284,1.284,0,0,1-.261.177,2.39,2.39,0,0,1-.292.156h-.035c-.017.032-.035.087-.107.069h-.017c-.069.07-.185.07-.278.122a1.239,1.239,0,0,1-.26.084,1.128,1.128,0,0,1-.344.072c-.032,0-.072.035-.107.035a.237.237,0,0,1-.1-.035h-.017c-.067.017-.124.017-.191.035a.692.692,0,0,1-.313.052H154c-.067,0-.124-.02-.174-.02a.326.326,0,0,1-.313-.067c0,.017-.017.017-.035.035a3.962,3.962,0,0,1-.576-.156V418.8c-.136.017-.237-.087-.379-.1a.425.425,0,0,1-.084-.069l-.017.014c-.023-.014-.023-.032-.041-.049-.015,0-.049-.017-.067-.017-.067,0-.1-.052-.136-.122a.235.235,0,0,1-.226-.087c-.055-.052-.124-.09-.174-.139-.035-.017-.069-.052-.11-.07a.376.376,0,0,1,.04-.052,1.386,1.386,0,0,1-.469-.538l.017-.02-.052-.1c0-.02-.017-.052-.017-.069a.8.8,0,0,1-.072-.052v-.035c0-.139-.119-.243-.153-.382v-.052a.242.242,0,0,0-.038-.156c0-.017.02-.052.02-.069a.417.417,0,0,0-.072-.07c.017-.069-.017-.122,0-.174a.334.334,0,0,0-.035-.188c-.017-.072.035-.142-.017-.208.052-.055-.017-.107.017-.156-.049-.055-.017-.122-.035-.194,0-.014-.014-.032-.049-.049a.059.059,0,0,0,.035-.02,1.162,1.162,0,0,0-.017-.243c-.035-.052-.017-.139-.017-.2.017-.055-.017-.122.035-.177.014-.035-.017-.084.014-.122a.065.065,0,0,0-.014-.035v-.744c0-.052.032-.09.032-.156a.135.135,0,0,1,.017-.139.334.334,0,0,0-.017-.176c0,.017,0,0,.017-.014a.5.5,0,0,1,0-.35c.052-.1.017-.206.035-.31q-.078-.052,0-.1c.035-.035-.052-.072,0-.122.017-.017-.017-.087-.017-.139a.054.054,0,0,1,.017-.035c-.035-.035-.069-.07-.084-.07,0-.087-.017-.139.032-.191,0-.017.017-.017.017-.035-.049-.035.017-.069,0-.087-.035-.017,0-.052-.017-.069a.306.306,0,0,1,.017-.1.25.25,0,0,0-.035-.052c-.014-.014-.032-.035-.049-.035,0-.1.084-.156,0-.223a.04.04,0,0,0,.035-.038c0-.017-.017-.069-.017-.084a.117.117,0,0,0,0-.107c-.017,0-.017-.035-.017-.052.035-.017.035-.067.035-.1a.343.343,0,0,0,0-.122c-.035-.035,0-.052-.017-.087-.052-.035.032-.07,0-.1s-.017-.1-.017-.153a.051.051,0,0,0,.049-.02c.035-.1-.032-.191-.049-.3a1.561,1.561,0,0,1-.017-.292,1.928,1.928,0,0,1,.017-.316c-.017-.017-.017-.035-.035-.049l.052-.055a2.306,2.306,0,0,0,.032-.327c.017-.1,0-.208.017-.33a.49.49,0,0,1,.035-.156c.017,0,.017.017.052.035-.017-.035-.017-.052-.035-.09a1.116,1.116,0,0,0,.072-.136c0-.017-.02-.052,0-.09a.124.124,0,0,1,.035-.066c.017-.035.017-.072-.017-.09a.47.47,0,0,0,.069-.206,1.217,1.217,0,0,1,.067-.159c.017-.032.035-.084.052-.121.014-.015.014-.049.038-.049.035-.055.069-.07.087-.122.017-.017.049-.035.067-.055-.017-.049.052-.084.067-.139a1.14,1.14,0,0,1,.093-.136.63.63,0,0,1,.1-.122c.035-.035.107-.035.142-.07.017-.069.084-.052.1-.1.017,0,.017.017.035.017a.8.8,0,0,1,.072-.174l.035.035a.344.344,0,0,0,.168-.1c.023,0,.023.017.023.017.052-.087.052-.087.171-.1a.252.252,0,0,1,.072-.035c0-.069.069-.069.1-.1.035-.069.1-.052.142-.087.035-.052.1-.035.136-.07a1.07,1.07,0,0,1,.174-.052.51.51,0,0,1,.171-.035c0,.017.023,0,.023-.017a.054.054,0,0,0,.035.017.471.471,0,0,0,.151-.035v-.035c.093-.052.194-.017.26-.052.017-.017.041.017.058.017.067,0,.136.017.185-.017.058-.017.124.017.194-.035.032-.035.084.035.139,0,.035.035.069-.017.087.017.035-.052.049,0,.084,0s.072-.017.107-.017a.468.468,0,0,1,.3.052c.049-.052.1,0,.142-.017a1.9,1.9,0,0,0,.344.07c.156.035.292.087.452.139a2.765,2.765,0,0,1,.31.174c.035.035.069.069.124.122l.035-.035a1.046,1.046,0,0,1,.261.139,2.7,2.7,0,0,0,.327.313c.017.035.017.087.035.087.09.07.159.174.243.24.035.038.035.09.072.125a.29.29,0,0,1,.1.122c.035.052.052.087.087.136a.5.5,0,0,0,.107.122c.017.055,0,.107.049.122.035.038.035.09.069.122a2.87,2.87,0,0,1,.278.68c.014.049.014.049-.017.122a.058.058,0,0,0,.049.017,1.91,1.91,0,0,1,.04.573c-.04.171-.142.31-.208.518a.841.841,0,0,1-.336.156,2.9,2.9,0,0,1-.536.055h-.084c-.017,0-.017-.02-.052-.02-.072,0-.142.038-.208.02h-.226a1.311,1.311,0,0,1-.261-.038,1.131,1.131,0,0,1-.243,0,1.623,1.623,0,0,0-.278-.017.017.017,0,0,0-.017-.017c-.156-.049-.208-.191-.26-.33a.852.852,0,0,1-.038-.226c0-.07-.035-.139-.017-.206A.2.2,0,0,1,155.163,409.636Zm-3.335,3.126a.3.3,0,0,1-.084-.174c-.035-.017-.09-.017-.142-.035-.017-.017-.017-.017-.035-.017l-.017.017v.052a.1.1,0,0,1,.1.052.3.3,0,0,1,.072.1l.084.017a.017.017,0,0,1,.023-.012Zm-.208.886v-.017c0,.017-.017.035-.017.052l-.017.014.035.139a.582.582,0,0,1-.017-.084.1.1,0,0,1,.016-.105Zm.521.712c-.017.017-.017.035-.035.035a.185.185,0,0,1-.136.087.017.017,0,0,1-.017.017c-.017.032,0,.067.035.139l.049-.055a1.438,1.438,0,0,1,.052-.139.084.084,0,0,0,.035-.067c.017,0,.017,0,.017-.017Zm.281-.591a.087.087,0,0,1-.072-.035.131.131,0,0,1-.087.017l-.032.017v-.017a.437.437,0,0,1-.107.174.068.068,0,0,0-.017.052v.035a.185.185,0,0,1,.017.139.119.119,0,0,1,.032.067.061.061,0,0,1,.023.055.3.3,0,0,1,.035-.09l.017-.084a.07.07,0,0,0,.017-.052.448.448,0,0,1,.1-.211.05.05,0,0,0,.017-.032.175.175,0,0,0,.057-.035Zm.57-2.863-.09.017-.049-.055a.644.644,0,0,1-.119-.191c-.017,0-.017.017-.035.035h-.017a.2.2,0,0,1-.142.072l-.017.017c-.017,0-.032-.017-.049-.017v.049l.017-.017.032.191h.052a.461.461,0,0,1,.261.087.433.433,0,0,1,.139-.017c0-.049.017-.121.017-.171Zm-.139,3.47h-.035a.152.152,0,0,1-.1.067c-.035,0-.093.017-.124.017h-.052c0,.02,0,.055-.017.069v.072a.064.064,0,0,0,.052.017c.017-.017.017-.038.035-.055l.055-.084h.084c.035,0,.052,0,.087-.055a.015.015,0,0,1,.017-.014Zm-.278-6.545c.017.035.035.035.049.052l.017-.017c.023-.017.023-.035.041-.072l.084-.122c-.032,0-.049.02-.067.072a.278.278,0,0,1-.107.087Zm.124,1.355c-.017.017-.017.017-.035.017v.139c0,.015,0,.015.017.015h.035c0-.015,0,0,.017,0v-.067Zm.067-.573.052.049.017-.066v-.035a.243.243,0,0,0-.068.053Zm.923,9.112c0,.017,0,.017.017.035v-.017Zm.032.052h.017c.017-.035.017-.035,0-.052v.052l-.017-.017Zm.781-9.6v-.191a.187.187,0,0,0-.035-.139l-.017-.055.017-.049v-.1l-.142.052-.014-.156V407.5c-.017,0-.035-.017-.052-.017s-.017,0-.035-.017a.373.373,0,0,1-.292-.191c-.017,0-.017.017-.017.035a.151.151,0,0,1-.058.1l-.017.017v.035a.017.017,0,0,0,.017.017.3.3,0,0,1,.142.382c-.017.035-.017.049,0,.049.035.072.052.122.035.159,0,.067-.07.1-.084.122v.035a.437.437,0,0,1,.208-.052h.344Zm.159.07v-.017H154.6Zm1.349-.3c.035,0,.052-.017.087-.017a.407.407,0,0,1,.142.035l.119.049v-.084l-.1-.07.069-.1-.035-.017v-.035h-.084v-.038l-.035-.032-.035.209-.124-.156Zm0,1.146a.505.505,0,0,1,.177-.035.308.308,0,0,1,.208.084.153.153,0,0,0,.1.072c.035.032.069.049.124.1.017.017.052.049.069.049l.119-.032.035.153a1.271,1.271,0,0,0,.226.038v-.02l-.171-.067-.017-.072a.262.262,0,0,1,.069-.226h-.035a.145.145,0,0,1-.107.038.157.157,0,0,1-.087-.017.316.316,0,0,1-.139-.385c.017,0,0-.017,0-.032l-.017-.017c-.017.032-.035.049-.052.087l-.017.035v.032l-.067.159-.159-.087a.479.479,0,0,1-.136-.072.127.127,0,0,1-.09-.122.2.2,0,0,1,.017-.171l.017-.017c.072-.122.107-.208.072-.3v-.032l-.142.087Zm.052,7.063a.246.246,0,0,0,.107.177h.017a.189.189,0,0,1,.171-.229.084.084,0,0,1,.055-.014l.1-.017.035.067a.455.455,0,0,1,.124-.122c.049-.049.049-.049.035-.139a.283.283,0,0,1,.014-.258l.035-.035v-.1h-.119l.017.049-.035.055c0,.017-.02.035-.02.049a.037.037,0,0,0-.035.035.062.062,0,0,1,.017.038c0,.017.017.032.017.049l.038.122-.156.035h-.017c-.017,0-.035.017-.069.017a.712.712,0,0,0-.107.055.292.292,0,0,0-.084.067,1.453,1.453,0,0,1-.139.106Zm.3,1.876a.238.238,0,0,0-.069-.052l-.084-.087v-.035l-.017.017c-.052.087-.035.1,0,.139,0,.017.017.035.017.052a.208.208,0,0,1,.1.017Zm.156-9.842c.017.017.017.017.017.035l.069.069v.087c.02.014.02.035.038.035a.789.789,0,0,1,.313-.035h.014v-.017l-.032-.035v-.017l-.017-.017-.017-.02v-.014a.288.288,0,0,1-.107-.107.221.221,0,0,1-.281.046Zm.194,9.338c-.017-.017-.035-.017-.035-.035l-.017-.035v.035c0,.035.017.035.017.049h.017c.015.007.015.007.015-.007Zm.57-7.48c0,.017.017.017.035.032s.032.017.055.035a.125.125,0,0,0,.035-.066,1.137,1.137,0,0,0,.067-.139c-.017,0-.017-.02-.032-.02a.256.256,0,0,1-.11.1c-.014.017-.014.038-.032.038Z" transform="translate(-6.042 -30.343)" fill="#515151"/><path d="M160.788,411.411c-.017.032.052.066,0,.1.035.052-.017.1,0,.174a.154.154,0,0,1,.017.122c0,.035-.017.09-.017.122v.1c-.017.3-.017.59-.035.9a.745.745,0,0,1-.038.174.56.56,0,0,0,.014.33v.035c-.067.136-.014.3-.032.452,0,.032-.017.049-.017.087.035.052.017.1,0,.174,0,.014-.017.032-.017.049a.2.2,0,0,1,.017.087.245.245,0,0,1-.017.122.171.171,0,0,0,.035.1c.017.035,0,.072,0,.09v1.282a.859.859,0,0,1-.035.226c0,.072.035.156-.017.211a2.247,2.247,0,0,1-.084.486,1.085,1.085,0,0,1-.09.223,2.866,2.866,0,0,1-.313.573.8.8,0,0,1-.119.156c-.038.069-.107.122-.142.191-.049.052-.119.069-.156.139a.339.339,0,0,1-.171.139.991.991,0,0,1-.159.139c-.049.035-.119.087-.174.122a4.25,4.25,0,0,1-.5.243c-.119.032-.226.1-.362.136a.981.981,0,0,1-.327.09c-.075,0-.142.017-.159,0-.017.017-.017.032-.035.049h-.124a.256.256,0,0,0-.1.038c-.049.017-.067-.055-.124-.017a.189.189,0,0,0-.049-.038.184.184,0,0,1-.017.072c-.226,0-.42.017-.6,0-.075,0-.124-.017-.177-.017-.067-.017-.124.017-.174-.038a.6.6,0,0,1-.243-.032.8.8,0,0,1-.278-.069,3.673,3.673,0,0,1-.486-.159.469.469,0,0,1-.292-.188c-.017,0-.035.017-.052.035-.075-.052-.159-.1-.243-.156a2.833,2.833,0,0,1-.226-.177,1.045,1.045,0,0,1-.243-.188v-.087h-.052a.2.2,0,0,0-.107-.156.187.187,0,0,1-.1-.122,1.906,1.906,0,0,0-.243-.365.09.09,0,0,1-.035-.069l.017-.017c-.049-.069-.017-.156-.035-.243h-.055c-.035-.052-.084-.07-.084-.139a.51.51,0,0,1-.052-.174c0-.017-.035-.035-.035-.052a2.568,2.568,0,0,0-.017-.365.067.067,0,0,0-.055-.017c-.017-.052,0-.122-.052-.174,0-.119-.084-.226-.017-.347,0-.017-.015-.032-.032-.049a.1.1,0,0,0,.032-.072.052.052,0,0,1-.015-.032l.015-.017a.442.442,0,0,1-.049-.072.207.207,0,0,1,.017-.139c.017-.014,0-.052-.017-.119,0,.014.017,0,.017-.017,0-.055-.017-.1-.017-.156s-.052-.1-.035-.159a.455.455,0,0,0,0-.153v-.174c0-.055-.017-.121.017-.159a3.215,3.215,0,0,1-.017-.987.017.017,0,0,1-.017-.017.3.3,0,0,0,.017-.139l.052-.052a.589.589,0,0,0-.017-.174.4.4,0,0,1-.035-.243c0-.052.035-.107.035-.139.017-.017.035-.035.017-.035-.035-.122.032-.243,0-.365a.06.06,0,0,1-.017-.035.056.056,0,0,0,.049-.017c-.067-.087.017-.174,0-.261a.544.544,0,0,1,.035-.278c-.035-.017-.035-.052-.035-.087v-.868a.442.442,0,0,1,.052-.2c0-.038.017-.055,0-.072a1.974,1.974,0,0,1-.052-.31v-.315c.017-.1.017-.188.035-.292a.017.017,0,0,1,.017-.017.525.525,0,0,1-.035-.159,2.99,2.99,0,0,1,.107-.692h.035a1.759,1.759,0,0,0,.084-.243v-.017l.052-.1s-.017-.017,0-.017c.035-.052.09-.087.107-.142s.017-.122.035-.171a.413.413,0,0,1,.119-.208c.017-.017.017-.052.038-.069h.07a.123.123,0,0,1,.035-.07.8.8,0,0,1,.226-.3c.032-.017.049-.052.084-.07.017-.017.052-.035.069-.069.02-.052.055-.069.122-.069,0-.017.017-.035.017-.052a.061.061,0,0,0,.035.017,1.112,1.112,0,0,1,.452-.33.017.017,0,0,1,.017.017c.052,0,.069-.052.107-.069a.437.437,0,0,1,.153-.069c.035-.017.084-.052.124,0a.143.143,0,0,1,.171-.087c.032-.069.124-.069.174-.087.159-.035.327-.052.486-.087.017,0,.017-.017.035-.017.067.035.067.035.208-.035.017,0,.035.035.052.035.124-.017.258.035.385-.035.032.052.067-.017.084,0,.032,0,.067.017.107.017a.142.142,0,0,1,.084.017c.035,0,.069-.017.1,0a.914.914,0,0,0,.093.017c0,.017.017.017.017.035l.032-.035h.136c.142.07.3.017.434.122a.337.337,0,0,1,.229.052c.067-.052.107.069.174.035a.064.064,0,0,1,.017.052h.067l.087.087a.222.222,0,0,1,.174.035,1.325,1.325,0,0,1,.4.226.35.35,0,0,1,.084.052c.052.122.177.174.26.243.052.035.124.052.142.139,0,.017.035.017.067.035v.052c.017.087.1.087.142.153.035,0,.017.038.035.055.084.1.119.226.191.33a.254.254,0,0,1,.035.156c.017,0,.017.017.035.017a.884.884,0,0,0,.084.139c.017.069.035.122.052.191a.264.264,0,0,1,.017.174c.107.032.072.153.122.226-.015.067.069.156,0,.243a.632.632,0,0,1,.087.26,1.913,1.913,0,0,1,.055.536c0,.017.052.038.017.072-.017,0,.017.032.017.067v.038c0,.049-.058.1,0,.171a.492.492,0,0,1,.017.177.744.744,0,0,1,.017.278c-.017.015-.035.032-.035.049s.017.035.017.055a.077.077,0,0,1-.052.017.4.4,0,0,0,.069.032v.226C160.8,411.269,160.84,411.339,160.788,411.411Zm-6.5,4.023a.127.127,0,0,1,.072.122v.072c0,.017.017.049.017.066a.1.1,0,0,1,.017.1h.208l.017-.035-.035-.032a.337.337,0,0,1-.02-.365.315.315,0,0,1,.174-.142V415l-.136-.243.243-.26.069.139c.017,0,.017,0,.032.017.017-.017.035-.035.035-.055l.017-.017a.339.339,0,0,1,.035-.139.062.062,0,0,0,.014-.049.112.112,0,0,1,.023-.072.331.331,0,0,1-.174.072.3.3,0,0,1-.142-.038h-.017a.289.289,0,0,1-.052.159.157.157,0,0,1-.122.049.061.061,0,0,0-.017.035.446.446,0,0,1-.1.1c-.014,0-.032.038-.049.072a.264.264,0,0,1-.052.066l-.072.122-.1-.1a.2.2,0,0,1-.087-.1v-.017a.47.47,0,0,1-.055.084l-.052.055-.032-.017c.017.049.017.084.032.122a.055.055,0,0,0,.017.049h.035a.15.15,0,0,1,.107.035.486.486,0,0,1,.153.26v.1Zm-.1-6.527c0,.017,0,.017.017.017a.141.141,0,0,0,.084-.084c.017-.087.124-.122.174-.122a.375.375,0,0,0,.087-.055l-.119-.243.243-.067a.4.4,0,0,0,.014-.139l.017-.055a.606.606,0,0,1,.1-.24l-.049-.052c0,.017-.017.017-.017.035-.017.017-.067.069-.067.087l-.159.3-.084.014a.613.613,0,0,1-.052.211.537.537,0,0,1-.107.153Zm.136,4.808c0-.032-.017-.049-.017-.084-.017,0-.017,0-.035.017Zm-.052.229c.035-.052.052-.09.09-.139,0-.017-.017-.035-.017-.052l-.02.052c-.017.017-.017.017-.017.035a.247.247,0,0,0-.033.1Zm.854,3.4v-.014l-.052.014-.038-.156h-.017l-.052-.017a.4.4,0,0,1-.191-.206l-.087.049-.049-.122a.144.144,0,0,1,0-.087.187.187,0,0,1-.052-.122v-.035l-.02.017-.017-.017-.035.069-.1-.035a.338.338,0,0,1-.107.069l.072.313A.27.27,0,0,1,154.5,417h.035c.072,0,.142.035.174.174a.339.339,0,0,1,.017.139v.02l.107-.177.1.191c.014.069.049.069.1.087a.837.837,0,0,0,.1-.089Zm-.075-1.077h-.014a.365.365,0,0,1-.153.122c-.035.017-.052.035-.075.035l.194.122a.246.246,0,0,1,.017-.067.622.622,0,0,1,.032-.177c.023,0,.023-.017.041-.035Zm-.032-2.292a.1.1,0,0,1,.072.055V414l-.072-.052Zm.26-.553.055.052a.242.242,0,0,1,.052-.156v-.035l-.052-.017-.017-.052a.236.236,0,0,1-.055-.122c0-.052-.035-.09-.084-.139a.284.284,0,0,1-.1.226c.017.035.017.049.035.049.117.038.17.072.17.195Zm-.052,2.8a.284.284,0,0,1,.107.067l.017.017.069-.017.032-.049a.734.734,0,0,1,.017-.194.566.566,0,0,0-.208.156.059.059,0,0,1-.031.017Zm.09.952.223.052-.052-.1c-.017-.017-.035-.035-.035-.052a.049.049,0,0,0-.032.017l-.087.035c0,.011-.014.028-.014.045Zm.26.643h-.09l-.017-.017a.017.017,0,0,0-.017.017.756.756,0,0,1,.017.087h.017c.035,0,.052.017.067.017a.2.2,0,0,0,.027-.107Zm.344-.729v-.156h.087l-.035-.052c-.035-.052-.069-.122-.119-.191v-.017a.017.017,0,0,1-.017-.017.1.1,0,0,1-.072.035.159.159,0,0,1-.052.087.632.632,0,0,1,.035.243.315.315,0,0,1,.107.087.132.132,0,0,1,.035.07l.014.017c.017.017.017.052.035.052a.017.017,0,0,0,.017.017v-.017a.017.017,0,0,0-.017-.017.432.432,0,0,1-.014-.145Zm2.206-1.285a.674.674,0,0,0,.052-.365.171.171,0,0,1-.052-.171c.035-.055.017-.1.017-.156a.148.148,0,0,0,0-.122c0-.055-.017-.087-.017-.122a2.111,2.111,0,0,1,.017-.469.035.035,0,0,0,0-.055c-.069-.084.017-.171.035-.261a.065.065,0,0,1,0-.1.942.942,0,0,1-.035-.535.213.213,0,0,1,.017-.226c-.052-.052-.052-.09-.017-.139.017-.035,0-.052,0-.087a.082.082,0,0,0-.017-.1.061.061,0,0,0,.017-.087.14.14,0,0,1-.017-.139c.052-.1,0-.226.052-.313V411.9c0-.02-.017-.038-.017-.055a.344.344,0,0,1-.035-.226c.017-.069,0-.156.035-.2,0-.038-.017-.072,0-.09a.23.23,0,0,0-.035-.208c-.017-.017,0-.052.017-.087l-.017-.017a2.561,2.561,0,0,1,.017-.365v-.122a.105.105,0,0,0,0-.1.748.748,0,0,1-.017-.281v-.851c-.084-.084-.107-.1-.124-.206-.035-.038-.067-.055-.084-.087a1.073,1.073,0,0,0-.5-.315,1.24,1.24,0,0,0-.486-.017,1.832,1.832,0,0,0-.4.139.594.594,0,0,0-.31.263.672.672,0,0,0-.153.382c0,.017-.023.035-.023.035a.352.352,0,0,1,.023.122v1.717c0,.035.017.069,0,.09-.04.032-.023.066-.023.1,0,.052-.017.087,0,.122a.953.953,0,0,1-.017.1c0,.031.017.087.017.122a.474.474,0,0,0,0,.156,2.277,2.277,0,0,1-.032.313c-.017.122,0,.261-.017.4-.035.136,0,.275-.035.417a.837.837,0,0,0,0,.208.452.452,0,0,1-.084.278v.017c0,.017.017.035.032.052-.014.014-.014.032-.032.052a.311.311,0,0,1,.049.243.867.867,0,0,0-.032.206.232.232,0,0,1-.017.107.232.232,0,0,0,0,.153.166.166,0,0,1,.017.087c.014.107.014.211.032.316.017.139,0,.278.017.431a.681.681,0,0,1,.035.261c.049.055,0,.139.067.194-.017.1.075.2-.017.31a.088.088,0,0,1,.075.038c-.017.084.049.153.084.223a1.555,1.555,0,0,0,.159.226,2.732,2.732,0,0,0,.536.3c.017-.038.069.014.087-.02a.169.169,0,0,1,.124-.035h.119a.251.251,0,0,0,.107-.017c.035-.017.084,0,.119,0a.055.055,0,0,0,.049-.017.517.517,0,0,0,.278-.1c.041-.049.124-.087.142-.156,0-.035.052-.052.084-.069v-.067c.017.014.035.014.035.032a.808.808,0,0,0,.1-.6Zm-1.821,1.647-.023-.032c-.017,0-.032,0-.032-.017l-.017.035h-.087a.061.061,0,0,1-.049-.017.873.873,0,0,1,.1.153c.017,0,.017.02.017.02a.42.42,0,0,0,.067-.122Zm.084,1.045a.072.072,0,0,1-.015-.052.017.017,0,0,0-.017.017.175.175,0,0,0,.017.052h.015Zm.26-10.727a.324.324,0,0,1,.052.087.087.087,0,0,1,.084-.052.207.207,0,0,1,.041-.174c.017-.035.049-.055.067-.087V407.5a.061.061,0,0,1-.017-.035l-.049.069a.209.209,0,0,0-.058.069c-.017.017-.017.035-.032.035l-.052.049v.02c-.014.022-.031.039-.031.057Zm.816,10.606v-.052h-.052a.077.077,0,0,0-.052.069l.052.052a.238.238,0,0,1,.057-.073Zm.518-11.318c0,.017.017.017.017.035l.017-.035Zm.058,1.508h.066a.061.061,0,0,0,.017-.049l-.052-.1.017.014v-.014h-.032c0,.052-.017.087-.017.136Zm.185-.761a.017.017,0,0,0-.017-.017.141.141,0,0,0-.067.032.276.276,0,0,1,.067.055Zm1.583,3.022c.017-.038.017-.09.069-.124.014,0,.014-.014,0-.087V410.6c0-.032-.017-.069-.017-.1a.064.064,0,0,0-.052-.017.19.19,0,0,1-.159.09.194.194,0,0,1-.191-.159v-.017a.449.449,0,0,1-.1-.084l-.124-.09a.262.262,0,0,1-.344-.052h-.035a.1.1,0,0,1-.069-.017v.07a.1.1,0,0,1,.052.09c.035.1-.052.261-.052.278a.635.635,0,0,0-.055.087.454.454,0,0,1,.107.084h.017a.207.207,0,0,1,.119.072c.035-.038.072-.038.107-.055.052-.017.067-.017.084-.035.017-.035.052-.049.11-.049h.22l.124.206Zm-.712,6.229Zm.035-.017v.052h0a.037.037,0,0,0,.005-.057Zm.208-8.435-.107.035c-.017,0-.017.032-.017.049v.038c0,.017,0,.052-.017.067a.135.135,0,0,1-.017.09.51.51,0,0,1,.107.1.261.261,0,0,1,.119.032h.017l.017.017c.017,0,.035.017.052.038l.226.017a.506.506,0,0,1-.017-.226.638.638,0,0,1,.208-.333v-.136l-.017-.017-.119.017-.09-.313a.842.842,0,0,1-.136-.191.053.053,0,0,1-.017-.035c-.014-.017-.014-.017-.038-.017-.017-.02-.035-.02-.052-.035s-.035-.017-.052-.035a.166.166,0,0,1-.049.156.421.421,0,0,1-.09.07l-.052.035c.017.069.035.122.052.191a.469.469,0,0,1,.038.174Zm.729,2.9a.133.133,0,0,1-.107-.084.073.073,0,0,1-.052.014h-.049a.017.017,0,0,0-.017.017c-.017.052-.035.069-.035.1-.017.017-.017.017,0,.035,0,.017.017.035.017.052l.208-.035a.623.623,0,0,0,.041-.106Zm.208-1.907-.174-.261.049-.072-.049.035c-.017,0-.035.02-.069.072-.017.032-.055.049-.072.069a.621.621,0,0,1,.055.188h.136a.183.183,0,0,0,.087-.015c.026-.011.026-.024.043-.024Z" transform="translate(-1.004 -30.361)" fill="#515151"/><path d="M163.206,416.8v1.511a1.934,1.934,0,0,1-.032.417.745.745,0,0,1-.153.206.508.508,0,0,1-.3.139.218.218,0,0,1-.1.038c-.032,0-.067-.017-.1-.017-.038-.02-.072.017-.107.017a.7.7,0,0,1-.327-.017c-.035-.02-.107,0-.159,0a.649.649,0,0,0-.119-.038s-.038.038-.055.017a.672.672,0,0,1-.33-.017,1.358,1.358,0,0,0-.243,0,.5.5,0,0,1-.4-.171c-.069-.072-.069-.177-.1-.243a.055.055,0,0,0-.049-.017c.017-.017.017-.035.035-.052a.38.38,0,0,0-.052-.087,1.288,1.288,0,0,0,.017-.365c0-.035-.017-.052-.017-.087a.387.387,0,0,0,0-.243.617.617,0,0,1-.017-.261c.035-.017.069-.055.1-.069l-.067-.069.017-.017c0-.052-.035-.1-.017-.122.035-.017-.017-.052.017-.087h.017c-.017-.156.032-.313.014-.469,0-.052-.067-.087,0-.122-.032-.035-.014-.087-.014-.122v-.278a.356.356,0,0,1,0-.136.42.42,0,0,1,.014-.125c0-.014-.014-.032-.014-.052-.017-.052.049-.084,0-.156a.19.19,0,0,1,0-.139,3.3,3.3,0,0,0,.014-.414c0-.038.035-.072.035-.122a.209.209,0,0,1-.049-.072c0-.032-.035-.087.014-.122a.069.069,0,0,1,0-.1.074.074,0,0,0,0-.084.239.239,0,0,1,0-.208c.017-.017,0-.035,0-.055s-.014-.017-.014-.035c.014-.136-.035-.275-.035-.431,0-.017.017-.038.017-.07a1.644,1.644,0,0,1-.069-.156c-.055,0-.09.017-.124,0a3.153,3.153,0,0,1-.57-.035c-.142-.02-.26,0-.385-.02,0-.017-.017-.032-.032-.067-.052.087-.159.017-.226.067-.035-.049-.069.02-.1.02-.032-.02-.09.052-.124.069a.639.639,0,0,0-.168.313.375.375,0,0,0-.041.206v.486c0,.055.023.1-.035.159v.066c.058.055.035.139.035.194v1.786c0,.055.023.1-.017.156.041.052.017.1.017.139,0,.07.023.139-.017.191.041.069.017.121.017.191v.99a.4.4,0,0,1-.243.382.909.909,0,0,1-.463.122c-.09,0-.177.035-.261.035h-.284a1.1,1.1,0,0,1-.226-.035h-.243c-.014-.017-.049-.038-.067-.055-.017.072-.069-.014-.1.017a.306.306,0,0,1-.142.02c-.035-.02-.084,0-.119-.038a.461.461,0,0,0-.142,0,.4.4,0,0,1-.119-.258.3.3,0,0,0-.058-.09,3.387,3.387,0,0,0-.067-.414.054.054,0,0,0,.035-.017c.032-.035-.052-.07-.017-.1s0-.069-.017-.1,0-.052-.017-.069.035-.038,0-.052a.173.173,0,0,0,.017-.052c0-.035,0-.087-.035-.1.069-.035-.015-.052,0-.087.017-.017.052-.035.069-.052-.035-.017-.052-.017-.069-.035.017,0,.017-.02.017-.02a.346.346,0,0,1,0-.223c.035-.052-.017-.122.035-.191.017,0-.017-.052-.035-.087a.984.984,0,0,1-.067-.382c.017-.084.035-.156.049-.261l-.032-.035c.017-.017.032-.032.032-.049.017-.02,0-.038,0-.055l-.084-.087a.135.135,0,0,0,.017-.139c0-.035-.035-.084,0-.122s.017-.084.017-.139a.629.629,0,0,1,.017-.171c-.017,0-.017-.038-.035-.072a.06.06,0,0,0,.017-.032c0-.017-.017-.035-.035-.055,0-.035.052-.035.017-.069a.148.148,0,0,0,.017-.052.682.682,0,0,0-.017-.449c0-.017-.017-.055-.017-.072.017-.122-.017-.226.035-.327a.244.244,0,0,0-.017-.191l.052-.052a.362.362,0,0,1,.032-.226c0-.017-.017-.055-.017-.072.017-.066-.032-.136,0-.2a.387.387,0,0,1-.049-.1c.017,0,.017-.017.035-.017-.017-.038-.035-.052-.052-.087l-.017-.017a2.1,2.1,0,0,0,0-.33c-.017-.194.052-.382.035-.573.035-.035,0-.087,0-.122a1.889,1.889,0,0,1,.017-.313c.032-.052,0-.1,0-.156a.641.641,0,0,1,0-.258.117.117,0,0,0,.017-.072.382.382,0,0,1-.035-.243.108.108,0,0,1,.017-.069c.032-.052-.017-.121.032-.156-.049-.052,0-.122-.032-.174a.111.111,0,0,1,0-.1.089.089,0,0,0-.017-.122c.017,0,.017-.015.035-.032a.342.342,0,0,1-.035-.072.037.037,0,0,1,.035-.035.355.355,0,0,1-.017-.3c.017-.07-.035-.139.032-.191a.7.7,0,0,0,0-.191.436.436,0,0,0-.032-.139.1.1,0,0,1-.017-.066.056.056,0,0,1,.049-.02c.017-.084-.015-.156.035-.24-.017-.02-.017-.038-.035-.055.017,0,.017-.015.035-.032-.017,0-.017,0-.035-.017l.035-.038a.547.547,0,0,1-.017-.292c-.017-.035-.067-.09-.032-.122.032-.052-.017-.107-.017-.139.017-.055,0-.1.032-.156-.049-.052,0-.087.017-.142-.017-.017-.032-.017-.049-.035.032-.049.067-.119,0-.171.017-.035.049-.07.067-.1l-.035-.035a.017.017,0,0,0,.017-.017c-.049-.122.017-.263-.032-.385a.267.267,0,0,0,.015-.153.265.265,0,0,1-.015-.156v-.1c-.017-.035,0-.069-.017-.1s0-.052-.017-.087c-.017-.017.035-.087.017-.122-.035-.052.017-.087.017-.139a.349.349,0,0,1,.015-.122l.052-.052a.981.981,0,0,1,.072-.313c.017.017.035.017.052.035V406.5a.816.816,0,0,1,.588,0c0-.035.017-.052.017-.087h.226c.052-.017.107,0,.159-.035.032-.017.067,0,.119,0a.609.609,0,0,0,.09.017c.035,0,.067-.017.1,0,.017,0,.017,0,.035.017a.23.23,0,0,1,.208-.035c.052.035.124.017.177.035.067.069.151.052.243.052a.064.064,0,0,0,.017.052.05.05,0,0,1,.032-.017.519.519,0,0,1,.136.035c.075.087.177.139.208.26a1.493,1.493,0,0,1,.035.4,3.217,3.217,0,0,1-.017.417c0,.014.017.052.017.069,0,.035-.035.067-.017.087.041.035-.032.052-.017.087s.035.052.035.087-.017.049-.017.087c.058.035-.017.084,0,.139,0,.035-.017.049-.017.067a2.161,2.161,0,0,1,.035.608v.382c0,.02-.017.055-.017.087a.08.08,0,0,1,.017.055v.674a.117.117,0,0,1-.017.072.149.149,0,0,0,0,.122c.017.032,0,.067,0,.122a.149.149,0,0,1,.017.049v.365a.064.064,0,0,1-.017.052c-.017.038,0,.055,0,.087a.861.861,0,0,1,.017.208.567.567,0,0,0,.284.451,1.567,1.567,0,0,0,.243.156c.049.017.1.035.168.052l.035.035a.064.064,0,0,1,.041-.017.454.454,0,0,0,.22.038.308.308,0,0,1,.191,0,1.13,1.13,0,0,0,.611-.159c.035-.017.052-.035.084-.052V411.5h.052c.017-.1.09-.188.075-.3a.062.062,0,0,1,.049-.014v-.038a.3.3,0,0,0-.017-.122c-.017-.035-.055-.084-.017-.122s-.014-.067,0-.1a.284.284,0,0,0,.017-.206c-.017-.09.017-.156-.017-.229-.014-.049.017-.07.017-.1s-.032-.067-.017-.1,0-.084.017-.139a.152.152,0,0,1-.072-.017.6.6,0,0,0,.017-.469.122.122,0,0,1,.023-.153c-.075-.052-.023-.122-.041-.174l-.052-.052c0-.035.017-.07.017-.107.017-.017-.035-.032,0-.067.017-.017.017-.1,0-.1-.035-.035.017-.055,0-.087a.135.135,0,0,1-.017-.09v-.1a.234.234,0,0,0-.035-.1.3.3,0,0,0-.014-.1.015.015,0,0,0,.014-.017l-.032-.035c.084-.069,0-.159,0-.243a1.146,1.146,0,0,0,.017-.243c0-.035-.017-.052-.017-.087,0-.055-.017-.122,0-.156,0-.035.017-.07,0-.1,0-.069-.035-.1.017-.174,0,0-.035-.035-.035-.052,0-.035.017-.069.017-.122a.439.439,0,0,1,.017-.33h.049a.248.248,0,0,1,.052-.191c.09-.014.09-.014.124-.087a.966.966,0,0,0,.119-.052.487.487,0,0,1,.208-.035c.107.052.159-.017.226-.07h.889a.411.411,0,0,1,.136.035.239.239,0,0,1,.107.017.083.083,0,0,0,.119-.017.068.068,0,0,0,.107,0c.049.035.119.07.168.1a.582.582,0,0,1,.211.3l.017.017c0,.1.014.208.014.313v1.751c0,.035.017.09-.014.122s.014.072.014.107c-.032.049,0,.1-.014.153s.014.055.014.09v.883c0,.017-.014.035-.014.055s.014.032.014.049a2.132,2.132,0,0,1,0,.333c0,.067-.032.122-.014.188,0,.072.014.122.014.191v3.036c0,.038.017.09-.014.122s-.017.055,0,.055c.032.049.014.122.014.171v2.1c0,.055.017.087-.014.139C163.223,416.729,163.206,416.764,163.206,416.8Zm-6.128-9.355a.26.26,0,0,1,.041-.1l.084-.1.052.052a.017.017,0,0,0,.017-.017v-.052l.032-.017a.269.269,0,0,1,.124-.052.2.2,0,0,1,.136.052c.058-.017.093-.052.093-.087a.191.191,0,0,1,.174-.122c.052-.017.084-.017.1-.052l-.049-.087-.142.139-.208-.174h-.052c-.035,0-.067.017-.1.017l-.075.313-.327-.174a.27.27,0,0,1-.119.07l-.124.087-.017.017a.125.125,0,0,1,0,.139.249.249,0,0,1-.067.087v.017h.035l.1.052v.017a.293.293,0,0,1,.292-.026Zm-.185,7.257a.243.243,0,0,1-.159-.139l-.032-.072.014-.032H156.7l.014-.09a.131.131,0,0,1,.035-.084v-.02c-.017.038-.035.055-.049.087a.25.25,0,0,1-.035.156.268.268,0,0,1,.049.069.29.29,0,0,0,.1.156c0,.017.02.038.038.055v.017a.235.235,0,0,1,.041-.1Zm-.142-.677.035-.02h.017c-.017-.017-.017-.032-.035-.049,0,.017-.017.017-.017.032Zm.521,1.89a.263.263,0,0,0,.017-.275.064.064,0,0,1-.017-.038c-.017-.017-.035-.017-.035-.035-.017.017-.017.017-.017.035l-.067.243-.052-.084a1.407,1.407,0,0,1-.124.188.037.037,0,0,1,.035.035l.035.038.032-.017.075.084a.13.13,0,0,1,.032.122v.055a.382.382,0,0,1-.107.243v.014l.041.035a1.559,1.559,0,0,1,.136-.365c.017-.017.017-.035.035-.049a.221.221,0,0,1-.019-.231Zm.987-3.262a.249.249,0,0,1-.119-.035h-.032a.237.237,0,0,1-.058.153.125.125,0,0,1-.119.055.054.054,0,0,1-.017.035.507.507,0,0,1-.084.1c-.023,0-.04.035-.055.067a.253.253,0,0,1-.052.072l-.084.122-.093-.1c-.032-.017-.084-.052-.084-.1V413a.2.2,0,0,1-.067.087l-.035.052-.058-.017c.04.032.04.087.058.122v.052c.035-.02.035-.02.052-.02a.149.149,0,0,1,.1.055.608.608,0,0,1,.156.26v.087a.208.208,0,0,1,.069.139v.122a.242.242,0,0,1,.035.122h.055l.017-.017c.035,0,.084.017.119.017l.035-.035c-.017-.02-.035-.02-.052-.052a.288.288,0,0,1,0-.35.208.208,0,0,1,.177-.136.147.147,0,0,1,0-.122l-.017-.017v-.09l-.142-.258.243-.243.084.136h.017c0,.02.023.02.023.02,0-.02.017-.035.035-.052l.017-.017a.329.329,0,0,1,.032-.139c0-.017.017-.035.017-.052v-.069a.261.261,0,0,1-.173.066Zm-.619-.451c.032-.052.067-.087.1-.139-.017-.017-.017-.035-.035-.052l-.017.052c0,.017,0,.035-.017.035a.242.242,0,0,1-.031.1Zm.067-.226a.152.152,0,0,1-.017-.087.049.049,0,0,0-.032.017Zm.628,3.439a.317.317,0,0,1-.177-.194l-.084.035-.055-.119a.229.229,0,0,1-.017-.087.162.162,0,0,1-.052-.122v-.017l-.017.017-.017-.017-.032.067-.093-.049a.29.29,0,0,1-.119.087c0,.017-.014.035-.014.049a.155.155,0,0,0,.014.052v.02c.035.067.052.119.087.188a.187.187,0,0,1,.124-.069h.032c.052,0,.136.02.177.159a.455.455,0,0,1,0,.153v.017l.119-.188.084.206c.017.017.017.038.041.055Zm-.611,1.786v-.052l-.035.017v.035l.017.035v.052Zm.035-3.019-.017-.1-.017-.017Zm.535,4.443h-.153v.035a.472.472,0,0,0,.153-.037Zm.041-4.029a.172.172,0,0,1-.075.035c-.014,0-.014.02-.014.02-.017.017-.035.017-.052.035l.017.017a.265.265,0,0,1,.1.069c0-.02.023-.02.023-.038Zm.136-2.342-.084-.052v.035c.032,0,.049.035.067.052,0-.02,0-.02.016-.037Zm.854.208c-.023-.017-.023-.055-.058-.087a.017.017,0,0,0-.017-.017c0,.017.017.017.017.049l.017.02a.054.054,0,0,0,.017.035Zm1.491-.417c-.014,0-.038,0-.038.017-.035,0-.052.017-.087.035,0,.017.017.035.035.069.017-.017.035-.017.052-.052a.1.1,0,0,1,.037-.071Zm.486,6.663a.7.7,0,0,1-.09-.017c-.035,0-.067.017-.1.017H161.1c.017.02.035.02.069.02h.049c.033,0,.051-.021.087-.021Zm-.09-10.38h.035v.02l.038.035-.038.035.017.1h.142v-.278a.26.26,0,0,1-.122.052h-.055a.06.06,0,0,0-.018.035Zm.194,3.7-.017-.035H161.3a.157.157,0,0,0-.017.087.058.058,0,0,0-.02.052v.017h.02c.017,0,.017,0,.035.017v-.017a.037.037,0,0,0,.035-.035Zm.344-3.418c.017-.02.017-.038.038-.055a.128.128,0,0,1,.017-.067v-.052l.017-.052a.067.067,0,0,1-.055.017l-.122.035-.032-.052a.656.656,0,0,1-.09-.122l-.087.278a.558.558,0,0,1,.159.049h.067c.038,0,.07,0,.088.018Zm-.1-1.6v.486a.307.307,0,0,1,.385.035c.017.035.052.052.1.087.017,0,.035.017.052.035l-.136-.139a.134.134,0,0,1-.055-.1l-.069.017-.017-.069a.767.767,0,0,0-.139-.069.234.234,0,0,1-.1-.122.255.255,0,0,1,.035-.191h-.035a.061.061,0,0,1-.025.03Zm.7,7.326a.232.232,0,0,1-.017-.107h-.09l.038.09.035.032-.072.09a.147.147,0,0,1-.1.049H162.1a.1.1,0,0,1-.069-.032l-.055-.052c-.017.017-.052.017-.052.035a.06.06,0,0,0-.035.017v.1l-.084.032a.238.238,0,0,1-.107.017.249.249,0,0,0,.107.177.241.241,0,0,1,.188-.243h.055l.1-.017.035.049a.7.7,0,0,1,.124-.1c.054-.068.054-.068.036-.137Zm-.5-1.7a.145.145,0,0,1-.072-.017l-.017.1h-.035a.063.063,0,0,0,.09.017c.017,0,.035-.017.052-.017Zm0,3.734h-.017l.017-.055c0,.017-.017.017-.017.035a.328.328,0,0,0-.035.087l.035-.035Zm.9-2.973-.067.038v.139l-.084.035c-.017,0-.052.014-.069.014-.038,0-.142-.014-.156-.171-.017-.017-.017-.035,0-.069l-.159-.07.191-.055v-.049a.067.067,0,0,0,.017-.055l.035-.084-.017-.087c-.017.017-.035.017-.035.035a.215.215,0,0,0-.067.052.417.417,0,0,1-.107.069l-.017.015-.052.038-.049-.017c-.093-.035-.142-.07-.159-.122l-.1.052v.017h.017a.14.14,0,0,1,.1.1v.07l.049.052a.192.192,0,0,1,.093.208l.292.067-.017.107v.052l-.067.1-.017.02a.222.222,0,0,1,.1.084.314.314,0,0,1,.035-.136l.017-.017.017-.017a.139.139,0,0,1,.072-.035c0-.02.017-.02.035-.038a.934.934,0,0,1,.168-.206Zm-.831-4.128Zm.1,4.565.041-.052c-.017,0-.017-.02-.017-.02-.023.02-.023.037-.038.055Zm.729-4.929v-.3l-.014-.02-.136-.119a.238.238,0,0,1-.069.052l.084.1-.191.035a.061.061,0,0,1-.049.017h-.087l-.038-.052c-.017,0-.052-.072-.017-.139a.092.092,0,0,1,.032-.052h-.032a.746.746,0,0,0-.087-.017.126.126,0,0,1,.017.069.426.426,0,0,1,.052.084.391.391,0,0,1-.069.281c-.014.035-.014.052-.049.067a.877.877,0,0,1,.119.107.191.191,0,0,1,.124.049.4.4,0,0,1,.119-.035c.035-.015.072-.015.072-.032a.159.159,0,0,1,.119-.055h.087a.069.069,0,0,0,0-.045Zm-.535-1.233c.017.017.035.017.049.032a.108.108,0,0,0,.075.055l.119-.038.035.159a.927.927,0,0,0,.191.035h.035l-.171-.072-.017-.067a.291.291,0,0,1,.069-.226l-.017-.017-.017.017a.153.153,0,0,1-.107.035c-.035,0-.052,0-.069-.017a.243.243,0,0,1-.124-.122l-.015.017Zm.191.883-.084.072h.035c.049,0,.084-.017.084-.038s.017-.035.017-.067H162.4Zm.069,6.77v-.014h-.017Zm.275.764a.015.015,0,0,0-.014-.017.142.142,0,0,1-.052-.1l-.1-.052.119-.1h.017c-.035,0-.069-.017-.1-.017a.086.086,0,0,0-.067-.032h-.017v.017a.3.3,0,0,0-.055.049.115.115,0,0,1,.055.1v.017l.1.017v.1a.975.975,0,0,1-.032.1h.014a.387.387,0,0,0,.087-.049s.019-.022.034-.035Zm-.243-.747c.023-.017.023-.032,0-.049v.049l-.015-.017v.017Zm.177,2.449v-.052l-.052-.1v-.017a.88.88,0,0,1-.049.122.254.254,0,0,1-.09.122.108.108,0,0,1,.055.035h.067a.037.037,0,0,1,.035-.035.017.017,0,0,1,.017-.017c-.012-.025.005-.043.005-.06Zm.017-6.666c.017-.017.035-.035.049-.035,0-.035-.014-.087-.014-.136a.111.111,0,0,1,0-.1.017.017,0,0,1-.017-.017l-.052-.055a.143.143,0,0,1-.119.072.687.687,0,0,0-.04.1.234.234,0,0,1,.04.122h.035l.067-.02Zm-.07,1.459c0,.035-.017.052-.017.087a1.041,1.041,0,0,1-.032.1.356.356,0,0,1-.075.159l.159-.038v-.153a.25.25,0,0,1,.035-.122.131.131,0,0,1-.081-.035Zm-.084-5.433c.017.017.035.017.052.035l.049.035.1-.035v-.017a.636.636,0,0,0-.014-.156v-.035c-.017,0-.035,0-.035.017-.035,0-.07.017-.1.017l-.017-.017v.069a.132.132,0,0,1-.046.084Zm.084,10.432-.017-.107v.107Zm.119-4.7-.084.035.035.087c0-.035.035-.07.049-.087Z" transform="translate(4.232 -30.388)" fill="#515151"/><path d="M166.182,411.411c-.017.032.049.066,0,.1.032.052-.017.1,0,.174a.165.165,0,0,1,.015.122c0,.035-.015.09-.015.122v.1c-.017.3-.017.59-.035.9a.617.617,0,0,1-.035.174.538.538,0,0,0,.017.33v.035c-.067.136-.017.3-.035.452,0,.032-.017.049-.017.087.035.052.017.1,0,.174,0,.014-.014.032-.014.049a.238.238,0,0,1,.014.087.29.29,0,0,1-.014.122.171.171,0,0,0,.032.1c.017.035,0,.072,0,.09v1.282a1.01,1.01,0,0,1-.032.226c0,.072.032.156-.017.211a2.259,2.259,0,0,1-.093.486,1.057,1.057,0,0,1-.084.223,3.011,3.011,0,0,1-.31.573,1.972,1.972,0,0,1-.124.156c-.035.069-.1.122-.136.191-.058.052-.124.069-.159.139a.324.324,0,0,1-.174.139,1.1,1.1,0,0,1-.153.139c-.058.035-.124.087-.177.122a4.258,4.258,0,0,1-.5.243c-.122.032-.226.1-.365.136a.943.943,0,0,1-.33.09c-.067,0-.139.017-.156,0-.017.017-.017.032-.035.049h-.119a.264.264,0,0,0-.107.038c-.052.017-.069-.055-.119-.017a.181.181,0,0,0-.052-.038.184.184,0,0,1-.017.072c-.226,0-.417.017-.611,0-.067,0-.119-.017-.174-.017-.069-.017-.119.017-.171-.038a.583.583,0,0,1-.243-.032.77.77,0,0,1-.275-.069,3.191,3.191,0,0,1-.486-.159.489.489,0,0,1-.3-.188c-.017,0-.035.017-.049.035a2.532,2.532,0,0,0-.243-.156c-.069-.055-.153-.122-.229-.177a1.476,1.476,0,0,1-.243-.188v-.087h-.049a.2.2,0,0,0-.1-.156.18.18,0,0,1-.107-.122,1.672,1.672,0,0,0-.243-.365.09.09,0,0,1-.035-.069l.017-.017c-.052-.069-.017-.156-.035-.243h-.06c-.032-.052-.084-.07-.084-.139a.41.41,0,0,1-.055-.174c0-.017-.035-.035-.035-.052a2.568,2.568,0,0,0-.017-.365.064.064,0,0,0-.052-.017c-.014-.052,0-.122-.049-.174,0-.119-.09-.226-.017-.347,0-.017-.017-.032-.041-.049a.089.089,0,0,0,.041-.072.049.049,0,0,1-.017-.032l.017-.017a.316.316,0,0,1-.058-.072.227.227,0,0,1,.017-.139c.023-.014,0-.052-.017-.119,0,.014.017,0,.017-.017,0-.055-.017-.1-.017-.156s-.049-.1-.032-.159a.455.455,0,0,0,0-.153v-.174c0-.055-.017-.121.017-.159a3.125,3.125,0,0,1-.017-.987.017.017,0,0,1-.017-.017.3.3,0,0,0,.017-.139l.049-.052a.591.591,0,0,0-.017-.174.423.423,0,0,1-.032-.243c0-.052.032-.107.032-.139.017-.017.04-.035.017-.035-.032-.122.041-.243,0-.365a.06.06,0,0,1-.017-.035.076.076,0,0,0,.058-.017c-.072-.087.017-.174,0-.261a.515.515,0,0,1,.035-.278c-.035-.017-.035-.052-.035-.087v-.868a.442.442,0,0,1,.052-.2c0-.038.014-.055,0-.072a1.98,1.98,0,0,1-.052-.31v-.315c.017-.1.017-.188.035-.292a.017.017,0,0,1,.017-.017.524.524,0,0,1-.035-.159,3.328,3.328,0,0,1,.1-.692h.035c.032-.087.072-.177.09-.243v-.017l.052-.1s-.017-.017,0-.017c.032-.052.084-.087.1-.142s.017-.122.032-.171a.5.5,0,0,1,.124-.208c.017-.017.017-.052.035-.069h.069a.118.118,0,0,1,.032-.07.991.991,0,0,1,.226-.3c.035-.017.058-.052.093-.07a.254.254,0,0,0,.067-.069c.017-.052.052-.069.119-.069,0-.017.023-.035.023-.052a.061.061,0,0,0,.035.017,1.057,1.057,0,0,1,.452-.33.017.017,0,0,1,.017.017c.049,0,.067-.052.1-.069a.4.4,0,0,1,.159-.069c.032-.017.084-.052.119,0a.142.142,0,0,1,.174-.087c.035-.069.119-.069.177-.087.151-.035.327-.052.486-.087.014,0,.014-.017.032-.017.069.035.069.035.205-.035.023,0,.038.035.055.035.119-.017.26.035.379-.035.035.052.075-.017.09,0,.035,0,.069.017.1.017a.151.151,0,0,1,.084.017c.038,0,.072-.017.107,0a.829.829,0,0,0,.084.017c0,.017.017.017.017.035l.035-.035h.142c.136.07.292.017.434.122a.345.345,0,0,1,.226.052c.069-.052.1.069.171.035a.064.064,0,0,1,.017.052h.072l.084.087a.236.236,0,0,1,.177.035,1.253,1.253,0,0,1,.394.226.432.432,0,0,1,.093.052c.049.122.168.174.261.243.049.035.119.052.136.139,0,.017.032.017.072.035v.052c.017.087.1.087.136.153.035,0,.017.038.035.055a2.754,2.754,0,0,1,.191.33.254.254,0,0,1,.035.156c.015,0,.015.017.032.017a1.163,1.163,0,0,0,.093.139c.014.069.032.122.049.191a.283.283,0,0,1,.017.174c.1.032.067.153.119.226-.017.067.072.156,0,.243a.56.56,0,0,1,.09.26,1.812,1.812,0,0,1,.052.536c0,.017.049.038.017.072-.017,0,.017.032.017.067v.038c0,.049-.052.1,0,.171a.586.586,0,0,1,.015.177.745.745,0,0,1,.017.278.074.074,0,0,0-.032.049c0,.017.015.035.015.055a.065.065,0,0,1-.049.017.477.477,0,0,0,.067.032v.226C166.2,411.269,166.231,411.339,166.182,411.411Zm-6.493,4.023a.129.129,0,0,1,.069.122v.072c0,.017.017.049.017.066a.106.106,0,0,1,.014.1H160l.017-.035-.035-.032a.348.348,0,0,1-.017-.365.286.286,0,0,1,.177-.142V415l-.142-.24.243-.26.067.139c.017,0,.017,0,.041.017.017-.017.035-.035.035-.055l.017-.017a.339.339,0,0,1,.032-.139.055.055,0,0,0,.017-.049.14.14,0,0,1,.017-.072.3.3,0,0,1-.177.072.266.266,0,0,1-.133-.038h-.017a.257.257,0,0,1-.058.159.159.159,0,0,1-.119.049.061.061,0,0,0-.017.035.337.337,0,0,1-.107.1c-.017,0-.035.038-.052.072a.207.207,0,0,1-.049.066l-.07.122-.107-.1a.208.208,0,0,1-.084-.1v-.017a.352.352,0,0,1-.052.084l-.049.055-.041-.017c.023.049.023.084.041.122a.055.055,0,0,0,.017.049h.032a.147.147,0,0,1,.1.035.507.507,0,0,1,.156.26v.1Zm-.107-6.527c0,.017,0,.017.023.017a.134.134,0,0,0,.084-.084.179.179,0,0,1,.177-.122.35.35,0,0,0,.084-.055l-.124-.243.243-.067a.34.34,0,0,0,.017-.139l.023-.055a.606.606,0,0,1,.1-.24l-.049-.052c0,.017-.017.017-.017.035-.017.017-.075.069-.075.087l-.151.3-.093.014a.668.668,0,0,1-.049.211.539.539,0,0,1-.1.153Zm.142,4.808c0-.032-.017-.049-.017-.084-.017,0-.017,0-.035.017Zm-.052.229c.035-.052.052-.09.087-.139,0-.017-.017-.035-.017-.052l-.017.052c-.017.017-.017.017-.017.035a.247.247,0,0,0-.036.1Zm.851,3.4v-.014l-.052.014-.035-.156h-.017l-.049-.017a.377.377,0,0,1-.194-.206l-.09.049-.052-.122a.172.172,0,0,1,0-.087.2.2,0,0,1-.049-.122v-.035l-.017.017-.017-.017-.032.069-.11-.035a.316.316,0,0,1-.1.069l.069.313A.246.246,0,0,1,159.9,417h.032c.069,0,.136.035.177.174a.339.339,0,0,1,.017.139v.02l.1-.177.1.191c.023.069.058.069.107.087Zm-.069-1.077h-.017a.326.326,0,0,1-.156.122c-.035.017-.052.035-.069.035l.194.122a.287.287,0,0,1,.014-.067.533.533,0,0,1,.035-.177c.017,0,.017-.017.035-.035Zm-.035-2.292a.1.1,0,0,1,.069.055V414l-.069-.052Zm.261-.553.052.052a.258.258,0,0,1,.049-.156v-.035l-.049-.017-.017-.052a.259.259,0,0,1-.052-.122c0-.052-.032-.09-.09-.139a.291.291,0,0,1-.1.226c.017.035.017.049.035.049.122.038.171.072.171.195Zm-.049,2.8a.276.276,0,0,1,.1.067l.017.017.067-.017.041-.049a.734.734,0,0,1,.017-.194c-.075.017-.124.072-.211.156,0,0-.017.017-.032.017Zm.084.952.226.052-.052-.1c-.014-.017-.032-.035-.032-.052a.064.064,0,0,0-.041.017l-.084.035c0,.011-.018.028-.018.045Zm.261.643h-.087l-.014-.017a.017.017,0,0,0-.017.017.753.753,0,0,1,.017.087h.014c.035,0,.052.017.069.017a.258.258,0,0,0,.017-.107Zm.344-.729v-.156h.09l-.035-.052c-.032-.052-.072-.122-.124-.191v-.017c-.014,0-.014-.017-.014-.017a.091.091,0,0,1-.07.035.169.169,0,0,1-.049.087.687.687,0,0,1,.032.243.241.241,0,0,1,.1.087.132.132,0,0,1,.035.07l.017.017c.017.017.017.052.041.052a.017.017,0,0,0,.017.017v-.017a.017.017,0,0,0-.017-.017.33.33,0,0,1-.024-.145Zm2.206-1.285a.626.626,0,0,0,.055-.365.168.168,0,0,1-.055-.171c.038-.055.015-.1.015-.156a.115.115,0,0,0,0-.122c0-.055-.015-.087-.015-.122a2.11,2.11,0,0,1,.015-.469.03.03,0,0,0,0-.055c-.067-.084.023-.171.041-.261q-.061-.048,0-.1a.944.944,0,0,1-.041-.535.214.214,0,0,1,.023-.226c-.055-.052-.055-.09-.023-.139s0-.052,0-.087a.072.072,0,0,0-.015-.1.054.054,0,0,0,.015-.087.145.145,0,0,1-.015-.139c.055-.1,0-.226.055-.313V411.9c0-.02-.017-.038-.017-.055a.329.329,0,0,1-.038-.226c.015-.069,0-.156.038-.2,0-.038-.023-.072,0-.09a.223.223,0,0,0-.038-.208c-.017-.017,0-.052.015-.087l-.015-.017a3.065,3.065,0,0,1,.015-.365v-.122a.083.083,0,0,0,0-.1.815.815,0,0,1-.015-.281v-.851a.283.283,0,0,1-.119-.206c-.035-.038-.069-.055-.087-.087a1.087,1.087,0,0,0-.5-.315,1.228,1.228,0,0,0-.483-.017,1.733,1.733,0,0,0-.4.139.589.589,0,0,0-.313.263.654.654,0,0,0-.156.382.061.061,0,0,1-.017.035.46.46,0,0,1,.017.122v1.717c0,.035.017.069,0,.09-.035.032-.017.066-.017.1,0,.052-.017.087,0,.122a.953.953,0,0,1-.017.1c0,.031.017.087.017.122a.47.47,0,0,0,0,.156,1.914,1.914,0,0,1-.035.313c-.017.122,0,.261-.017.4a3.962,3.962,0,0,1-.032.417.837.837,0,0,0,0,.208.413.413,0,0,1-.093.278v.017c0,.017.017.035.035.052-.017.014-.017.032-.035.052a.281.281,0,0,1,.052.243.872.872,0,0,0-.035.206.232.232,0,0,1-.017.107.232.232,0,0,0,0,.153.167.167,0,0,1,.017.087c.017.107.017.211.035.316.023.139,0,.278.023.431a.679.679,0,0,1,.032.261c.052.055,0,.139.069.194-.017.1.067.2-.017.31a.076.076,0,0,1,.067.038c-.014.084.052.153.093.223a2.182,2.182,0,0,0,.151.226,3.239,3.239,0,0,0,.538.3c.017-.038.072.014.09-.02a.162.162,0,0,1,.119-.035h.124a.2.2,0,0,0,.1-.017c.035-.017.087,0,.124,0a.064.064,0,0,0,.052-.017.555.555,0,0,0,.278-.1c.032-.049.119-.087.136-.156,0-.035.055-.052.09-.069v-.067c.017.014.032.014.032.032a.817.817,0,0,0,.1-.6Zm-1.821,1.647-.017-.032c-.017,0-.035,0-.035-.017l-.017.035h-.09a.064.064,0,0,1-.052-.017.779.779,0,0,1,.107.153c.017,0,.017.02.017.02a.435.435,0,0,0,.069-.122Zm.084,1.045a.064.064,0,0,1-.017-.052.017.017,0,0,0-.017.017.175.175,0,0,0,.017.052h.017Zm.261-10.727a.263.263,0,0,1,.055.087.091.091,0,0,1,.087-.052.233.233,0,0,1,.032-.174c.017-.035.052-.055.069-.087V407.5a.061.061,0,0,1-.017-.035l-.052.069a.2.2,0,0,0-.049.069c-.017.017-.017.035-.035.035l-.049.049v.02c-.025.022-.042.039-.042.057Zm.819,10.606v-.052h-.052a.076.076,0,0,0-.055.069l.055.052a.237.237,0,0,1,.051-.073Zm.521-11.318c0,.017.017.017.017.035l.015-.035Zm.049,1.508h.069a.061.061,0,0,0,.017-.049l-.052-.1.017.014v-.014h-.035c0,.052-.017.087-.017.136Zm.194-.761a.017.017,0,0,0-.017-.017.2.2,0,0,0-.075.032.249.249,0,0,1,.075.055Zm1.578,3.022c.017-.038.017-.09.067-.124.023,0,.023-.014,0-.087V410.6c0-.032-.017-.069-.017-.1a.058.058,0,0,0-.049-.017.184.184,0,0,1-.153.09.187.187,0,0,1-.191-.159v-.017a.8.8,0,0,1-.11-.084l-.119-.09a.269.269,0,0,1-.35-.052h-.032a.1.1,0,0,1-.069-.017v.07a.1.1,0,0,1,.052.09c.032.1-.052.261-.052.278-.017.032-.035.049-.052.087a.444.444,0,0,1,.1.084h.017a.211.211,0,0,1,.122.072c.035-.038.069-.038.1-.055s.072-.017.09-.035a.1.1,0,0,1,.1-.049h.226l.119.206Zm-.715,6.229Zm.035-.017v.052h0q.033-.031,0-.057Zm.208-8.435-.1.035c-.015,0-.015.032-.015.049v.038c0,.017,0,.052-.017.067a.135.135,0,0,1-.017.09.437.437,0,0,1,.1.1.341.341,0,0,1,.124.032h.017l.017.017c.017,0,.032.017.049.038l.226.017a.549.549,0,0,1-.015-.226.588.588,0,0,1,.208-.333v-.136l-.017-.017-.124.017-.084-.313a.78.78,0,0,1-.142-.191.053.053,0,0,1-.017-.035c-.017-.017-.017-.017-.035-.017-.017-.02-.032-.02-.049-.035s-.035-.017-.052-.035a.166.166,0,0,1-.058.156.367.367,0,0,1-.084.07l-.049.035c.017.069.032.122.049.191a.615.615,0,0,1,.035.174Zm.732,2.9a.13.13,0,0,1-.1-.084.066.066,0,0,1-.049.014h-.058a.017.017,0,0,0-.017.017c-.015.052-.032.069-.032.1-.017.017-.017.017,0,.035,0,.017.017.035.017.052l.208-.035a.735.735,0,0,1,.03-.106Zm.208-1.907-.177-.261.058-.072-.058.035c-.017,0-.032.02-.067.072-.017.032-.052.049-.069.069a.622.622,0,0,1,.052.188h.142a.177.177,0,0,0,.084-.015c.017-.011.017-.024.034-.024Z" transform="translate(9.213 -30.361)" fill="#515151"/><path d="M168.188,417.89c-.032.208-.014.417-.032.625,0,.035-.017.087-.017.136a.3.3,0,0,1-.035.122,1,1,0,0,1-.159.229.494.494,0,0,1-.226.07H166.68c-.035,0-.067.017-.067-.017,0-.052-.017-.038-.035-.02a.066.066,0,0,1-.09.038c-.1-.017-.226.035-.33-.017-.084.052-.174.017-.258.017s-.142.035-.194-.017c-.017-.02-.052.017-.067.017a1.808,1.808,0,0,1-.437-.017c-.032.069-.1-.052-.156.017-.035-.07-.1.017-.136-.017-.052.035-.124-.052-.159.017h-2.414c-.052,0-.1.017-.136-.017,0-.02-.035.017-.049.017a.862.862,0,0,1-.211,0c-.032,0-.067-.038-.09-.055s-.017-.066-.017-.084c-.017-.038-.032-.038-.049-.052.049-.052-.017-.09-.035-.139s.017-.072-.035-.1c-.017-.017.052-.052,0-.087a1.674,1.674,0,0,0-.032-.263,2.383,2.383,0,0,1-.017-.345c0-.052-.075-.087-.035-.139.052-.035,0-.087.035-.122.049-.069,0-.139-.017-.208,0-.038-.058-.07,0-.1.017,0,0-.035-.017-.049a.141.141,0,0,1-.041-.124V417a.218.218,0,0,1,.041-.153.13.13,0,0,0-.023-.142c-.017-.052-.035-.087.023-.122-.041-.017,0-.069-.023-.069a.2.2,0,0,1-.049-.153V416.1c.014-.055.049-.1.032-.139-.032-.072.017-.142-.017-.211-.032-.032-.014-.1.017-.153.017-.02.041-.055,0-.087a.172.172,0,0,0,.017-.055c0-.069.09-.139-.035-.174-.014,0-.049-.069-.032-.087a.286.286,0,0,0,0-.122v-.139c0-.035-.017-.084.017-.122a.174.174,0,0,0,0-.122c-.052-.032,0-.067,0-.1s.072-.122.014-.171c-.014,0,.017-.035.017-.052a.577.577,0,0,0-.017-.243c-.014-.017,0-.055-.014-.087,0-.072.032-.139-.017-.208v-.035a.069.069,0,0,0,0-.1c0-.017-.017-.035,0-.052a.069.069,0,0,0,0-.1c.032-.055,0-.122.032-.177s0-.067-.014-.1a.1.1,0,0,1,0-.122c.014-.02,0-.052,0-.087,0-.055.014-.122.014-.174.075-.02-.032-.069.017-.1s-.017-.1.041-.156v-.052c-.023-.035-.072-.087-.058-.087.035-.035.017-.069.017-.107a2.112,2.112,0,0,0-.032-.275,3.842,3.842,0,0,1,.014-.4.465.465,0,0,1,.017-.208c.041-.052-.017-.122.017-.188.023-.038-.017-.09-.017-.107.058-.032.017-.07,0-.1,0-.017,0-.049.017-.049.041-.038.058-.072,0-.09-.035-.032.041-.052.023-.087a.109.109,0,0,1-.041-.087v-.538c0-.017.017-.049.017-.067.023-.038.058-.1.041-.1-.058-.055.035-.09.017-.122a.113.113,0,0,1-.017-.072.683.683,0,0,1-.058-.382.039.039,0,0,1,.041-.032c.035,0,.035-.055.017-.055-.041-.049.017-.084.017-.139,0-.017.017-.017.017-.032-.11-.072.014-.156-.017-.229a.716.716,0,0,1-.035-.4c0-.035-.023-.09.017-.139.017-.035-.017-.087-.017-.122v-.3a.517.517,0,0,1,.017-.171.131.131,0,0,0,.035-.1c0-.052-.035-.09-.017-.139-.124-.052-.058-.122-.035-.191a1.914,1.914,0,0,1,.035-.313,1.656,1.656,0,0,1,.032-.243.485.485,0,0,1,.278-.313c.069.035.069-.087.142-.052.017-.07.049.017.1-.017a.072.072,0,0,1,.1-.017c.017,0,.075-.035.124-.052s.084.017.119-.035a.926.926,0,0,0,.315-.035c.052,0,.087.052.136,0,.035-.017.093.017.142.035h.3c.017,0,.049.017.067.017s.052-.017.069-.017h.038c.069-.017.069.069.136.052a.12.12,0,0,1,.124.07c.069.017.087.072.136.1a1.66,1.66,0,0,1,.159.209c0,.035.067.069,0,.1a.262.262,0,0,0,.049.035c-.014.052.052.1.017.174v.017a.352.352,0,0,1,.069.261,3.967,3.967,0,0,1,0,.7,1.655,1.655,0,0,1-.035.414,1,1,0,0,1-.017.229c-.049.174,0,.33-.035.483a4.041,4.041,0,0,0-.014.42c-.017.035-.017.084-.035.119s.035.052,0,.1c-.017.038.035.087.035.139v1.01c0,.032,0,.084-.017.1-.052.02.032.052-.017.087v.087a.033.033,0,0,0,0,.052.727.727,0,0,1,.035.281,2.5,2.5,0,0,1-.017.327,1.2,1.2,0,0,0-.017.347,2.132,2.132,0,0,1,.035.33c-.017.084.014.174-.035.278-.017.017.035.067.035.122v1.25a.26.26,0,0,1-.035.1v.1a.857.857,0,0,0,.017.292c.017.035,0,.072,0,.122a.907.907,0,0,0,.017.1v.472a.25.25,0,0,1-.035.153c.049.052.017.1.035.156v.33a1.33,1.33,0,0,1-.035.243.334.334,0,0,0,.174.347c.017,0,.153.035.171.035.124-.017.261.035.385-.035.032.052.1.017.151.035a.5.5,0,0,0,.318,0,.261.261,0,0,1,.049-.035c.069.052.159.017.226.035a.264.264,0,0,0,.229,0,.671.671,0,0,1,.452,0,1,1,0,0,0,.119.035c.035,0,.052-.052.084-.017.058-.052.124,0,.177-.035a.313.313,0,0,1,.174-.017.722.722,0,0,0,.194,0c.049-.017.1.087.136,0h.174a.821.821,0,0,1,.3.052.049.049,0,0,0,.067,0,.092.092,0,0,1,.09.055.053.053,0,0,0,.07-.02.1.1,0,0,0,.017.069,1.643,1.643,0,0,1,.142.087.585.585,0,0,1,.116.33C168.188,417.508,168.205,417.7,168.188,417.89Zm-4.9-9.251a.358.358,0,0,1,.075-.124c.015-.015.032-.015.015-.084V408.4c0-.035-.015-.069-.015-.107h-.058a.183.183,0,0,1-.171.09.2.2,0,0,1-.191-.174.017.017,0,0,0-.017-.017c-.017-.02-.067-.052-.107-.087l-.119-.1a.279.279,0,0,1-.368-.052h-.1c0,.017.017.052.017.069a.33.33,0,0,1,.049.087.436.436,0,0,1-.067.3c-.017.014-.035.052-.052.07l.1.1h.017a.151.151,0,0,1,.124.069.717.717,0,0,1,.119-.052c.052-.017.075-.017.093-.038a.113.113,0,0,1,.1-.049h.243l.124.208Zm-.729,6.475Zm.035-.017v.052h0q.034-.026,0-.049Zm.973-5.746c-.035-.017-.087-.035-.1-.09h-.1c-.017,0-.017,0-.017.038a.911.911,0,0,0-.058.1v.02a.064.064,0,0,1,.017.052l.226-.017c.014-.033.014-.071.031-.1Zm.243-2a.246.246,0,0,1-.035-.1l-.226-.156c0,.017,0,.017-.017.017a.146.146,0,0,1-.084.087.4.4,0,0,1,.067.208.5.5,0,0,1,.159-.017c.017.017.035,0,.067-.017.016,0,.054-.019.068-.019Zm2.379,10.762a.017.017,0,0,0-.017-.017v-.035a.086.086,0,0,1-.017-.052c-.032-.035-.067-.052-.107-.09L166,417.87l-.052-.035v-.017c-.049.069-.049.1-.017.139,0,.017.017.035.017.052a.292.292,0,0,1,.208.087c.016,0,.016.02.034.02Zm.278-.68-.017-.014-.035-.035v.035c.017.014.017.035.035.035a.064.064,0,0,0,.052.017Zm.017.316Zm.417-.208a.017.017,0,0,1-.017-.017.109.109,0,0,1-.049-.1l-.124-.052.142-.1h.014a1.122,1.122,0,0,1-.107-.035l-.1.122c0,.017,0,.017.017.035a.28.28,0,0,1-.084.171l-.058.055h-.017c.017.017.017.035.017.069v.052a.07.07,0,0,0,.058-.017.779.779,0,0,1,.168-.087.148.148,0,0,1,.075-.035.356.356,0,0,0,.065-.059Z" transform="translate(14.446 -30.35)" fill="#515151"/><path d="M174.765,407.353h-.918a7.151,7.151,0,0,0-2.44-12.079,5.157,5.157,0,0,0-4.828-3.265,5.057,5.057,0,0,0-1.85.347,7.512,7.512,0,0,0-9.121,3.071,6.544,6.544,0,0,0-3.572,11.68h0l.918,16.013a3.012,3.012,0,0,0,3,2.845H169.81a3.015,3.015,0,0,0,3-2.842l.09-1.638h1.867A4.482,4.482,0,0,0,179.251,417v-5.152a4.5,4.5,0,0,0-4.487-4.5m-15.191,15.24a1.242,1.242,0,1,1-2.484,0V411.811a1.242,1.242,0,1,1,2.484,0Zm4.4,0a1.238,1.238,0,0,1-2.475,0V411.811a1.238,1.238,0,0,1,2.475,0Zm4.417,0a1.242,1.242,0,1,1-2.484,0V411.811a1.242,1.242,0,0,1,2.484,0Zm.689-15.642a4.845,4.845,0,0,1-2.55-.718A3.25,3.25,0,0,1,163.65,408a3.187,3.187,0,0,1-1.56-.417,3.285,3.285,0,0,1-5.96-1.308h-.049a4.316,4.316,0,1,1,.909-8.533,5.274,5.274,0,0,1,7.789-2.877,2.95,2.95,0,0,1,4.762,2.281,4.914,4.914,0,0,1-.463,9.807m7.2,10.053a1.511,1.511,0,0,1-1.514,1.511h-1.7l.469-8.189h1.227a1.523,1.523,0,0,1,1.514,1.526Z" transform="translate(-8.302 -57.845)" fill="#515151"/></g><rect width="67" height="67" transform="translate(124 448)" fill="none"/></g></svg>