<svg xmlns="http://www.w3.org/2000/svg" width="67" height="67" viewBox="0 0 67 67"><g transform="translate(-124 -444)"><rect width="67" height="67" transform="translate(124 444)" fill="none"/><g transform="translate(-130.258 112.653)"><path d="M117.982,409.636c-.017-.017-.035-.049-.052-.066.035-.055-.09-.122-.017-.194a.425.425,0,0,0-.038-.122l.02-.017a.083.083,0,0,0-.055-.014V409.1c-.067-.09-.136-.174-.208-.278v-.038a.017.017,0,0,0-.017-.017.474.474,0,0,1-.2-.136c-.075-.052-.159-.07-.229-.124-.014,0-.014,0-.032-.015h-.211a.2.2,0,0,0-.107.032,1.007,1.007,0,0,0-.31.4.812.812,0,0,0-.084.261c-.017.084-.093.171-.075.261-.049.153-.049.292-.084.449,0,.055-.017.1-.017.176-.017.049-.017.1-.035.171,0,.017-.017.017-.017.055s.052.084,0,.153c-.014,0-.014.035,0,.072.017.171-.055.362-.032.536a.152.152,0,0,1-.041.09c.017.014.017.032.041.032l-.041.035a.653.653,0,0,1,0,.469v.035a1.543,1.543,0,0,0,.017.4c.041.191,0,.4.023.605a.621.621,0,0,1-.041.194.981.981,0,0,1,0,.226.659.659,0,0,0-.017.261c0,.035-.017.052-.035.087.069.07.017.122-.014.174,0,.017.014.049.014.07a1.878,1.878,0,0,1,0,.313,3.6,3.6,0,0,0-.032.4.251.251,0,0,1-.017.122c-.017.038.049.055.017.1s0,.09,0,.122a.373.373,0,0,1,0,.139.289.289,0,0,0,.017.122,1.4,1.4,0,0,1,.014.365.832.832,0,0,0,.017.09c.035.136.075.258.107.4a1.127,1.127,0,0,0,.229.521,1.839,1.839,0,0,1,.151.191l.017-.017a.342.342,0,0,0,.159.069c.049.017.049.052.067.087a.979.979,0,0,0,.226,0,.947.947,0,0,0,.313-.052c.017,0,.017-.017.041-.017s.014.017.049.035c0-.035.017-.052.017-.069h.052c.032-.035.067-.052.1-.087a1.155,1.155,0,0,0,.09-.087c0-.136.119-.258.119-.417.017,0,.035-.017.055-.035a.038.038,0,0,0-.038-.032,1.078,1.078,0,0,0,.055-.246c.017-.07,0-.153.017-.24.017,0,.035-.017.052-.017v-.122l.049-.055c-.067-.084.017-.156.035-.243a.064.064,0,0,0,.052-.017v-.067c.072,0,.156.017.208-.055.052,0,.09-.017.124,0,.049.038.067-.017.1,0a.172.172,0,0,0,.124-.035c.035-.014.1.017.136-.014,0-.017.017,0,.017,0a1.311,1.311,0,0,1,.452,0c.124.014.243,0,.385.014.017,0,.035-.014.049-.014.052.087.1.087.211.049a.944.944,0,0,0,.136.055.08.08,0,0,0,.055-.017.214.214,0,0,1,.188,0,.292.292,0,0,1,.226.122v.067c.032.072.09.139.067.226,0,.069.041.156-.017.229-.032.066.041.153-.032.2a2.084,2.084,0,0,1-.1.452c-.017.055-.084.072-.067.139a.539.539,0,0,1-.058.156c-.015.035-.015.087-.032.139a1.188,1.188,0,0,0-.052.139c-.1.226-.208.434-.327.66-.075.156-.159.313-.243.452a1.9,1.9,0,0,1-.318.327,1.189,1.189,0,0,1-.258.177,2.227,2.227,0,0,1-.3.156h-.035c-.017.032-.032.087-.1.069h-.017c-.072.07-.191.07-.281.122a1.241,1.241,0,0,1-.261.084,1.128,1.128,0,0,1-.344.072c-.035,0-.069.035-.1.035a.246.246,0,0,1-.11-.035h-.014c-.069.017-.119.017-.194.035a.686.686,0,0,1-.31.052h-.211c-.067,0-.119-.02-.174-.02a.339.339,0,0,1-.313-.067c0,.017-.014.017-.032.035a3.83,3.83,0,0,1-.573-.156V418.8c-.139.017-.24-.087-.382-.1a.367.367,0,0,1-.087-.069l-.014.014c-.017-.014-.017-.032-.035-.049-.017,0-.058-.017-.075-.017-.067,0-.1-.052-.133-.122a.239.239,0,0,1-.229-.087c-.049-.052-.124-.09-.174-.139-.035-.017-.069-.052-.1-.07a.173.173,0,0,1,.032-.052,1.385,1.385,0,0,1-.469-.538l.017-.02-.049-.1c0-.02-.017-.052-.017-.069a.847.847,0,0,0-.075-.052v-.035c0-.139-.119-.243-.151-.382v-.052a.258.258,0,0,0-.035-.156c0-.017.017-.052.017-.069a.312.312,0,0,0-.069-.07c.017-.069-.02-.122,0-.174a.312.312,0,0,0-.038-.188c-.017-.072.038-.142-.017-.208.055-.055-.017-.107.017-.156-.052-.055-.017-.122-.035-.194,0-.014-.017-.032-.052-.049a.059.059,0,0,0,.035-.02,1.161,1.161,0,0,0-.017-.243c-.035-.052-.017-.139-.017-.205.017-.055-.017-.122.035-.177.017-.035-.017-.084.017-.122a.061.061,0,0,0-.017-.035v-.744c0-.052.035-.09.035-.156a.135.135,0,0,1,.017-.139.334.334,0,0,0-.017-.176c0,.017,0,0,.017-.014a.487.487,0,0,1,0-.35c.055-.1.017-.206.038-.31q-.083-.052,0-.1c.035-.035-.055-.072,0-.122.017-.017-.02-.087-.02-.139a.05.05,0,0,1,.02-.035c-.038-.035-.072-.07-.09-.07,0-.087-.017-.139.035-.191,0-.017.017-.017.017-.035-.052-.035.017-.069,0-.087-.035-.017,0-.052-.017-.069a.305.305,0,0,1,.017-.1.252.252,0,0,0-.035-.052c-.017-.014-.035-.035-.052-.035,0-.1.087-.156,0-.223a.04.04,0,0,0,.035-.038c0-.017-.017-.069-.017-.084a.117.117,0,0,0,0-.107c-.017,0-.017-.035-.017-.052.035-.017.035-.067.035-.1s.017-.087,0-.122c-.035-.035,0-.052-.017-.087-.049-.035.035-.07,0-.1s-.017-.1-.017-.153a.058.058,0,0,0,.052-.02c.035-.1-.035-.191-.052-.3a1.555,1.555,0,0,1-.017-.292,1.923,1.923,0,0,1,.017-.316c-.017-.017-.017-.035-.032-.049l.049-.055a2.336,2.336,0,0,0,.035-.327c.017-.1,0-.208.017-.33a.489.489,0,0,1,.035-.156c.02,0,.02.017.055.035-.017-.035-.017-.052-.035-.09a.835.835,0,0,0,.069-.136.154.154,0,0,1,0-.09.14.14,0,0,1,.032-.066c.017-.035.017-.072-.014-.09a.5.5,0,0,0,.067-.206c.017-.069.052-.1.067-.159l.058-.121c.017-.015.017-.049.035-.049.032-.055.067-.07.084-.122a.624.624,0,0,0,.067-.055c-.014-.049.058-.084.075-.139a.645.645,0,0,1,.084-.136.753.753,0,0,1,.1-.122c.041-.035.107-.035.142-.07.017-.069.084-.052.1-.1.023,0,.023.017.041.017a1.575,1.575,0,0,1,.067-.174l.035.035a.383.383,0,0,0,.177-.1.017.017,0,0,1,.017.017c.049-.087.049-.087.168-.1a.351.351,0,0,1,.075-.035c0-.069.067-.069.1-.1.032-.069.107-.052.142-.087.032-.052.1-.035.133-.07a1.187,1.187,0,0,1,.177-.052.5.5,0,0,1,.174-.035c0,.017.017,0,.017-.017a.054.054,0,0,0,.035.017.562.562,0,0,0,.159-.035v-.035c.084-.052.185-.017.261-.052.014-.017.032.017.049.017a.347.347,0,0,0,.191-.017c.052-.017.122.017.188-.035.041-.035.09.035.142,0,.032.035.067-.017.084.017.035-.052.058,0,.09,0s.069-.017.1-.017a.465.465,0,0,1,.3.052c.052-.052.107,0,.142-.017a2.011,2.011,0,0,0,.344.07,4.3,4.3,0,0,1,.452.139,2.806,2.806,0,0,1,.313.174c.032.035.072.069.124.122l.032-.035a.917.917,0,0,1,.261.139,2.7,2.7,0,0,0,.327.313c.017.035.017.087.035.087.093.07.159.174.243.24.041.038.041.09.075.125a.342.342,0,0,1,.1.122,1.384,1.384,0,0,0,.09.136.663.663,0,0,0,.1.122c.017.055,0,.107.052.122.035.038.035.09.067.122a3.012,3.012,0,0,1,.284.68c.017.049.017.049-.023.122a.083.083,0,0,0,.058.017,2.238,2.238,0,0,1,.032.573,4.98,4.98,0,0,1-.208.518.784.784,0,0,1-.327.156,3.037,3.037,0,0,1-.544.055h-.084c-.017,0-.017-.02-.052-.02-.067,0-.139.038-.208.02h-.226a1.343,1.343,0,0,1-.261-.038,1.131,1.131,0,0,1-.243,0,1.572,1.572,0,0,0-.278-.017.015.015,0,0,0-.014-.017c-.159-.049-.211-.191-.261-.33a.86.86,0,0,1-.035-.226c0-.07-.035-.139-.017-.206Zm-3.337,3.126a.3.3,0,0,1-.084-.174,1.241,1.241,0,0,0-.142-.035c-.017-.017-.017-.017-.032-.017l-.017.017v.052a.113.113,0,0,1,.107.052.373.373,0,0,1,.067.1l.087.017A.015.015,0,0,1,114.645,412.762Zm-.2.886v-.017c0,.017-.023.035-.023.052l-.017.014.041.139a.46.46,0,0,1-.023-.084c-.023-.052,0-.07.019-.1Zm.521.712c-.017.017-.017.035-.035.035a.2.2,0,0,1-.142.087.017.017,0,0,1-.017.017c-.017.032,0,.067.035.139l.052-.055a.953.953,0,0,1,.049-.139.076.076,0,0,0,.041-.067c.014,0,.014,0,.014-.017Zm.278-.591a.115.115,0,0,1-.075-.035.126.126,0,0,1-.084.017l-.035.017v-.017a.453.453,0,0,1-.1.174.068.068,0,0,0-.017.052v.035a.185.185,0,0,1,.017.139.125.125,0,0,1,.035.067.073.073,0,0,1,.017.055.279.279,0,0,1,.032-.09l.017-.084a.07.07,0,0,0,.017-.052.512.512,0,0,1,.1-.211s.023-.015.023-.032a.13.13,0,0,0,.05-.035Zm.57-2.863-.087.017-.049-.055a.607.607,0,0,1-.124-.191c-.017,0-.017.017-.035.035H115.5a.173.173,0,0,1-.139.072l-.017.017c-.017,0-.035-.017-.052-.017v.049l.017-.017.035.191h.049a.447.447,0,0,1,.26.087.469.469,0,0,1,.142-.017c0-.049.016-.121.016-.171Zm-.136,3.47h-.041a.146.146,0,0,1-.1.067c-.035,0-.084.017-.124.017h-.049c0,.02,0,.055-.017.069v.072a.058.058,0,0,0,.049.017c.017-.017.017-.038.041-.055l.052-.084h.084c.035,0,.049,0,.084-.055,0,0,0-.014.023-.014Zm-.284-6.545c.017.035.041.035.058.052l.017-.017c.017-.017.017-.035.032-.072l.087-.122c-.035,0-.052.02-.069.072a.215.215,0,0,1-.107.087Zm.124,1.355c-.017.017-.017.017-.032.017v.139c0,.015,0,.015.014.015h.035c0-.015,0,0,.017,0v-.067Zm.069-.573.049.049.017-.066v-.035a.224.224,0,0,0-.068.053Zm.92,9.112c0,.017,0,.017.017.035v-.017Zm.035.052h.017c.014-.035.014-.035,0-.052v.052l-.017-.017Zm.779-9.6v-.191a.187.187,0,0,0-.035-.139l-.014-.055.014-.049v-.1l-.133.052-.023-.156V407.5c-.017,0-.035-.017-.052-.017s-.017,0-.035-.017a.382.382,0,0,1-.292-.191c-.017,0-.017.017-.017.035a.148.148,0,0,1-.052.1l-.014.017v.035s0,.017.014.017a.3.3,0,0,1,.136.382c-.014.035-.014.049,0,.049.035.072.052.122.035.159,0,.067-.067.1-.084.122v.035a.463.463,0,0,1,.208-.052h.344Zm.159.07v-.017h-.052Zm1.352-.3c.032,0,.055-.017.09-.017a.391.391,0,0,1,.136.035l.124.049v-.084l-.107-.07.072-.1-.041-.017v-.035h-.084v-.038l-.035-.032-.032.209-.124-.156Zm0,1.146a.548.548,0,0,1,.174-.035.292.292,0,0,1,.208.084.15.15,0,0,0,.1.072c.032.032.072.049.124.1.014.017.049.049.067.049l.124-.032.035.153a1.119,1.119,0,0,0,.226.038v-.02l-.177-.067-.014-.072a.261.261,0,0,1,.067-.226h-.035a.13.13,0,0,1-.1.038.152.152,0,0,1-.09-.017.311.311,0,0,1-.136-.385c.017,0,0-.017,0-.032l-.017-.017a.628.628,0,0,0-.055.087l-.017.035v.032l-.069.159-.156-.087a.413.413,0,0,1-.136-.072.133.133,0,0,1-.093-.122.2.2,0,0,1,.023-.171l.017-.017a.353.353,0,0,0,.069-.3v-.032l-.142.087Zm.055,7.063a.273.273,0,0,0,.1.177H119c-.017-.09.017-.194.177-.229a.066.066,0,0,1,.049-.014l.1-.017.038.067a.475.475,0,0,1,.119-.122c.052-.049.052-.049.035-.139a.276.276,0,0,1,.017-.258l.032-.035v-.1h-.119l.017.049-.032.055c0,.017-.017.035-.017.049a.037.037,0,0,0-.035.035.062.062,0,0,1,.017.038c0,.017.017.032.017.049l.032.122-.156.035h-.017c-.017,0-.035.017-.069.017-.032.02-.084.038-.107.055a.338.338,0,0,0-.084.067.742.742,0,0,1-.129.106Zm.3,1.876a.208.208,0,0,0-.075-.052l-.084-.087v-.035l-.017.017c-.049.087-.032.1,0,.139,0,.017.017.035.017.052a.236.236,0,0,1,.107.017Zm.153-9.842c.014.017.014.017.014.035l.075.069v.087c.017.014.017.035.032.035a.81.81,0,0,1,.313-.035h.017v-.017l-.035-.035v-.017l-.017-.017-.017-.02v-.014a.368.368,0,0,1-.107-.107.222.222,0,0,1-.281.046Zm.191,9.338c-.017-.017-.035-.017-.035-.035l-.017-.035v.035c0,.035.017.035.017.049h.017c.012.007.012.007.012-.007Zm.57-7.48c0,.017.023.017.041.032s.035.017.052.035a.141.141,0,0,0,.032-.066,1.227,1.227,0,0,0,.069-.139c-.017,0-.017-.02-.035-.02a.285.285,0,0,1-.1.1c-.017.017-.017.038-.035.038Z" transform="translate(154.717 -27.046)" fill="#515151"/><path d="M123.605,411.411c-.014.032.052.066,0,.1.035.052-.014.1,0,.174a.154.154,0,0,1,.017.122c0,.035-.017.09-.017.122v.1c-.014.3-.014.59-.032.9a.628.628,0,0,1-.041.174.538.538,0,0,0,.017.33v.035c-.069.136-.017.3-.035.452,0,.032-.017.049-.017.087.035.052.017.1,0,.174,0,.014-.017.032-.017.049a.2.2,0,0,1,.017.087.245.245,0,0,1-.017.122.171.171,0,0,0,.035.1c.017.035,0,.072,0,.09v1.282a.858.858,0,0,1-.035.226c0,.072.035.156-.017.211a2.249,2.249,0,0,1-.084.486.948.948,0,0,1-.09.223,2.859,2.859,0,0,1-.31.573.952.952,0,0,1-.122.156c-.038.069-.107.122-.139.191-.052.052-.119.069-.159.139a.339.339,0,0,1-.171.139,1.122,1.122,0,0,1-.156.139c-.052.035-.119.087-.177.122a3.858,3.858,0,0,1-.5.243c-.119.032-.226.1-.362.136a.981.981,0,0,1-.327.09c-.072,0-.142.017-.159,0-.017.017-.017.032-.032.049h-.125a.228.228,0,0,0-.1.038c-.052.017-.069-.055-.124-.017a.179.179,0,0,0-.052-.038.184.184,0,0,1-.017.072c-.226,0-.417.017-.6,0-.072,0-.124-.017-.174-.017-.069-.017-.124.017-.177-.038a.6.6,0,0,1-.243-.032.835.835,0,0,1-.278-.069,3.668,3.668,0,0,1-.486-.159.469.469,0,0,1-.3-.174c-.017,0-.035.017-.052.035-.072-.052-.156-.1-.243-.156a2.833,2.833,0,0,1-.226-.177,1.111,1.111,0,0,1-.243-.188v-.087h-.049a.21.21,0,0,0-.107-.156.184.184,0,0,1-.1-.122,1.909,1.909,0,0,0-.243-.365.1.1,0,0,1-.032-.069l.017-.017c-.052-.069-.017-.156-.035-.243h-.058c-.035-.052-.084-.07-.084-.139a.508.508,0,0,1-.052-.174c0-.017-.032-.035-.032-.052a2.562,2.562,0,0,0-.017-.365.076.076,0,0,0-.058-.017c-.017-.052,0-.122-.049-.174,0-.119-.087-.226-.017-.347,0-.017-.017-.032-.035-.049a.1.1,0,0,0,.035-.072.049.049,0,0,1-.017-.032l.017-.017a.312.312,0,0,1-.052-.072.207.207,0,0,1,.017-.139c.017-.014,0-.052-.017-.119,0,.014.017,0,.017-.017,0-.055-.017-.1-.017-.156s-.049-.1-.035-.159a.454.454,0,0,0,0-.153v-.174c0-.055-.014-.121.017-.159a3.308,3.308,0,0,1-.017-.987.015.015,0,0,1-.014-.017.354.354,0,0,0,.014-.139l.052-.052a.591.591,0,0,0-.017-.174.425.425,0,0,1-.035-.243c0-.052.035-.107.035-.139.017-.017.035-.035.017-.035-.035-.122.035-.243,0-.365a.06.06,0,0,1-.017-.035.064.064,0,0,0,.052-.017c-.069-.087.017-.174,0-.261a.542.542,0,0,1,.032-.278c-.032-.017-.032-.052-.032-.087v-.868a.476.476,0,0,1,.049-.2c0-.038.017-.055,0-.072a2.372,2.372,0,0,1-.049-.31v-.315c.017-.1.017-.188.032-.292a.017.017,0,0,1,.017-.017.519.519,0,0,1-.032-.159,2.711,2.711,0,0,1,.107-.692h.035c.032-.087.067-.177.084-.243v-.017l.049-.1s-.017-.017,0-.017c.035-.052.093-.087.11-.142s.014-.122.032-.171a.435.435,0,0,1,.119-.208c.017-.017.017-.052.041-.069h.067a.123.123,0,0,1,.035-.07.831.831,0,0,1,.226-.3c.035-.017.052-.052.087-.07.014-.017.049-.035.067-.069.023-.052.055-.069.124-.069,0-.017.017-.035.017-.052a.06.06,0,0,0,.032.017,1.122,1.122,0,0,1,.454-.33.017.017,0,0,1,.017.017c.049,0,.067-.052.107-.069a.4.4,0,0,1,.15-.069c.035-.017.087-.052.124,0a.143.143,0,0,1,.171-.087c.035-.069.124-.069.174-.087.159-.035.33-.052.489-.087.015,0,.015-.017.032-.017.069.035.069.035.211-.035.015,0,.032.035.049.035.124-.017.261.035.385-.035.035.052.067-.017.084,0,.035,0,.069.017.107.017a.156.156,0,0,1,.087.017c.032,0,.067-.017.1,0a.82.82,0,0,0,.09.017c0,.017.017.017.017.035l.035-.035h.133c.142.07.3.017.437.122a.329.329,0,0,1,.226.052c.067-.052.107.069.177.035a.072.072,0,0,1,.015.052h.069l.084.087a.228.228,0,0,1,.177.035,1.349,1.349,0,0,1,.4.226.376.376,0,0,1,.087.052c.049.122.174.174.258.243.052.035.124.052.142.139,0,.017.035.017.069.035v.052c.017.087.1.087.139.153.035,0,.017.038.035.055.087.1.119.226.194.33a.273.273,0,0,1,.032.156c.017,0,.017.017.035.017.035.049.052.1.084.139.017.069.035.122.052.191a.247.247,0,0,1,.017.174c.107.032.072.153.124.226-.017.067.067.156,0,.243a.673.673,0,0,1,.084.26,1.811,1.811,0,0,1,.058.536c0,.017.049.038.017.072-.017,0,.014.032.014.067v.038c0,.049-.055.1,0,.171a.493.493,0,0,1,.017.177.744.744,0,0,1,.017.278c-.017.015-.035.032-.035.049s.017.035.017.055a.073.073,0,0,1-.049.017.354.354,0,0,0,.067.032v.226C123.623,411.269,123.658,411.339,123.605,411.411Zm-6.5,4.023a.126.126,0,0,1,.075.122v.072c0,.017.014.049.014.066a.1.1,0,0,1,.017.1h.211l.014-.035-.032-.032a.339.339,0,0,1-.023-.365.325.325,0,0,1,.174-.142V415l-.133-.243.243-.26.067.139c.017,0,.017,0,.035.017a.084.084,0,0,0,.032-.055l.017-.017a.339.339,0,0,1,.035-.139.055.055,0,0,0,.017-.049.112.112,0,0,1,.023-.072.34.34,0,0,1-.177.072.31.31,0,0,1-.142-.038h-.017a.285.285,0,0,1-.049.159.168.168,0,0,1-.124.049.06.06,0,0,0-.017.035.43.43,0,0,1-.1.1c-.017,0-.035.038-.052.072a.262.262,0,0,1-.049.066l-.075.122-.1-.1a.207.207,0,0,1-.084-.1v-.017a.68.68,0,0,1-.058.084l-.049.055-.035-.017c.017.049.017.084.035.122a.055.055,0,0,0,.017.049h.032a.153.153,0,0,1,.11.035.5.5,0,0,1,.151.26v.1Zm-.1-6.527c0,.017,0,.017.017.017a.134.134,0,0,0,.084-.084c.017-.087.124-.122.177-.122a.348.348,0,0,0,.084-.055l-.119-.243.243-.067a.339.339,0,0,0,.017-.139l.017-.055a.566.566,0,0,1,.1-.24l-.052-.052c0,.017-.017.017-.017.035s-.067.069-.067.087l-.159.3-.084.014a.612.612,0,0,1-.052.211.487.487,0,0,1-.107.153Zm.136,4.808c0-.032-.017-.049-.017-.084-.017,0-.017,0-.035.017Zm-.052.229a1.455,1.455,0,0,1,.093-.139c0-.017-.017-.035-.017-.052l-.023.052c-.017.017-.017.017-.017.035a.247.247,0,0,0-.032.1Zm.854,3.4v-.014l-.049.014-.041-.156h-.017l-.049-.017a.409.409,0,0,1-.194-.206l-.084.049-.052-.122a.144.144,0,0,1,0-.087.2.2,0,0,1-.049-.122v-.035l-.023.017-.017-.017-.035.069-.1-.035a.309.309,0,0,1-.107.069l.072.313a.279.279,0,0,1,.122-.069h.032c.075,0,.142.035.177.174a.339.339,0,0,1,.017.139v.02l.107-.177.1.191c.017.069.049.069.1.087a.861.861,0,0,0,.094-.084Zm-.072-1.077h-.017a.348.348,0,0,1-.153.122c-.032.017-.049.035-.072.035l.191.122a.246.246,0,0,1,.017-.067.533.533,0,0,1,.035-.177c.023,0,.023-.017.041-.035Zm-.035-2.292a.106.106,0,0,1,.075.055V414l-.075-.052Zm.261-.553.055.052a.242.242,0,0,1,.052-.156v-.035l-.052-.017-.014-.052a.218.218,0,0,1-.058-.122c0-.052-.035-.09-.084-.139a.291.291,0,0,1-.1.226c.017.035.017.049.032.049.12.038.172.072.172.195Zm-.052,2.8a.261.261,0,0,1,.107.067l.017.017.069-.017.035-.049a.877.877,0,0,1,.014-.194.567.567,0,0,0-.208.156.059.059,0,0,1-.031.017Zm.093.952.22.052-.052-.1a.086.086,0,0,1-.032-.052.061.061,0,0,0-.035.017l-.087.035c0,.011-.011.028-.011.045Zm.258.643h-.09l-.017-.017c-.014,0-.014.017-.014.017,0,.017.014.052.014.087h.017c.035,0,.052.017.069.017a.225.225,0,0,0,.025-.107Zm.347-.729v-.156h.084l-.035-.052c-.035-.052-.067-.122-.119-.191v-.017a.017.017,0,0,1-.017-.017.092.092,0,0,1-.072.035.159.159,0,0,1-.052.087.632.632,0,0,1,.035.243.288.288,0,0,1,.107.087.132.132,0,0,1,.035.07l.017.017c.017.017.017.052.032.052a.017.017,0,0,0,.017.017v-.017a.017.017,0,0,0-.017-.017.514.514,0,0,1-.013-.145Zm2.2-1.285a.648.648,0,0,0,.052-.365.171.171,0,0,1-.052-.171.247.247,0,0,0,.017-.156.148.148,0,0,0,0-.122c0-.055-.017-.087-.017-.122a2.3,2.3,0,0,1,.017-.469.035.035,0,0,0,0-.055c-.067-.084.017-.171.035-.261a.065.065,0,0,1,0-.1.968.968,0,0,1-.035-.535.219.219,0,0,1,.017-.226c-.052-.052-.052-.09-.017-.139.017-.035,0-.052,0-.087a.082.082,0,0,0-.017-.1.061.061,0,0,0,.017-.087.14.14,0,0,1-.017-.139c.052-.1,0-.226.052-.313V411.9c0-.02-.017-.038-.017-.055a.345.345,0,0,1-.035-.226c.017-.069,0-.156.035-.2,0-.038-.017-.072,0-.09a.23.23,0,0,0-.035-.208c-.017-.017,0-.052.017-.087l-.017-.017a2.565,2.565,0,0,1,.017-.365v-.122a.105.105,0,0,0,0-.1.748.748,0,0,1-.017-.281v-.851c-.084-.084-.107-.1-.124-.206-.032-.038-.067-.055-.084-.087a1.059,1.059,0,0,0-.5-.315,1.237,1.237,0,0,0-.486-.017,1.862,1.862,0,0,0-.4.139.611.611,0,0,0-.313.263.69.69,0,0,0-.151.382c0,.017-.023.035-.023.035a.352.352,0,0,1,.023.122v1.717c0,.035.015.069,0,.09-.041.032-.023.066-.023.1,0,.052-.017.087,0,.122a.953.953,0,0,1-.017.1c0,.031.017.087.017.122a.471.471,0,0,0,0,.156,1.916,1.916,0,0,1-.035.313c-.017.122,0,.261-.017.4-.035.136,0,.275-.035.417a.837.837,0,0,0,0,.208.452.452,0,0,1-.084.278v.017c0,.017.017.035.035.052-.017.014-.017.032-.035.052a.313.313,0,0,1,.052.243.874.874,0,0,0-.035.206.232.232,0,0,1-.017.107.232.232,0,0,0,0,.153.166.166,0,0,1,.017.087c.017.107.017.211.035.316.014.139,0,.278.014.431a.683.683,0,0,1,.035.261c.052.055,0,.139.069.194-.017.1.072.2-.017.31a.082.082,0,0,1,.072.038c-.017.084.052.153.087.223a1.546,1.546,0,0,0,.156.226,2.754,2.754,0,0,0,.538.3c.017-.038.067.014.084-.02a.172.172,0,0,1,.124-.035h.119a.244.244,0,0,0,.107-.017c.035-.017.084,0,.119,0a.064.064,0,0,0,.052-.017.517.517,0,0,0,.275-.1c.041-.049.124-.087.142-.156,0-.035.052-.052.087-.069v-.067c.014.014.032.014.032.032a.808.808,0,0,0,.11-.6Zm-1.818,1.647-.023-.032c-.017,0-.035,0-.035-.017l-.017.035h-.084a.064.064,0,0,1-.052-.017.734.734,0,0,1,.1.153c.017,0,.017.02.017.02a.434.434,0,0,0,.069-.122Zm.084,1.045a.064.064,0,0,1-.017-.052.017.017,0,0,0-.017.017.175.175,0,0,0,.017.052h.017Zm.261-10.727a.325.325,0,0,1,.049.087.091.091,0,0,1,.087-.052.215.215,0,0,1,.038-.174c.017-.035.052-.055.069-.087V407.5a.061.061,0,0,1-.017-.035l-.052.069a.208.208,0,0,0-.055.069c-.017.017-.017.035-.035.035l-.052.049v.02c-.01.022-.027.039-.027.057Zm.813,10.606v-.052h-.052c-.017,0-.049.035-.049.069l.049.052a.237.237,0,0,1,.057-.073Zm.521-11.318c0,.017.014.017.014.035l.017-.035Zm.055,1.508h.066a.061.061,0,0,0,.017-.049l-.049-.1.017.014v-.014h-.035c0,.052-.017.087-.017.136Zm.185-.761s0-.017-.014-.017a.15.15,0,0,0-.069.032.3.3,0,0,1,.069.055Zm1.583,3.022c.017-.038.017-.09.069-.124.017,0,.017-.014,0-.087V410.6c0-.032-.017-.069-.017-.1a.064.064,0,0,0-.052-.017.185.185,0,0,1-.156.09.2.2,0,0,1-.194-.159v-.017a.622.622,0,0,1-.1-.084l-.124-.09a.262.262,0,0,1-.344-.052h-.035a.1.1,0,0,1-.067-.017v.07a.1.1,0,0,1,.052.09c.032.1-.052.261-.052.278a.457.457,0,0,0-.058.087.464.464,0,0,1,.11.084h.015a.2.2,0,0,1,.119.072c.035-.038.075-.038.107-.055.052-.017.069-.017.087-.035.017-.035.049-.049.107-.049h.22l.124.206Zm-.712,6.229Zm.035-.017v.052h0a.033.033,0,0,0,.006-.057Zm.208-8.435-.107.035c-.017,0-.017.032-.017.049v.038a.107.107,0,0,1-.014.067.135.135,0,0,1-.017.09.7.7,0,0,1,.107.1.285.285,0,0,1,.119.032h.017l.014.017c.017,0,.035.017.052.038l.226.017a.506.506,0,0,1-.017-.226.625.625,0,0,1,.211-.333v-.136l-.017-.017-.119.017-.093-.313a.751.751,0,0,1-.133-.191.053.053,0,0,1-.017-.035c-.017-.017-.017-.017-.041-.017-.017-.02-.035-.02-.052-.035s-.032-.017-.049-.035a.166.166,0,0,1-.052.156.359.359,0,0,1-.09.07l-.049.035c.014.069.032.122.049.191a.475.475,0,0,1,.041.174Zm.729,2.9a.133.133,0,0,1-.107-.084.069.069,0,0,1-.049.014h-.052a.017.017,0,0,0-.017.017c-.017.052-.035.069-.035.1s-.014.017,0,.035a.079.079,0,0,1,.017.052l.208-.035a.628.628,0,0,0,.041-.106Zm.208-1.907-.174-.261.052-.072-.052.035c-.017,0-.035.02-.069.072-.014.032-.055.049-.072.069a.623.623,0,0,1,.058.188h.136a.177.177,0,0,0,.084-.015c.029-.011.029-.024.042-.024Z" transform="translate(159.754 -27.017)" fill="#515151"/><path d="M125.615,417.89c-.038.208-.017.417-.038.625,0,.035-.017.087-.017.136a.3.3,0,0,1-.035.122.986.986,0,0,1-.153.229.542.542,0,0,1-.226.07h-1.039c-.041,0-.075.017-.075-.017,0-.052-.014-.038-.032-.02a.063.063,0,0,1-.087.038c-.107-.017-.226.035-.333-.017-.084.052-.168.017-.26.017-.067,0-.136.035-.185-.017-.017-.02-.058.017-.072.017-.153-.017-.3.035-.431-.017-.041.069-.107-.052-.159.017-.032-.07-.107.017-.142-.017-.049.035-.119-.052-.151.017h-2.414c-.052,0-.1.017-.142-.017,0-.02-.035.017-.052.017a.84.84,0,0,1-.208,0c-.035,0-.067-.038-.084-.055s-.017-.066-.017-.084c-.017-.038-.035-.038-.052-.052.052-.052-.014-.09-.032-.139s.017-.072-.041-.1c-.017-.017.058-.052,0-.087a1.4,1.4,0,0,0-.035-.263,2.384,2.384,0,0,1-.017-.345c0-.052-.067-.087-.032-.139.049-.035,0-.087.032-.122.052-.069,0-.139-.014-.208,0-.038-.052-.07,0-.1.014,0,0-.035-.017-.049a.156.156,0,0,1-.035-.124V417a.246.246,0,0,1,.035-.153.14.14,0,0,0-.017-.142c-.017-.052-.035-.087.017-.122-.035-.017,0-.069-.017-.069a.189.189,0,0,1-.052-.153V416.1c.017-.055.052-.1.035-.139-.035-.072.017-.142-.017-.211-.035-.032-.017-.1.017-.153a.058.058,0,0,0,0-.087.172.172,0,0,0,.017-.055c0-.069.084-.139-.035-.174-.017,0-.049-.069-.035-.087a.285.285,0,0,0,0-.122v-.139c0-.035-.014-.084.017-.122a.147.147,0,0,0,0-.122c-.049-.032,0-.067,0-.1s.069-.122.017-.171c-.017,0,.017-.035.017-.052a.576.576,0,0,0-.017-.243c-.017-.017,0-.055-.017-.087,0-.072.035-.139-.017-.208v-.035a.065.065,0,0,0,0-.1c0-.017-.014-.035,0-.052a.065.065,0,0,0,0-.1c.035-.055,0-.122.035-.177s0-.067-.017-.1a.109.109,0,0,1,0-.122c.017-.02,0-.052,0-.087,0-.055.017-.122.017-.174.069-.02-.035-.069.017-.1.035-.038-.017-.1.035-.156v-.052c-.017-.035-.069-.087-.052-.087.035-.035.017-.069.017-.107a1.74,1.74,0,0,0-.035-.275,3.207,3.207,0,0,1,.017-.4.427.427,0,0,1,.017-.208c.035-.052-.017-.122.017-.188.017-.038-.017-.09-.017-.107.052-.032.017-.07,0-.1,0-.017,0-.049.017-.049.035-.038.049-.072,0-.09s.035-.052.017-.087a.127.127,0,0,1-.035-.087v-.538c0-.017.017-.049.017-.067.017-.038.049-.1.035-.1-.052-.055.032-.09.014-.122a.131.131,0,0,1-.014-.072.733.733,0,0,1-.052-.382.037.037,0,0,1,.035-.032c.032,0,.032-.055.017-.055-.035-.049.014-.084.014-.139,0-.017.017-.017.017-.032-.1-.072.017-.156-.017-.229a.805.805,0,0,1-.032-.4.2.2,0,0,1,.017-.139c.014-.035-.017-.087-.017-.122v-.3a.517.517,0,0,1,.017-.171.138.138,0,0,0,.032-.1c0-.052-.032-.09-.017-.139-.119-.052-.049-.122-.032-.191a2.289,2.289,0,0,1,.032-.313,1.363,1.363,0,0,1,.035-.243.5.5,0,0,1,.278-.313c.072.035.072-.087.142-.052.017-.07.049.017.1-.017.023-.017.055-.052.107-.017.017,0,.067-.035.119-.052.035-.017.09.017.124-.035a.892.892,0,0,0,.31-.035c.052,0,.087.052.142,0,.035-.017.087.017.136.035h.3c.02,0,.055.017.072.017s.052-.017.067-.017h.035c.069-.017.069.069.142.052a.113.113,0,0,1,.119.07c.067.017.09.072.142.1a1.592,1.592,0,0,1,.153.209c0,.035.072.069,0,.1a.19.19,0,0,0,.055.035c-.017.052.052.1.017.174v.017a.363.363,0,0,1,.067.261,4.632,4.632,0,0,1,0,.7,1.8,1.8,0,0,1-.032.414,1,1,0,0,1-.017.229c-.052.174,0,.33-.035.483a3.372,3.372,0,0,0-.017.42.622.622,0,0,0-.038.119c-.017.038.038.052,0,.1-.017.038.038.087.038.139v1.01c0,.032,0,.084-.023.1-.049.02.041.052-.014.087v.087a.033.033,0,0,0,0,.052.675.675,0,0,1,.038.281c-.023.1.017.223-.023.327a1.3,1.3,0,0,0-.014.347,2.56,2.56,0,0,1,.038.33c-.023.084.017.174-.038.278-.017.017.038.067.038.122v1.25a.324.324,0,0,1-.038.1v.1a.93.93,0,0,0,.014.292c.023.035,0,.072,0,.122s.023.072.023.1v.472a.234.234,0,0,1-.038.153c.055.052.014.1.038.156v.33c-.023.072,0,.156-.038.243a.343.343,0,0,0,.174.347c.017,0,.159.035.177.035.119-.017.258.035.376-.035.035.052.11.017.159.035a.481.481,0,0,0,.313,0,.265.265,0,0,1,.049-.035c.075.052.159.017.226.035a.264.264,0,0,0,.229,0,.671.671,0,0,1,.452,0,.757.757,0,0,0,.124.035c.032,0,.049-.052.084-.017.052-.052.119,0,.174-.035a.306.306,0,0,1,.171-.017.7.7,0,0,0,.191,0c.052-.017.11.087.142,0h.171a.852.852,0,0,1,.3.052.049.049,0,0,0,.067,0,.089.089,0,0,1,.084.055c.035.014.052,0,.075-.02a.117.117,0,0,0,.014.069,1.013,1.013,0,0,1,.136.087.6.6,0,0,1,.124.33C125.615,417.508,125.632,417.7,125.615,417.89Zm-4.895-9.251a.521.521,0,0,1,.067-.124c.017-.015.035-.015.017-.084V408.4c0-.035-.017-.069-.017-.107h-.049a.189.189,0,0,1-.177.09.207.207,0,0,1-.191-.174.017.017,0,0,0-.017-.017c-.017-.02-.067-.052-.1-.087l-.124-.1a.271.271,0,0,1-.362-.052h-.1c0,.017.014.052.014.069a.327.327,0,0,1,.052.087.453.453,0,0,1-.067.3c-.023.014-.041.052-.058.07.035.035.072.066.107.1h.017a.146.146,0,0,1,.119.069.648.648,0,0,1,.124-.052c.052-.017.067-.017.084-.038a.125.125,0,0,1,.11-.049h.243l.119.208Zm-.729,6.475Zm.035-.017v.052h0a.037.037,0,0,0,0-.049Zm.973-5.746c-.035-.017-.087-.035-.1-.09h-.107c-.015,0-.015,0-.015.038l-.052.1v.02a.064.064,0,0,1,.017.052l.226-.017a.644.644,0,0,1,.032-.1Zm.243-2a.247.247,0,0,1-.035-.1l-.226-.156c0,.017,0,.017-.017.017a.14.14,0,0,1-.09.087.353.353,0,0,1,.072.208.46.46,0,0,1,.153-.017c.017.017.035,0,.072-.017.018,0,.053-.019.07-.019Zm2.379,10.762c0-.017-.023-.017-.023-.017v-.035a.086.086,0,0,1-.017-.052c-.035-.035-.067-.052-.1-.09l-.052-.049-.049-.035v-.017c-.058.069-.058.1-.023.139,0,.017.023.035.023.052a.283.283,0,0,1,.2.087c.02,0,.02.02.041.02Zm.278-.68-.017-.014-.041-.035v.035c.023.014.023.035.041.035a.058.058,0,0,0,.049.017Zm.014.316Zm.414-.208a.017.017,0,0,1-.017-.017.1.1,0,0,1-.049-.1l-.122-.052.136-.1h.017a.8.8,0,0,1-.1-.035l-.107.122c0,.017,0,.017.023.035a.291.291,0,0,1-.09.171l-.052.055h-.017c.017.017.017.035.017.069v.052a.064.064,0,0,0,.052-.017.754.754,0,0,1,.174-.087.132.132,0,0,1,.069-.035.358.358,0,0,0,.066-.059Z" transform="translate(164.986 -27.03)" fill="#515151"/><path d="M128.852,411.411c-.017.032.058.066,0,.1.041.052-.017.1,0,.174.017.035.041.09.017.122,0,.035-.017.09-.017.122v.1c-.017.3-.017.59-.032.9a.618.618,0,0,1-.035.174.538.538,0,0,0,.017.33v.035c-.069.136-.017.3-.035.452,0,.032-.017.049-.017.087.035.052.017.1,0,.174,0,.014-.017.032-.017.049a.2.2,0,0,1,.017.087.245.245,0,0,1-.017.122.171.171,0,0,0,.035.1c.017.035,0,.072,0,.09v1.282a.86.86,0,0,1-.035.226c0,.072.035.156-.017.211a1.949,1.949,0,0,1-.09.486,1.242,1.242,0,0,1-.084.223,3.01,3.01,0,0,1-.31.573.839.839,0,0,1-.124.156c-.035.069-.1.122-.136.191-.052.052-.124.069-.159.139a.335.335,0,0,1-.174.139,1.3,1.3,0,0,1-.153.139c-.052.035-.124.087-.177.122a4.267,4.267,0,0,1-.5.243c-.119.032-.226.1-.362.136a.977.977,0,0,1-.333.09c-.067,0-.136.017-.153,0-.017.017-.017.032-.032.049H125.8a.228.228,0,0,0-.1.038c-.058.017-.075-.055-.124-.017a.179.179,0,0,0-.052-.038.184.184,0,0,1-.017.072c-.226,0-.417.017-.611,0-.067,0-.119-.017-.168-.017-.075-.017-.124.017-.177-.038a.589.589,0,0,1-.243-.032.836.836,0,0,1-.278-.069,3.672,3.672,0,0,1-.486-.159.454.454,0,0,1-.292-.188c-.017,0-.035.017-.058.035a1.973,1.973,0,0,0-.243-.156l-.22-.177a1.111,1.111,0,0,1-.243-.188v-.087h-.055a.2.2,0,0,0-.1-.156.183.183,0,0,1-.1-.122,1.91,1.91,0,0,0-.243-.365.078.078,0,0,1-.038-.069l.014-.017c-.049-.069-.014-.156-.032-.243h-.052c-.035-.052-.084-.07-.084-.139a.51.51,0,0,1-.052-.174c0-.017-.038-.035-.038-.052a2.563,2.563,0,0,0-.017-.365.064.064,0,0,0-.052-.017c-.017-.052,0-.122-.049-.174,0-.119-.087-.226-.017-.347,0-.017-.017-.032-.035-.049a.1.1,0,0,0,.035-.072.049.049,0,0,1-.017-.032l.017-.017a.315.315,0,0,1-.052-.072.207.207,0,0,1,.017-.139c.017-.014,0-.052-.017-.119,0,.014.017,0,.017-.017,0-.055-.017-.1-.017-.156s-.055-.1-.035-.159a.456.456,0,0,0,0-.153v-.174c0-.055-.02-.121.017-.159a2.966,2.966,0,0,1-.017-.987s-.02,0-.02-.017a.26.26,0,0,0,.02-.139l.052-.052a.59.59,0,0,0-.017-.174.382.382,0,0,1-.035-.243c0-.052.035-.107.035-.139.017-.017.035-.035.017-.035-.035-.122.035-.243,0-.365a.06.06,0,0,1-.017-.035.064.064,0,0,0,.052-.017c-.069-.087.017-.174,0-.261a.542.542,0,0,1,.032-.278c-.032-.017-.032-.052-.032-.087v-.868a.476.476,0,0,1,.049-.2c0-.038.017-.055,0-.072a2.38,2.38,0,0,1-.049-.31v-.315c.017-.1.017-.188.032-.292a.017.017,0,0,1,.017-.017.52.52,0,0,1-.032-.159,2.98,2.98,0,0,1,.1-.692h.041c.032-.087.067-.177.084-.243v-.017l.049-.1s-.017-.017,0-.017c.035-.052.087-.087.1-.142a1.647,1.647,0,0,1,.041-.171.436.436,0,0,1,.119-.208c.017-.017.017-.052.035-.069h.072a.122.122,0,0,1,.035-.07.831.831,0,0,1,.226-.3c.035-.017.052-.052.087-.07.015-.017.049-.035.067-.069.017-.052.052-.069.124-.069,0-.017.017-.035.017-.052a.06.06,0,0,0,.032.017,1.084,1.084,0,0,1,.454-.33.017.017,0,0,1,.017.017c.049,0,.067-.052.1-.069a.43.43,0,0,1,.156-.069c.035-.017.087-.052.119,0,.058-.087.107-.1.177-.087.035-.069.124-.069.174-.087.153-.035.33-.052.489-.087.015,0,.015-.017.032-.017.069.035.069.035.211-.035.015,0,.032.035.049.035.119-.017.261.035.379-.035.041.052.072-.017.09,0,.035,0,.069.017.1.017a.187.187,0,0,1,.093.017c.032,0,.067-.017.1,0a.679.679,0,0,0,.084.017c0,.017.017.017.017.035l.041-.035h.133c.142.07.3.017.437.122a.337.337,0,0,1,.226.052c.067-.052.1.069.177.035a.072.072,0,0,1,.014.052h.069l.084.087a.232.232,0,0,1,.177.035,1.348,1.348,0,0,1,.4.226.376.376,0,0,1,.087.052c.049.122.174.174.258.243.052.035.119.052.142.139,0,.017.035.017.069.035v.052c.017.087.1.087.136.153.038,0,.014.038.038.055a3.192,3.192,0,0,1,.188.33.273.273,0,0,1,.032.156c.023,0,.023.017.041.017.035.049.052.1.084.139.017.069.035.122.052.191a.283.283,0,0,1,.017.174c.107.032.067.153.124.226-.017.067.067.156,0,.243a.674.674,0,0,1,.084.26,1.914,1.914,0,0,1,.052.536c0,.017.049.038.014.072-.014,0,.017.032.017.067v.038c0,.049-.049.1,0,.171a.494.494,0,0,1,.017.177.641.641,0,0,1,.023.278c-.023.015-.041.032-.041.049s.017.035.017.055a.073.073,0,0,1-.049.017c.014.015.032.015.072.032v.226C128.87,411.269,128.91,411.339,128.852,411.411Zm-6.49,4.023a.129.129,0,0,1,.069.122v.072c0,.017.017.049.017.066a.093.093,0,0,1,.02.1h.205l.017-.035-.035-.032a.348.348,0,0,1-.017-.365.325.325,0,0,1,.174-.142V415l-.139-.243.243-.26.072.139c.017,0,.017,0,.035.017a.084.084,0,0,0,.032-.055l.017-.017a.339.339,0,0,1,.035-.139.055.055,0,0,0,.017-.049.14.14,0,0,1,.017-.072.3.3,0,0,1-.171.072.291.291,0,0,1-.142-.038h-.017a.285.285,0,0,1-.049.159.173.173,0,0,1-.124.049.06.06,0,0,0-.017.035.431.431,0,0,1-.1.1c-.017,0-.035.038-.052.072a.352.352,0,0,1-.055.066l-.069.122-.1-.1a.18.18,0,0,1-.09-.1v-.017a.354.354,0,0,1-.052.084l-.049.055-.035-.017c.017.049.017.084.035.122a.055.055,0,0,0,.017.049h.032a.134.134,0,0,1,.1.035.458.458,0,0,1,.159.26v.1Zm-.1-6.527c0,.017,0,.017.017.017a.134.134,0,0,0,.084-.084c.017-.087.124-.122.177-.122a.352.352,0,0,0,.084-.055l-.119-.243.243-.067a.339.339,0,0,0,.017-.139l.017-.055a.566.566,0,0,1,.1-.24l-.052-.052c0,.017-.017.017-.017.035s-.067.069-.067.087l-.159.3-.084.014a.567.567,0,0,1-.055.211.539.539,0,0,1-.1.153Zm.136,4.808c0-.032-.017-.049-.017-.084-.017,0-.017,0-.035.017Zm-.052.229c.035-.052.052-.09.087-.139,0-.017-.017-.035-.017-.052l-.017.052c-.017.017-.017.017-.017.035a.247.247,0,0,0-.036.1Zm.848,3.4v-.014l-.049.014-.035-.156h-.017l-.049-.017a.367.367,0,0,1-.194-.206l-.084.049-.052-.122c0-.017-.02-.049,0-.087a.178.178,0,0,1-.055-.122v-.035l-.017.017-.017-.017-.035.069-.1-.035a.416.416,0,0,1-.107.069l.069.313a.309.309,0,0,1,.124-.069h.032c.069,0,.142.035.177.174a.339.339,0,0,1,.017.139v.02l.1-.177.107.191c.017.069.049.069.1.087Zm-.067-1.077h-.017a.335.335,0,0,1-.159.122c-.032.017-.049.035-.067.035l.191.122a.247.247,0,0,1,.017-.067.532.532,0,0,1,.035-.177c.017,0,.017-.017.035-.035Zm-.035-2.292a.1.1,0,0,1,.069.055V414l-.069-.052Zm.261-.553.052.052a.216.216,0,0,1,.055-.156v-.035l-.055-.017-.017-.052a.26.26,0,0,1-.052-.122c0-.052-.035-.09-.084-.139a.278.278,0,0,1-.107.226c.017.035.017.049.032.049.123.038.176.072.176.195Zm-.052,2.8a.268.268,0,0,1,.1.067l.014.017.075-.017.035-.049a.878.878,0,0,1,.014-.194.524.524,0,0,0-.208.156.059.059,0,0,1-.031.017Zm.087.952.226.052-.052-.1a.086.086,0,0,1-.032-.052.061.061,0,0,0-.035.017l-.09.035a.114.114,0,0,0-.017.045Zm.261.643h-.087l-.017-.017c-.014,0-.014.017-.014.017,0,.017.014.052.014.087h.017c.035,0,.052.017.069.017a.258.258,0,0,0,.017-.107Zm.35-.729v-.156h.084l-.035-.052a1.733,1.733,0,0,0-.124-.191v-.017a.017.017,0,0,1-.017-.017.08.08,0,0,1-.067.035.159.159,0,0,1-.052.087.633.633,0,0,1,.035.243.262.262,0,0,1,.1.087.11.11,0,0,1,.041.07l.017.017c.017.017.017.052.032.052a.017.017,0,0,0,.017.017v-.017a.017.017,0,0,0-.017-.017.514.514,0,0,1-.013-.145Zm2.2-1.285a.649.649,0,0,0,.052-.365.171.171,0,0,1-.052-.171.247.247,0,0,0,.017-.156.148.148,0,0,0,0-.122c0-.055-.017-.087-.017-.122a2.3,2.3,0,0,1,.017-.469.035.035,0,0,0,0-.055c-.072-.084.017-.171.035-.261a.065.065,0,0,1,0-.1.968.968,0,0,1-.035-.535.219.219,0,0,1,.017-.226c-.052-.052-.052-.09-.017-.139.017-.035,0-.052,0-.087a.082.082,0,0,0-.017-.1.061.061,0,0,0,.017-.087.139.139,0,0,1-.017-.139c.052-.1,0-.226.052-.313V411.9c0-.02-.017-.038-.017-.055a.344.344,0,0,1-.035-.226c.017-.069,0-.156.035-.2,0-.038-.017-.072,0-.09a.23.23,0,0,0-.035-.208c-.017-.017,0-.052.017-.087l-.017-.017a2.565,2.565,0,0,1,.017-.365v-.122a.105.105,0,0,0,0-.1.747.747,0,0,1-.017-.281v-.851c-.09-.084-.107-.1-.124-.206-.032-.038-.067-.055-.084-.087a1.059,1.059,0,0,0-.5-.315,1.241,1.241,0,0,0-.486-.017,1.863,1.863,0,0,0-.4.139.611.611,0,0,0-.313.263.7.7,0,0,0-.159.382.065.065,0,0,1-.014.035.546.546,0,0,1,.014.122v1.717c0,.035.017.069,0,.09a.185.185,0,0,0-.014.1c0,.052-.017.087,0,.122a.953.953,0,0,1-.017.1c0,.031.017.087.017.122a.471.471,0,0,0,0,.156,1.91,1.91,0,0,1-.035.313c-.017.122,0,.261-.017.4-.035.136,0,.275-.035.417a.838.838,0,0,0,0,.208.452.452,0,0,1-.084.278v.017c0,.017.017.035.035.052-.017.014-.017.032-.035.052A.313.313,0,0,1,124,414a.873.873,0,0,0-.035.206.232.232,0,0,1-.017.107.178.178,0,0,0,0,.153.166.166,0,0,1,.017.087c.017.107.017.211.035.316.014.139,0,.278.014.431a.683.683,0,0,1,.035.261c.052.055,0,.139.069.194-.017.1.067.2-.017.31a.083.083,0,0,1,.067.038c-.017.084.058.153.093.223a2.18,2.18,0,0,0,.151.226,2.973,2.973,0,0,0,.544.3c.017-.038.067.014.084-.02a.159.159,0,0,1,.119-.035h.124a.209.209,0,0,0,.1-.017c.035-.017.09,0,.124,0a.064.064,0,0,0,.052-.017.535.535,0,0,0,.275-.1c.035-.049.124-.087.142-.156,0-.035.052-.052.087-.069v-.067c.014.014.032.014.032.032a.808.808,0,0,0,.1-.6Zm-1.826,1.647-.014-.032c-.017,0-.035,0-.035-.017l-.017.035h-.084a.076.076,0,0,1-.058-.017.593.593,0,0,1,.107.153c.017,0,.017.02.017.02a.435.435,0,0,0,.069-.122Zm.093,1.045a.064.064,0,0,1-.017-.052c-.023,0-.023.017-.023.017a.149.149,0,0,0,.023.052h.017Zm.261-10.727a.325.325,0,0,1,.049.087.091.091,0,0,1,.087-.052.233.233,0,0,1,.032-.174c.017-.035.058-.055.075-.087V407.5a.061.061,0,0,1-.017-.035l-.058.069a.205.205,0,0,0-.049.069c-.017.017-.017.035-.035.035l-.052.049v.02c-.014.022-.031.039-.031.057Zm.813,10.606v-.052h-.052c-.017,0-.049.035-.049.069l.049.052a.238.238,0,0,1,.053-.073Zm.521-11.318c0,.017.014.017.014.035l.017-.035Zm.049,1.508h.072a.061.061,0,0,0,.017-.049l-.055-.1.023.014v-.014h-.041c0,.052-.017.087-.017.136Zm.191-.761s0-.017-.014-.017a.15.15,0,0,0-.069.032.3.3,0,0,1,.069.055Zm1.578,3.022c.023-.038.023-.09.075-.124.017,0,.017-.014,0-.087V410.6c0-.032-.017-.069-.017-.1a.07.07,0,0,0-.058-.017.175.175,0,0,1-.151.09.192.192,0,0,1-.194-.159v-.017a.622.622,0,0,1-.1-.084l-.124-.09a.262.262,0,0,1-.344-.052h-.035a.116.116,0,0,1-.072-.017v.07a.1.1,0,0,1,.058.09c.032.1-.058.261-.058.278-.017.032-.035.049-.052.087a.624.624,0,0,1,.11.084h.014a.2.2,0,0,1,.119.072c.035-.038.069-.038.107-.055s.069-.017.087-.035a.1.1,0,0,1,.1-.049h.226l.125.206Zm-.706,6.229Zm.035-.017v.052h0a.033.033,0,0,0,0-.057Zm.208-8.435-.107.035c-.017,0-.017.032-.017.049v.038a.107.107,0,0,1-.014.067.135.135,0,0,1-.017.09.5.5,0,0,1,.1.1.287.287,0,0,1,.124.032h.017l.014.017c.017,0,.035.017.052.038l.226.017a.506.506,0,0,1-.017-.226.593.593,0,0,1,.211-.333v-.136l-.017-.017-.124.017-.087-.313a.953.953,0,0,1-.139-.191.054.054,0,0,1-.017-.035c-.017-.017-.017-.017-.035-.017-.017-.02-.035-.02-.052-.035s-.032-.017-.049-.035a.166.166,0,0,1-.052.156.652.652,0,0,1-.09.07l-.049.035c.014.069.032.122.049.191a.617.617,0,0,1,.035.174Zm.729,2.9a.13.13,0,0,1-.107-.084.069.069,0,0,1-.049.014h-.052a.017.017,0,0,0-.017.017c-.017.052-.041.069-.041.1s-.014.017,0,.035a.089.089,0,0,1,.023.052l.206-.035a.573.573,0,0,1,.038-.106Zm.206-1.907-.171-.261.052-.072-.052.035c-.017,0-.035.02-.072.072-.017.032-.052.049-.069.069a.62.62,0,0,1,.052.188h.142a.177.177,0,0,0,.084-.015c.017-.011.017-.024.035-.024Z" transform="translate(169.697 -27.003)" fill="#515151"/><path d="M132.023,418.751c-.017.049-.017.122-.087.153-.017.017-.049.017-.049.038-.041.017-.041.017-.058,0a.124.124,0,0,0-.067.035c-.052.017-.084.067-.142.067-.084.02-.185.02-.278.038a4.115,4.115,0,0,1-.446.035,4.24,4.24,0,0,0-.469,0,1.751,1.751,0,0,0-.3-.035,1.646,1.646,0,0,1-.292,0,1.176,1.176,0,0,0-.226-.038c-.171-.032-.243-.188-.33-.275-.014-.052-.014-.07-.032-.09a.766.766,0,0,1-.124-.275,1.153,1.153,0,0,0-.1-.243c-.017-.1-.017-.191-.035-.3-.017,0-.035-.017-.052-.017a1.373,1.373,0,0,0-.072-.191c.055-.052-.035-.09-.035-.156s0-.139-.067-.171c0-.02.017-.02.017-.038-.087-.069-.052-.191-.1-.278l.035-.035a.627.627,0,0,1-.072-.156c.017-.017.017-.035.038-.035a.209.209,0,0,1-.055-.188.967.967,0,0,1-.067-.09c0-.032-.017-.052-.017-.069s.017-.017.032-.035a.829.829,0,0,1-.084-.017c-.017-.032-.035-.07-.072-.139a.085.085,0,0,1,.02-.087c-.02-.035-.02-.087-.055-.122a.518.518,0,0,1-.1-.226c0-.017.017-.035.035-.052-.017-.032-.052-.014-.069-.07-.035-.066-.107-.139-.09-.243-.069-.052-.069-.156-.1-.226-.052-.139-.1-.278-.159-.417a.554.554,0,0,1-.017-.087.371.371,0,0,0-.084-.223l.032-.038h-.049c-.035-.084-.067-.171-.107-.261a1.482,1.482,0,0,0-.069-.258.661.661,0,0,0-.452-.09.386.386,0,0,0-.243.142V415.2a.7.7,0,0,0,0,.191,1.006,1.006,0,0,1,0,.229V418.3a1.912,1.912,0,0,1-.035.315.261.261,0,0,0,.035.1c-.017.017-.017.035-.035.052a.167.167,0,0,1-.014.069.7.7,0,0,1-.4.243c-.04.017-.09.017-.124.035-.035,0-.084-.017-.119,0a3.978,3.978,0,0,1-.611.017l-.052-.052c-.014.017-.032.017-.049.035,0-.017-.017-.017-.035-.035-.023.017-.04.035-.058.035-.1-.017-.185.017-.275-.035h-.017a3.123,3.123,0,0,1-.434-.038.529.529,0,0,1-.119-.1,1.257,1.257,0,0,1-.052-.142.062.062,0,0,0,0-.1.318.318,0,0,1-.035-.174l-.038-.035a1.8,1.8,0,0,0-.052-.208c0-.07.017-.139-.017-.191-.017-.017,0-.069,0-.1a.512.512,0,0,0-.035-.226c-.014-.07.052-.1.069-.194a.2.2,0,0,1-.052-.014c-.017-.107-.032-.191-.049-.261,0-.087.032-.156-.035-.243.017-.017.035-.017.035-.035,0-.049-.017-.1-.017-.156a.771.771,0,0,1,.017-.347.053.053,0,0,0,0-.069.062.062,0,0,1,0-.1.057.057,0,0,0,0-.072c-.035-.032-.017-.087-.017-.139,0-.014-.017-.014-.035-.032l.017-.02c0-.122.084-.223.017-.345.035-.02-.035-.072.017-.087,0-.035-.017-.072-.017-.107v-.032a.3.3,0,0,1-.052-.3v-.223a1.454,1.454,0,0,1,0-.42c0-.049.017-.087.017-.122,0-.014-.017-.014-.038-.032.02-.035.072-.072.02-.122s0-.072.017-.1c.017-.052-.017-.107.017-.139s.017-.072.035-.122c.032-.072-.017-.139-.035-.211,0-.014-.017-.014-.017-.032a5.711,5.711,0,0,0-.038-.59c0-.035.055-.052.02-.1a.262.262,0,0,1-.02-.124v-.136c.02-.035-.017-.1.038-.139v-.035a1.186,1.186,0,0,1-.017-.5c-.02-.035.017-.087.035-.153a.074.074,0,0,1-.017-.038V411.7c0-.035-.017-.087,0-.122.035-.035,0-.07.017-.1.035-.035.017-.1.017-.139s.035-.087.017-.122.017-.087.017-.122a.721.721,0,0,0-.069-.208c0-.017.017-.017.017-.035l-.017-.017v-.469l.052-.049v-.194c0-.017.017-.067,0-.067-.035-.038.017-.055,0-.072-.035-.032.017-.049.017-.087-.017-.035-.035-.067.014-.1-.032-.017-.032-.067-.032-.1s.017-.072,0-.1c-.035-.035.017-.072-.017-.09a2.285,2.285,0,0,1,.017-.486c.017-.015,0-.067,0-.087a1.911,1.911,0,0,1,.017-.449c.014-.122,0-.261.014-.382,0-.017-.014-.055-.014-.069a.035.035,0,0,1,.032-.035c0-.055-.032-.1-.017-.139.035-.038-.049-.087.035-.1l-.035-.035.035-.038a.065.065,0,0,1-.035-.014.535.535,0,0,0,.035-.139v-.313a.1.1,0,0,1,.017-.069.259.259,0,0,1-.052-.122.4.4,0,0,0-.032-.139c.017,0,.032-.017.067-.017-.017-.052.017-.1-.035-.156a1.529,1.529,0,0,1,.159-.226c.017-.035.069-.052.1-.069a.752.752,0,0,1,.087-.017.7.7,0,0,0,.09.017c.067.017.153-.017.226.035h.017c.032-.017.067-.052.119-.017.035.017.067-.017.124-.017a.155.155,0,0,0,.119-.017c.017-.017.067.017.09.017.052,0,.084.035.136.017a.339.339,0,0,1,.142-.017c.017,0,.035.017.067.017s.017,0,.035-.017c.017.017.035.017.052.035a.345.345,0,0,1,.107-.035c.032.052.067,0,.1,0,.035.017.067-.017.107-.017a.929.929,0,0,1,.22,0c.072-.017.142.017.208-.035.058-.017.093.052.159.017.017-.017.084.017.119.017a.017.017,0,0,1,.017.017l.159-.052c.049.052.122.017.174.035a.534.534,0,0,1,.153.052.43.43,0,0,0,.208-.035.393.393,0,0,1,.243-.017l.159.052a.677.677,0,0,0,.159-.052c.014,0,.014,0,.032-.017a.064.064,0,0,1,.017.052,1.558,1.558,0,0,1,.57.052c.069.035.124.069.194.1.067-.07.151.035.226,0,.017.02.017.035.017.069.032-.017.049-.017.067-.035l.052.052a.017.017,0,0,0,.017-.017.977.977,0,0,1,.174.069v.035c.017,0,.017-.017.035-.017s.017,0,.035.017a.015.015,0,0,1,.014-.017,2.487,2.487,0,0,1,.822.521l-.017.017a.257.257,0,0,0,.185.1.772.772,0,0,1,.211.278c.014.014.055.014.072.032.084.159.185.3.278.454a.358.358,0,0,1,.049.139v.035a1.836,1.836,0,0,1,.194.5,2.681,2.681,0,0,0,.119.431v.035a1.1,1.1,0,0,0,.032.33,1.542,1.542,0,0,1,.017.4,3.1,3.1,0,0,1,0,.4,3.9,3.9,0,0,0-.035.449,1.166,1.166,0,0,1-.032.243l-.035.035a1.9,1.9,0,0,1-.191.712c-.052.122-.1.243-.171.382,0-.017-.023-.035-.023-.035a.221.221,0,0,1-.067.052c.017.017.035.035.035.052a2.006,2.006,0,0,1-.521.625c-.069.052-.119.122-.177.174a.8.8,0,0,1-.185.156c-.075.035-.142.087-.226.122a.767.767,0,0,0,.032.087.324.324,0,0,1,.035.119c.017.038.067.055.035.107v.014c.067.038.067.124.09.177.035.1.1.188.069.3a.062.062,0,0,0,.049.014c.017.107.084.177.1.278a.333.333,0,0,0,.075.177.979.979,0,0,1,.119.4l.049.055-.032.035h.072v.122c.119.067.084.2.136.292-.017.017-.017.035-.035.055.069.017.1.084.124.122a3.045,3.045,0,0,0,.2.536c.041.1.058.191.107.3a.761.761,0,0,0,.052.156c.035.035.035.1.067.156a.509.509,0,0,1,.052.174,1.24,1.24,0,0,1,.072.156,1.512,1.512,0,0,0,.119.278c.035.1.075.191.11.3a.065.065,0,0,1,.014.035.718.718,0,0,0-.09-.139l-.136-.4c-.017.017-.017.017-.032.017l.014.017c0-.017.017-.017.153.365.159.382.194.4.208.417-.014.035-.014.052-.032.069a.058.058,0,0,1,.049.017A2.787,2.787,0,0,1,132.023,418.751Zm-7.086-10a.185.185,0,0,1-.084-.1h-.017v.052a.257.257,0,0,0-.017.122Zm2.365-.454h.275l.017-.014h.093l-.11-.229.229-.066c.014-.035.014-.087.032-.122V407.8a.355.355,0,0,1,.211-.313l.049-.052a.22.22,0,0,1,.017-.1c0-.017-.017-.035-.017-.07V407.2l-.57.347a.265.265,0,0,1-.052.153l.069.055-.368.365-.035-.521-.049-.087-.052.017-.052-.069c0-.017-.032-.052-.032-.1v-.017c.017-.052.017-.122.032-.174a.165.165,0,0,1,.188-.156h.038a.206.206,0,0,1,.206.139.491.491,0,0,1,.055.191l.556-.156-.035.035.119-.035a.241.241,0,0,1,.052-.069l-.136.035-.035-.1a.061.061,0,0,0-.049-.017l-.058.035-.052-.069h-.017a.318.318,0,0,1-.1.069.157.157,0,0,1-.174,0l-.017-.017a.613.613,0,0,1-.177-.017c-.014-.017-.049-.017-.067-.035h-.124l-.3.087-.084-.087h-.4a.492.492,0,0,0-.136.035h-.035a.315.315,0,0,1,.035.208c-.017.052-.035.122-.058.174.023,0,.058.017.072.017a.037.037,0,0,0,.035-.035h.035c-.017-.052.017-.087.017-.1l.017-.017.067-.156.177.156.139-.087.069.1a.324.324,0,0,1-.119.434l-.107.069-.052-.09v.194l-.31-.121-.058.069-.1-.087c0-.017-.017-.017-.017-.035l-.017.017c0,.017,0,.017-.014.035a.061.061,0,0,0-.017.049.249.249,0,0,1-.243.194l-.035.032-.058.017-.067-.017a.287.287,0,0,1-.243-.327V407.6a.431.431,0,0,1,.067-.156c.04-.035.04-.069.04-.156-.023,0-.023,0-.04.017H125.4a.015.015,0,0,1-.014.017l-.069.052-.049-.035c-.142-.087-.177-.139-.142-.261-.035.035-.069.052-.1.087l-.093.052h0l.261.313-.168.049c-.017.02-.052.02-.075.038-.032,0-.049,0-.067.017v.035l.142.174v.017l.208.26-.35.1v.122a.9.9,0,0,1,.124-.087.119.119,0,0,1,.1-.035.437.437,0,0,1,.31,0c.058-.017.093-.038.142-.055l.211-.067.015.122a.432.432,0,0,1,.087.084l.067-.067.075.139a.221.221,0,0,1,.151-.1.2.2,0,0,1,.09-.052h.017l.069-.055c0-.014.017-.014.035-.032.015-.035.072-.052.139-.052h.119l.3.017-.136.174c0,.017-.017.017-.017.032Zm-1.737.889c-.017,0-.032-.02-.049-.038a.059.059,0,0,1-.035-.014l-.142-.107.142-.084a1.57,1.57,0,0,1-.142-.069.382.382,0,0,0-.243-.035l-.1.017-.017-.055v.087a.245.245,0,0,1,.1-.015.183.183,0,0,1,.194.171v.038a.116.116,0,0,1,.067.122.1.1,0,0,1,.017.067c0,.038.017.072.017.1l.067.072a.075.075,0,0,0,.041.017c.067-.035.067-.035.067-.055v-.122l.017-.084Zm-.226,5.517v.122a.145.145,0,0,0,0-.125Zm.177,3.578c-.017-.017-.035-.017-.035-.035l-.058.049c.017.038.017.055.04.072l.035-.035c0-.015.018-.032.018-.049Zm.411-1.682h-.017c-.049.014-.067.049-.119.1-.015.017-.015.035-.032.052a.173.173,0,0,0,.017.07h.067c0-.017.017-.017.035-.035a.3.3,0,0,1,.09-.052Zm.226,1.664v-.139c-.015,0-.015,0-.015-.017h-.017c-.017,0-.035,0-.035.052a.133.133,0,0,0,.035.087c.018,0,.018.019.032.019Zm.486-9.859h-.017l-.119.087a.045.045,0,0,1-.032.017.284.284,0,0,1,.017.153.311.311,0,0,1-.107.072.056.056,0,0,0,.049.017l.09.032v-.153l.052-.072Zm-.119,7.569c-.017-.02-.017-.02-.017-.038l-.049-.084.035-.02-.017-.017.017-.066a.219.219,0,0,1,.032-.1H126.5a.166.166,0,0,1-.049.087.161.161,0,0,1-.04.153c.017.017.058.035.058.069.017.038.032.055.049.087Zm2.5-5.367a.524.524,0,0,1,.014-.139l-.014-.015c.014-.035.049-.072.049-.107v-.292a1.375,1.375,0,0,0-.049-.263.51.51,0,0,1,.014-.223c-.014-.038-.049-.072-.049-.087,0-.052-.052-.072,0-.122a.213.213,0,0,1-.035-.09c-.035-.017-.055-.032-.09-.049.017,0,.017,0,.017-.017v-.017a.672.672,0,0,0-.226-.263.6.6,0,0,1-.2-.171.975.975,0,0,1-.208-.035.122.122,0,0,0-.035-.069c-.014,0-.014.014-.038.014a.072.072,0,0,0-.052-.014,1.187,1.187,0,0,0-.243-.017h-.035v-.052c-.049,0-.1.017-.151.017h-.023c-.069,0-.1.017-.153.017H126.9v.017a1.844,1.844,0,0,1-.035.434c0,.017,0,.07.017.07a.215.215,0,0,1,.017.1c-.017.1.035.208-.035.313v.035c.052.049.035.1.035.153v.747a3.425,3.425,0,0,1-.035.729,2.5,2.5,0,0,0,0,.33.382.382,0,0,0,.278.191,1.948,1.948,0,0,0,.316.038,2.156,2.156,0,0,0,.362-.02c.142-.017.261-.052.4-.069.069-.017.136-.07.208-.087a1.3,1.3,0,0,0,.136-.035c.017-.017.035-.052.052-.069h.09v-.122c.069-.1.119-.191.188-.278V411h.055c.017-.035-.017-.1.035-.139-.052-.035.017-.067,0-.122a.566.566,0,0,1,.038-.132Zm-1.546,2.727c-.017-.017-.017-.052-.032-.069H127.4Zm.035.1c-.017-.017-.017-.052-.035-.072l-.017.055c0,.017-.014.035-.014.052-.023.015-.023.052-.041.07h.017a.777.777,0,0,0,.092-.1Zm.695.5a.692.692,0,0,1-.09.052.1.1,0,0,1,.017.07v.014a.07.07,0,0,1,.017.055.069.069,0,0,0,.017-.055.1.1,0,0,0,.023-.067c0-.017.014-.038.014-.055Zm.017-.313-.072-.052v.014a.2.2,0,0,1,.072.055Zm.3-.729h-.052l-.017-.052a.251.251,0,0,1-.038-.122c0-.052-.035-.087-.1-.156a.344.344,0,0,1-.087.243c0,.035,0,.035.017.049.119.038.171.072.171.177.02.017.038.035.055.052a.2.2,0,0,1,.052-.139Zm.518.831a.015.015,0,0,1-.014-.017.079.079,0,0,0,.014.055v.017c.017.017.017.035.035.035a.334.334,0,0,0-.038-.08Zm.211,1.111c0-.017,0-.067-.017-.084l-.052-.055c-.023.017-.038.038-.072.038,0,.035.017.066,0,.1Zm.191,2.223-.017-.035c-.023,0-.038,0-.038-.017l-.017.035h-.119c.032.052.067.087.1.139v.017a.677.677,0,0,0,.072-.122Zm.431-9.6a.132.132,0,0,0-.069-.035c.017.017.017.035.035.052,0,0,.014,0,.032,0Zm.191,4.026a.137.137,0,0,1,.107.052.338.338,0,0,1,.069.107l.084.014c0-.014.017-.014.017-.014a.293.293,0,0,1-.087-.177,1.507,1.507,0,0,1-.142-.052h-.049Zm.049,1.146a.124.124,0,0,1,.017-.1v-.017a.064.064,0,0,0-.017.052c-.014.017-.014.017-.014.035l.032.136a.173.173,0,0,1-.02-.093Zm.489,5.346v-.055h-.052c-.017.02-.052.038-.052.072l.052.052c.016,0,.033-.043.051-.056Zm.072-9.911c-.017-.02-.017-.02-.017-.038Zm.31,1.633.035-.017.017.188h.052a.365.365,0,0,1,.139.017,1.029,1.029,0,0,1-.049-.292.319.319,0,0,1-.124.049H131a.073.073,0,0,0-.019.068Z" transform="translate(174.936 -27.023)" fill="#515151"/><path d="M143.952,407.549a13.827,13.827,0,1,1-13.824-13.823,13.827,13.827,0,0,1,13.824,13.823Z" transform="translate(158.538 -53.379)" fill="#515151"/></g></g></svg>