<svg xmlns="http://www.w3.org/2000/svg" width="192.457" height="103.764" viewBox="0 0 192.457 103.764"><g transform="translate(-6128.321 3273.528)"><path d="M135.262-88.928a20.913,20.913,0,0,0-.6-9.724A20.914,20.914,0,0,0,143.387-103a17.648,17.648,0,0,1-2.347,8.022,17.6,17.6,0,0,1-5.778,6.047m-11.951,11.68a17.524,17.524,0,0,1-8.022,2.347,20.969,20.969,0,0,0,4.348-8.718,20.873,20.873,0,0,0,6.075.919,20.954,20.954,0,0,0,3.652-.33,17.673,17.673,0,0,1-6.052,5.781m-32.566,4.4a20.877,20.877,0,0,0,8.095-5.549,20.872,20.872,0,0,0,8.377,5.653,17.516,17.516,0,0,1-8.125,1.987,17.573,17.573,0,0,1-8.346-2.09m-16.388-4.4a17.632,17.632,0,0,1-6.047-5.781,20.843,20.843,0,0,0,3.646.33,20.764,20.764,0,0,0,6.552-1.065,20.825,20.825,0,0,0,4.4,8.877,17.581,17.581,0,0,1-8.547-2.361M56.631-94.974A17.577,17.577,0,0,1,54.287-103a20.826,20.826,0,0,0,8.726,4.35,20.747,20.747,0,0,0-.6,9.718,17.515,17.515,0,0,1-5.781-6.041m-4.507-32.351a20.835,20.835,0,0,0,5.387,8.12,20.873,20.873,0,0,0-5.387,8.131,17.526,17.526,0,0,1-1.987-8.125,17.518,17.518,0,0,1,1.987-8.126m10.288-22.141a20.819,20.819,0,0,0,.6,9.718,20.825,20.825,0,0,0-8.726,4.351,17.449,17.449,0,0,1,2.344-8.022,17.532,17.532,0,0,1,5.781-6.047m11.945-11.685a17.515,17.515,0,0,1,8.547-2.356,20.836,20.836,0,0,0-4.4,8.872,20.826,20.826,0,0,0-10.193-.741,17.6,17.6,0,0,1,6.041-5.775m32.859-4.507a20.891,20.891,0,0,0-8.383,5.653,20.815,20.815,0,0,0-8.089-5.549,17.632,17.632,0,0,1,8.346-2.085,17.582,17.582,0,0,1,8.125,1.981m22.135,10.283a20.88,20.88,0,0,0-9.715.589,20.947,20.947,0,0,0-4.348-8.712,17.593,17.593,0,0,1,8.022,2.347,17.573,17.573,0,0,1,6.041,5.775M141.04-143.42a17.587,17.587,0,0,1,2.347,8.022,20.858,20.858,0,0,0-8.726-4.351,20.893,20.893,0,0,0,.6-9.718,17.549,17.549,0,0,1,5.778,6.047m-8.212,40.465c-3.412-9.5,3.138-13.189,3.412-13.337a.245.245,0,0,0,.059-.034c.394-.223.76-.481,1.134-.729a17.535,17.535,0,0,1,5.37,8.676c.087.31.137.629.2.945-.212.24-.419.492-.643.721a17.594,17.594,0,0,1-8.994,4.828c-.173-.36-.344-.721-.539-1.07M97.437-97.137a14.684,14.684,0,0,1,1.4-3.294,15.057,15.057,0,0,1,1.414,3.322A17.514,17.514,0,0,1,98.834-84.4a17.525,17.525,0,0,1-1.4-12.739m2.811-44.153a1.715,1.715,0,0,0-.061.377,7.925,7.925,0,0,1-1.347,3.169,8.3,8.3,0,0,1-1.358-3.185,1.132,1.132,0,0,0-.056-.361A17.5,17.5,0,0,1,98.834-154a17.518,17.518,0,0,1,1.414,12.711m7.885,35.888a24.668,24.668,0,0,0,3.423,4.479,18.033,18.033,0,0,1,5.178,12.289,17.542,17.542,0,0,1-8.039-10.6,1.77,1.77,0,0,0-.1-.268,9.347,9.347,0,0,1-.464-5.9M89.41-133.252a17.077,17.077,0,0,0-2.766-4.2,18.484,18.484,0,0,1-5.2-11.979,17.548,17.548,0,0,1,7.533,10.274,18.91,18.91,0,0,1,.43,5.907m19.285-5.912a17.516,17.516,0,0,1,8.039-10.6c-.059,4.325-1.811,8.48-5.228,12.339a23.739,23.739,0,0,0-3.171,4.719,18.561,18.561,0,0,1,.36-6.463M79.647-97.327c-3.367-3.671-10.489-4.152-11.668-4.208a1.044,1.044,0,0,1,.045-.1c3.585-9.785-1.436-15.684-4.77-17.578a.936.936,0,0,0,.129-.092A15.955,15.955,0,0,0,68-136.828a.2.2,0,0,1-.017-.025c1.654.053,14.228.838,20.5,11.8a31.423,31.423,0,0,1-.349,14.463,1.581,1.581,0,0,0-.137.458c-.056.171-.109.338-.17.5l-.048.115a1.385,1.385,0,0,0-.05.162.609.609,0,0,0-.028.1,17.017,17.017,0,0,1-3.568,5.963,23.036,23.036,0,0,0-4.244,6.267c-.084-.1-.159-.2-.246-.3m10.171-5.256a10.876,10.876,0,0,1-.74,3.079,1.524,1.524,0,0,0-.1.268,17.524,17.524,0,0,1-7.522,10.263,18.357,18.357,0,0,1,5.18-11.962,18.883,18.883,0,0,0,2.973-4.191,7.222,7.222,0,0,1,.207,2.543m39.828.944c.017.039.034.067.05.1-1.179.056-8.165.537-11.571,4.11a22.18,22.18,0,0,0-4.1-5.887,20.626,20.626,0,0,1-4.141-6.217c-.017-.028-.028-.061-.045-.092-.156-.377-.3-.76-.436-1.137-.006-.008-.006-.025-.011-.031a38.731,38.731,0,0,1-1.134-9.377,28.872,28.872,0,0,1,.749-4.582c6.2-11.238,18.978-12.046,20.677-12.1a.225.225,0,0,1-.011.025,15.963,15.963,0,0,0,4.61,17.519c.045.039.1.064.137.1-3.339,1.889-8.36,7.793-4.775,17.572m7.787-19.707c-.321-.212-.637-.441-.97-.637a12.412,12.412,0,0,1-3.641-13.443c.2-.355.366-.718.545-1.084a17.521,17.521,0,0,1,8.994,4.823c.224.235.43.481.643.721-.064.316-.115.629-.2.944a17.486,17.486,0,0,1-5.37,8.676m-6.189-30c.1.307.21.606.3.922a17.579,17.579,0,0,1-.31,10.179c-.453-.028-.9-.05-1.35-.05h-.028a30.567,30.567,0,0,0-15.5,4.826,22.266,22.266,0,0,0,5.837-14.513c0-.453-.02-.9-.047-1.352a17.548,17.548,0,0,1,10.176-.31c.313.087.617.2.928.3m-20.386-11.772c.24.218.489.422.718.657a17.506,17.506,0,0,1,4.82,8.966q-.6.3-1.2.637a20.952,20.952,0,0,0-9.827,12.808,21.692,21.692,0,0,0-.383,8.221,27.515,27.515,0,0,1-3.9-3.166,12.334,12.334,0,0,0,2.512-5.535,20.942,20.942,0,0,0-2.146-15.874c-.156-.274-.333-.525-.5-.788a17.54,17.54,0,0,1,8.95-5.723c.316-.084.631-.137.95-.2m-23.63.089c.173.042.355.064.534.114a17.521,17.521,0,0,1,8.955,5.723c-.168.263-.349.514-.509.788a20.939,20.939,0,0,0-2.138,15.874,12.263,12.263,0,0,0,2.5,5.541,26.48,26.48,0,0,1-3.9,3.163,21.576,21.576,0,0,0-.383-8.223,20.927,20.927,0,0,0-9.83-12.808c-.238-.137-.478-.274-.724-.4a17.464,17.464,0,0,1,4.862-9.207c.2-.2.408-.377.623-.567m-21.093,12.6c.081-.316.2-.615.3-.922.3-.1.606-.212.916-.3a17.558,17.558,0,0,1,10.677.5c-.022.383-.034.777-.034,1.162a21.613,21.613,0,0,0,6.133,14.879c.154.162.3.332.447.517A30.354,30.354,0,0,0,67.825-140.3H67.8c-.453,0-.905.022-1.352.05a17.533,17.533,0,0,1-.31-10.179M54.865-130.021c-.084-.316-.137-.629-.2-.944.218-.24.422-.486.651-.721A17.494,17.494,0,0,1,64.3-136.51c.184.36.349.724.55,1.084a12.519,12.519,0,0,1-3.641,13.443c-.338.2-.648.425-.972.637a17.511,17.511,0,0,1-5.373-8.676m5.373,12.968c.372.249.743.506,1.137.729a.4.4,0,0,0,.053.034,9,9,0,0,1,2.976,2.973c1.752,2.805,1.9,6.287.442,10.364-.2.349-.372.71-.545,1.07a17.585,17.585,0,0,1-8.989-4.828c-.229-.229-.433-.481-.651-.721.067-.316.12-.634.2-.945a17.56,17.56,0,0,1,5.373-8.676m6.195,30c-.1-.3-.218-.606-.3-.916a17.553,17.553,0,0,1,.31-10.185c.43.034.875.05,1.316.05,1.92.087,7.248.8,9.352,3.1a2.977,2.977,0,0,1,.847,2.291,1.7,1.7,0,0,0,.3,1.039,20.088,20.088,0,0,0-.268,3.252c0,.391.011.78.034,1.168a17.514,17.514,0,0,1-10.677.494c-.31-.087-.615-.2-.916-.3M87.227-75.365c-.215-.187-.422-.366-.623-.564a17.521,17.521,0,0,1-4.862-9.215c.24-.131.486-.251.724-.394a20.911,20.911,0,0,0,9.8-12.683,12.92,12.92,0,0,0,.668-7.86,12.561,12.561,0,0,1,3.7,2.669A18.821,18.821,0,0,0,94.1-98a20.944,20.944,0,0,0,2.11,16.005c.154.268.335.52.5.788a17.5,17.5,0,0,1-8.955,5.72c-.179.053-.36.075-.534.12m24.348-.564c-.229.229-.478.433-.718.651-.319-.067-.634-.12-.95-.207a17.5,17.5,0,0,1-8.95-5.72c.168-.263.344-.52.5-.788a20.906,20.906,0,0,0,2.118-15.977,18.709,18.709,0,0,0-2.456-5.323c.891-.768,1.939-1.643,2.981-2.47.2-.115.419-.215.637-.319a13.037,13.037,0,0,0,.665,7.86,20.931,20.931,0,0,0,9.8,12.683q.591.344,1.2.637a17.523,17.523,0,0,1-4.82,8.972M131.54-87.966c-.087.31-.2.612-.3.916-.31.1-.615.212-.928.3a17.5,17.5,0,0,1-10.176-.31c.028-.447.047-.894.047-1.353a20.66,20.66,0,0,0-.472-4.378,2.958,2.958,0,0,1,.838-2.2c2.112-2.308,7.438-3.023,9.355-3.1.442,0,.883-.017,1.322-.05a17.6,17.6,0,0,1,.31,10.185m14.01-23.108a21,21,0,0,0-5.387-8.131,20.959,20.959,0,0,0,5.387-8.12,17.582,17.582,0,0,1,1.981,8.126,17.582,17.582,0,0,1-1.981,8.125m5.418-8.125a20.922,20.922,0,0,0-4.289-12.747,20.922,20.922,0,0,0-2.663-13.191,20.932,20.932,0,0,0-10.1-8.885,20.93,20.93,0,0,0-8.885-10.107,20.949,20.949,0,0,0-13.191-2.657,20.911,20.911,0,0,0-12.747-4.295,20.918,20.918,0,0,0-12.831,4.353,20.953,20.953,0,0,0-13.622,2.6,20.957,20.957,0,0,0-8.885,10.106,20.933,20.933,0,0,0-10.1,8.885,20.959,20.959,0,0,0-2.663,13.191A20.9,20.9,0,0,0,46.7-119.2a20.915,20.915,0,0,0,4.289,12.753,20.913,20.913,0,0,0,2.663,13.186,20.921,20.921,0,0,0,10.107,8.886,20.934,20.934,0,0,0,8.88,10.106,20.973,20.973,0,0,0,10.512,2.839,21.593,21.593,0,0,0,3.11-.24,20.905,20.905,0,0,0,12.831,4.353,20.957,20.957,0,0,0,12.747-4.289,21.006,21.006,0,0,0,2.674.176A20.978,20.978,0,0,0,125.03-74.27a20.946,20.946,0,0,0,8.885-10.106,20.906,20.906,0,0,0,10.1-8.886,20.906,20.906,0,0,0,2.663-13.186,20.951,20.951,0,0,0,4.289-12.753" transform="translate(6081.621 -3102.446)" fill="#54682a"/><path d="M115.262-107.481a16.19,16.19,0,0,0-.465-7.528,16.191,16.191,0,0,0,6.756-3.364,13.662,13.662,0,0,1-1.817,6.21,13.626,13.626,0,0,1-4.473,4.681m-9.252,9.042a13.566,13.566,0,0,1-6.21,1.817,16.233,16.233,0,0,0,3.366-6.749,16.159,16.159,0,0,0,4.7.712,16.222,16.222,0,0,0,2.827-.255,13.682,13.682,0,0,1-4.685,4.476M80.8-95.03a16.162,16.162,0,0,0,6.267-4.3A16.158,16.158,0,0,0,93.55-94.95a13.56,13.56,0,0,1-6.29,1.538A13.6,13.6,0,0,1,80.8-95.03M68.112-98.439a13.65,13.65,0,0,1-4.681-4.476,16.136,16.136,0,0,0,2.823.255,16.075,16.075,0,0,0,5.073-.824,16.122,16.122,0,0,0,3.4,6.872,13.611,13.611,0,0,1-6.617-1.828M54.388-112.162a13.608,13.608,0,0,1-1.815-6.215,16.123,16.123,0,0,0,6.756,3.368,16.061,16.061,0,0,0-.465,7.523,13.559,13.559,0,0,1-4.476-4.677M50.9-137.207a16.13,16.13,0,0,0,4.171,6.286,16.159,16.159,0,0,0-4.171,6.295,13.568,13.568,0,0,1-1.538-6.29,13.562,13.562,0,0,1,1.538-6.291m7.965-17.141a16.118,16.118,0,0,0,.465,7.523,16.121,16.121,0,0,0-6.756,3.368,13.508,13.508,0,0,1,1.815-6.21,13.573,13.573,0,0,1,4.476-4.681m9.247-9.046a13.559,13.559,0,0,1,6.617-1.824,16.13,16.13,0,0,0-3.4,6.868,16.122,16.122,0,0,0-7.891-.573,13.625,13.625,0,0,1,4.677-4.471m25.439-3.489a16.173,16.173,0,0,0-6.489,4.376,16.114,16.114,0,0,0-6.262-4.3,13.65,13.65,0,0,1,6.461-1.614,13.611,13.611,0,0,1,6.29,1.534m17.136,7.96a16.164,16.164,0,0,0-7.521.456,16.216,16.216,0,0,0-3.366-6.745,13.62,13.62,0,0,1,6.21,1.817,13.6,13.6,0,0,1,4.677,4.471m9.049,9.256a13.615,13.615,0,0,1,1.817,6.21,16.147,16.147,0,0,0-6.756-3.368,16.175,16.175,0,0,0,.465-7.523,13.586,13.586,0,0,1,4.473,4.681m-6.357,31.327c-2.641-7.355,2.429-10.21,2.641-10.325a.19.19,0,0,0,.045-.026c.305-.173.588-.372.878-.564a13.575,13.575,0,0,1,4.158,6.717c.067.24.106.487.156.731-.164.186-.324.381-.5.558a13.62,13.62,0,0,1-6.963,3.738c-.134-.279-.266-.558-.418-.829m-27.4,4.5a11.368,11.368,0,0,1,1.082-2.55,11.657,11.657,0,0,1,1.095,2.572,13.559,13.559,0,0,1-1.095,9.84,13.567,13.567,0,0,1-1.082-9.862m2.176-34.182a1.329,1.329,0,0,0-.048.292,6.135,6.135,0,0,1-1.043,2.453,6.426,6.426,0,0,1-1.051-2.466.876.876,0,0,0-.043-.279,13.549,13.549,0,0,1,1.09-9.84,13.561,13.561,0,0,1,1.095,9.84m6.1,27.784a19.1,19.1,0,0,0,2.65,3.467,13.96,13.96,0,0,1,4.008,9.514,13.581,13.581,0,0,1-6.223-8.207,1.372,1.372,0,0,0-.076-.208,7.236,7.236,0,0,1-.359-4.566m-14.5-21.56a13.22,13.22,0,0,0-2.142-3.253,14.31,14.31,0,0,1-4.023-9.273,13.585,13.585,0,0,1,5.832,7.954,14.64,14.64,0,0,1,.333,4.573m14.93-4.577a13.56,13.56,0,0,1,6.223-8.2,14.6,14.6,0,0,1-4.047,9.552,18.376,18.376,0,0,0-2.455,3.654,14.369,14.369,0,0,1,.279-5M72.206-113.983c-2.607-2.842-8.12-3.214-9.033-3.258a.808.808,0,0,1,.035-.08c2.775-7.575-1.112-12.142-3.692-13.608a.725.725,0,0,0,.1-.071,12.352,12.352,0,0,0,3.576-13.563.155.155,0,0,1-.013-.019c1.281.041,11.015.649,15.873,9.133a24.327,24.327,0,0,1-.27,11.2,1.223,1.223,0,0,0-.106.355c-.043.132-.084.262-.132.389l-.037.089a1.074,1.074,0,0,0-.039.125.471.471,0,0,0-.022.074,13.174,13.174,0,0,1-2.762,4.616,17.833,17.833,0,0,0-3.286,4.852c-.065-.078-.123-.158-.19-.229m7.874-4.069a8.42,8.42,0,0,1-.573,2.384,1.179,1.179,0,0,0-.076.208,13.566,13.566,0,0,1-5.823,7.945,14.211,14.211,0,0,1,4.01-9.26,14.618,14.618,0,0,0,2.3-3.245,5.591,5.591,0,0,1,.16,1.968m30.834.731c.013.03.026.052.039.08-.913.043-6.321.415-8.958,3.182a17.17,17.17,0,0,0-3.173-4.558,15.968,15.968,0,0,1-3.206-4.813c-.013-.022-.022-.048-.035-.071-.121-.292-.236-.588-.337-.88,0-.006,0-.019-.009-.024a29.985,29.985,0,0,1-.878-7.26,22.351,22.351,0,0,1,.58-3.547c4.8-8.7,14.692-9.325,16.007-9.371a.168.168,0,0,1-.009.019A12.358,12.358,0,0,0,114.5-131c.035.03.074.05.106.076-2.585,1.462-6.472,6.033-3.7,13.6m6.029-15.257c-.249-.164-.493-.342-.751-.493a9.609,9.609,0,0,1-2.819-10.407c.151-.275.283-.556.422-.839a13.564,13.564,0,0,1,6.963,3.734c.173.182.333.372.5.558-.05.244-.089.487-.156.731a13.537,13.537,0,0,1-4.158,6.717m-4.791-23.228c.078.238.162.469.229.714a13.609,13.609,0,0,1-.24,7.88c-.35-.022-.694-.039-1.045-.039h-.022a23.664,23.664,0,0,0-12,3.736,17.237,17.237,0,0,0,4.519-11.236c0-.35-.015-.7-.037-1.047a13.585,13.585,0,0,1,7.878-.24c.242.067.478.151.718.231m-15.782-9.113c.186.169.379.327.556.508a13.553,13.553,0,0,1,3.731,6.942q-.467.234-.926.493a16.22,16.22,0,0,0-7.608,9.916,16.793,16.793,0,0,0-.3,6.364,21.3,21.3,0,0,1-3.018-2.451,9.549,9.549,0,0,0,1.945-4.285,16.213,16.213,0,0,0-1.661-12.289c-.121-.212-.257-.407-.387-.61a13.579,13.579,0,0,1,6.929-4.43c.244-.065.489-.106.735-.158m-18.294.069c.134.032.275.05.413.089a13.565,13.565,0,0,1,6.933,4.43c-.13.2-.27.4-.394.61a16.21,16.21,0,0,0-1.655,12.289,9.493,9.493,0,0,0,1.938,4.29,20.5,20.5,0,0,1-3.015,2.449,16.7,16.7,0,0,0-.3-6.366,16.2,16.2,0,0,0-7.61-9.916c-.184-.106-.37-.212-.56-.307a13.52,13.52,0,0,1,3.764-7.128c.156-.158.316-.292.482-.439m-16.33,9.758c.063-.244.151-.476.231-.714.234-.08.469-.164.71-.231a13.593,13.593,0,0,1,8.265.387c-.017.3-.026.6-.026.9a16.732,16.732,0,0,0,4.748,11.519c.119.126.234.257.346.4a23.5,23.5,0,0,0-12.966-4.419h-.022c-.35,0-.7.017-1.047.039a13.573,13.573,0,0,1-.24-7.88m-8.724,15.8c-.065-.244-.106-.487-.158-.731.169-.186.327-.376.5-.558a13.543,13.543,0,0,1,6.959-3.734c.143.279.27.56.426.839a9.692,9.692,0,0,1-2.819,10.407c-.262.151-.5.329-.753.493a13.556,13.556,0,0,1-4.16-6.717m4.16,10.039c.288.192.575.392.88.564a.309.309,0,0,0,.041.026,6.968,6.968,0,0,1,2.3,2.3c1.356,2.172,1.469,4.867.342,8.023-.156.27-.288.549-.422.828a13.614,13.614,0,0,1-6.959-3.738c-.177-.177-.335-.372-.5-.558.052-.245.093-.491.158-.731a13.594,13.594,0,0,1,4.16-6.717m4.8,23.228c-.08-.236-.169-.469-.231-.709a13.589,13.589,0,0,1,.24-7.885c.333.026.677.039,1.019.039,1.486.067,5.611.616,7.24,2.4a2.3,2.3,0,0,1,.655,1.774,1.315,1.315,0,0,0,.234.8,15.551,15.551,0,0,0-.208,2.518c0,.3.009.6.026.9a13.559,13.559,0,0,1-8.265.383c-.24-.067-.476-.151-.709-.231m16.1,9.046c-.167-.145-.327-.283-.482-.437a13.564,13.564,0,0,1-3.764-7.134c.186-.1.376-.195.56-.305a16.189,16.189,0,0,0,7.584-9.819,10,10,0,0,0,.517-6.085,9.724,9.724,0,0,1,2.864,2.066A14.571,14.571,0,0,0,83.4-114.5a16.214,16.214,0,0,0,1.633,12.391c.119.208.26.4.389.61a13.547,13.547,0,0,1-6.933,4.428c-.138.041-.279.058-.413.093m18.85-.437c-.177.177-.37.335-.556.5-.247-.052-.491-.093-.735-.16A13.544,13.544,0,0,1,88.7-101.5c.13-.2.266-.4.387-.61a16.185,16.185,0,0,0,1.64-12.369,14.483,14.483,0,0,0-1.9-4.121c.69-.595,1.5-1.272,2.308-1.912.156-.089.324-.167.493-.247a10.092,10.092,0,0,0,.515,6.085,16.2,16.2,0,0,0,7.584,9.819q.458.266.926.493a13.566,13.566,0,0,1-3.731,6.946m15.456-9.319c-.067.24-.151.474-.229.709-.24.08-.476.164-.718.231a13.55,13.55,0,0,1-7.878-.24c.022-.346.037-.692.037-1.047a15.994,15.994,0,0,0-.366-3.39,2.29,2.29,0,0,1,.649-1.707c1.635-1.787,5.758-2.341,7.242-2.4.342,0,.684-.013,1.023-.039a13.625,13.625,0,0,1,.24,7.885m10.846-17.889a16.256,16.256,0,0,0-4.171-6.295,16.226,16.226,0,0,0,4.171-6.286,13.611,13.611,0,0,1,1.534,6.291,13.611,13.611,0,0,1-1.534,6.29m4.194-6.29a16.2,16.2,0,0,0-3.32-9.868A16.2,16.2,0,0,0,122.039-151a16.2,16.2,0,0,0-7.82-6.879,16.2,16.2,0,0,0-6.879-7.824,16.218,16.218,0,0,0-10.212-2.057,16.188,16.188,0,0,0-9.868-3.325,16.194,16.194,0,0,0-9.933,3.37A16.221,16.221,0,0,0,66.781-165.7a16.225,16.225,0,0,0-6.879,7.824A16.2,16.2,0,0,0,52.083-151a16.226,16.226,0,0,0-2.062,10.212,16.179,16.179,0,0,0-3.32,9.868,16.192,16.192,0,0,0,3.32,9.873,16.19,16.19,0,0,0,2.062,10.208,16.2,16.2,0,0,0,7.824,6.879,16.207,16.207,0,0,0,6.874,7.824,16.237,16.237,0,0,0,8.138,2.2,16.716,16.716,0,0,0,2.408-.186,16.184,16.184,0,0,0,9.933,3.37,16.224,16.224,0,0,0,9.868-3.32,16.263,16.263,0,0,0,2.07.136,16.24,16.24,0,0,0,8.142-2.2,16.215,16.215,0,0,0,6.879-7.824,16.184,16.184,0,0,0,7.82-6.879,16.185,16.185,0,0,0,2.061-10.208,16.219,16.219,0,0,0,3.32-9.873" transform="translate(6193.357 -3079.012)" fill="#54682a"/></g></svg>