<svg xmlns="http://www.w3.org/2000/svg" width="132.362" height="132.362" viewBox="0 0 132.362 132.362"><g transform="translate(-3576.846 948.714)"><path d="M186.424-150.261A64.8,64.8,0,0,0,121.7-85.534,64.8,64.8,0,0,0,186.424-20.81,64.8,64.8,0,0,0,251.15-85.534a64.8,64.8,0,0,0-64.727-64.727m0,130.907a66.255,66.255,0,0,1-66.18-66.18,66.256,66.256,0,0,1,66.18-66.182,66.257,66.257,0,0,1,66.182,66.182,66.256,66.256,0,0,1-66.182,66.18" transform="translate(3456.602 -796.997)" fill="#fff"/><path d="M172.964-138.045A39.093,39.093,0,0,0,133.915-99a39.092,39.092,0,0,0,39.049,39.049A39.093,39.093,0,0,0,212.013-99a39.094,39.094,0,0,0-39.049-39.049m0,79.1A40.1,40.1,0,0,1,132.912-99a40.1,40.1,0,0,1,40.053-40.053A40.1,40.1,0,0,1,213.017-99a40.1,40.1,0,0,1-40.053,40.052" transform="translate(3470.063 -783.536)" fill="#fff"/><path d="M130.467-118.409a2.368,2.368,0,0,1-2.369,2.369,2.372,2.372,0,0,1-2.372-2.369,2.372,2.372,0,0,1,2.372-2.371,2.368,2.368,0,0,1,2.369,2.371" transform="translate(3462.428 -764.124)" fill="#fff"/><path d="M187.583-87.88a11.632,11.632,0,0,0-.335-5.414,11.646,11.646,0,0,0,4.862-2.423,9.815,9.815,0,0,1-1.308,4.469,9.789,9.789,0,0,1-3.219,3.368m-6.658,6.508a9.785,9.785,0,0,1-4.47,1.308,11.624,11.624,0,0,0,2.424-4.857,11.6,11.6,0,0,0,3.385.512,11.831,11.831,0,0,0,2.031-.183,9.793,9.793,0,0,1-3.37,3.221m-18.14,2.452a11.606,11.606,0,0,0,4.508-3.092,11.621,11.621,0,0,0,4.668,3.151,9.766,9.766,0,0,1-4.527,1.1,9.785,9.785,0,0,1-4.649-1.164m-9.128-2.452a9.787,9.787,0,0,1-3.368-3.221,11.8,11.8,0,0,0,2.029.183A11.613,11.613,0,0,0,155.97-85a11.635,11.635,0,0,0,2.447,4.944,9.782,9.782,0,0,1-4.759-1.315m-9.875-9.876a9.79,9.79,0,0,1-1.308-4.471,11.62,11.62,0,0,0,4.861,2.424A11.618,11.618,0,0,0,147-87.882a9.752,9.752,0,0,1-3.219-3.367m-2.511-18.021a11.623,11.623,0,0,0,3,4.527,11.626,11.626,0,0,0-3,4.527,9.774,9.774,0,0,1-1.1-4.526,9.776,9.776,0,0,1,1.1-4.528M147-121.6a11.639,11.639,0,0,0,.335,5.414,11.627,11.627,0,0,0-4.861,2.424,9.768,9.768,0,0,1,1.308-4.469A9.763,9.763,0,0,1,147-121.6m6.656-6.509a9.781,9.781,0,0,1,4.759-1.314,11.641,11.641,0,0,0-2.447,4.943,11.627,11.627,0,0,0-5.678-.412,9.794,9.794,0,0,1,3.365-3.217m18.3-2.512a11.647,11.647,0,0,0-4.67,3.15,11.629,11.629,0,0,0-4.5-3.091,9.782,9.782,0,0,1,4.647-1.162,9.791,9.791,0,0,1,4.527,1.1m12.331,5.728a11.649,11.649,0,0,0-5.414.329,11.636,11.636,0,0,0-2.423-4.853,9.789,9.789,0,0,1,4.47,1.308,9.784,9.784,0,0,1,3.367,3.216m6.51,6.661a9.808,9.808,0,0,1,1.308,4.469,11.642,11.642,0,0,0-4.861-2.424,11.644,11.644,0,0,0,.334-5.413,9.783,9.783,0,0,1,3.219,3.368m-4.575,22.541c-1.9-5.291,1.748-7.346,1.9-7.428l.033-.018c.219-.126.424-.268.632-.408a9.772,9.772,0,0,1,2.993,4.834c.047.173.076.35.113.526-.119.134-.234.271-.361.4a9.778,9.778,0,0,1-5.01,2.691c-.1-.2-.189-.4-.3-.6M166.512-92.45a8.222,8.222,0,0,1,.78-1.837,8.424,8.424,0,0,1,.786,1.85,9.753,9.753,0,0,1-.786,7.081,9.761,9.761,0,0,1-.78-7.094m1.566-24.6a1.036,1.036,0,0,0-.033.207,4.357,4.357,0,0,1-.75,1.767,4.652,4.652,0,0,1-.757-1.776.638.638,0,0,0-.031-.2,9.758,9.758,0,0,1,.786-7.081,9.754,9.754,0,0,1,.786,7.081m4.394,19.99a13.6,13.6,0,0,0,1.9,2.5,10.043,10.043,0,0,1,2.886,6.846,9.773,9.773,0,0,1-4.479-5.908.909.909,0,0,0-.054-.149,5.209,5.209,0,0,1-.258-3.285m-10.431-15.515a9.454,9.454,0,0,0-1.54-2.339,10.313,10.313,0,0,1-2.894-6.674,9.766,9.766,0,0,1,4.195,5.724,10.37,10.37,0,0,1,.24,3.289m10.743-3.29a9.773,9.773,0,0,1,4.478-5.906,10.483,10.483,0,0,1-2.912,6.875,13.266,13.266,0,0,0-1.765,2.629,10.38,10.38,0,0,1,.2-3.6m-16.18,23.3c-1.876-2.044-5.842-2.312-6.5-2.344.007-.018.019-.036.025-.055,2-5.45-.8-8.739-2.657-9.792.024-.017.051-.033.074-.053a8.887,8.887,0,0,0,2.571-9.758c0-.005-.006-.009-.007-.015.92.031,7.923.469,11.419,6.572a17.466,17.466,0,0,1-.193,8.054.912.912,0,0,0-.076.258c-.03.094-.063.186-.1.279-.008.021-.018.041-.027.062s-.02.062-.028.093a.251.251,0,0,0-.014.05,9.457,9.457,0,0,1-1.989,3.322,12.858,12.858,0,0,0-2.363,3.49c-.047-.055-.089-.11-.138-.164m5.665-2.926a5.937,5.937,0,0,1-.412,1.713.919.919,0,0,0-.056.149,9.767,9.767,0,0,1-4.188,5.72,10.223,10.223,0,0,1,2.883-6.664,10.573,10.573,0,0,0,1.66-2.337,4.14,4.14,0,0,1,.112,1.42m22.188.526c.007.02.017.037.026.055-.655.031-4.548.3-6.443,2.291a12.456,12.456,0,0,0-2.284-3.279,11.454,11.454,0,0,1-2.308-3.464c-.007-.016-.014-.033-.023-.051q-.132-.317-.246-.634c0-.005,0-.012,0-.017a21.468,21.468,0,0,1-.634-5.224,15.66,15.66,0,0,1,.418-2.551c3.456-6.261,10.574-6.712,11.517-6.743,0,0,0,.009-.005.014a8.882,8.882,0,0,0,2.569,9.758c.024.02.049.036.075.055-1.86,1.053-4.658,4.342-2.659,9.79m4.336-10.979c-.179-.119-.354-.244-.541-.355a6.916,6.916,0,0,1-2.028-7.487c.111-.2.206-.4.306-.605a9.76,9.76,0,0,1,5.008,2.689c.127.128.242.266.361.4-.037.175-.066.351-.113.525a9.752,9.752,0,0,1-2.993,4.833m-3.448-16.715c.055.172.116.339.164.514a9.768,9.768,0,0,1-.173,5.67c-.25-.015-.5-.026-.75-.026h-.016a17.017,17.017,0,0,0-8.635,2.686,12.4,12.4,0,0,0,3.25-8.083c0-.252-.01-.5-.025-.754a9.77,9.77,0,0,1,5.669-.172c.175.047.343.108.516.164m-11.355-6.556c.134.121.271.234.4.363a9.758,9.758,0,0,1,2.685,5c-.225.111-.448.228-.667.354a11.679,11.679,0,0,0-5.475,7.135,12.1,12.1,0,0,0-.21,4.58,14.91,14.91,0,0,1-2.171-1.764,6.87,6.87,0,0,0,1.4-3.081,11.671,11.671,0,0,0-1.194-8.844c-.088-.151-.188-.29-.282-.437a9.77,9.77,0,0,1,4.989-3.189c.175-.047.352-.077.528-.113m-13.165.049c.1.023.2.038.3.064a9.755,9.755,0,0,1,4.988,3.188c-.094.146-.194.286-.281.437a11.663,11.663,0,0,0-1.193,8.844,6.85,6.85,0,0,0,1.4,3.084,14.779,14.779,0,0,1-2.173,1.764,12.053,12.053,0,0,0-.21-4.582,11.672,11.672,0,0,0-5.475-7.136c-.134-.076-.268-.149-.405-.221a9.754,9.754,0,0,1,2.709-5.13c.111-.111.229-.209.346-.314m-11.749,7.02c.047-.175.11-.343.167-.514.169-.056.337-.118.512-.164a9.756,9.756,0,0,1,5.946.279c-.012.215-.019.43-.019.647A12.039,12.039,0,0,0,159.1-113.6c.084.09.167.186.25.288a16.9,16.9,0,0,0-9.331-3.18h-.012c-.257,0-.509.011-.757.026a9.768,9.768,0,0,1-.173-5.67M142.8-110.77c-.047-.175-.076-.351-.113-.525.121-.135.234-.272.362-.4a9.758,9.758,0,0,1,5.008-2.689c.1.2.193.406.307.6a6.976,6.976,0,0,1-2.029,7.489c-.188.111-.362.236-.542.355a9.762,9.762,0,0,1-2.993-4.833m2.993,7.223c.208.14.414.282.633.408l.033.018a5.053,5.053,0,0,1,1.655,1.656,6.421,6.421,0,0,1,.244,5.772c-.111.195-.2.4-.3.6a9.787,9.787,0,0,1-5.008-2.691c-.128-.128-.242-.266-.362-.4.037-.176.067-.353.113-.526a9.773,9.773,0,0,1,2.993-4.834m3.451,16.716c-.057-.17-.119-.338-.167-.514a9.771,9.771,0,0,1,.173-5.671c.242.016.486.027.732.027,1.07.047,4.038.445,5.211,1.729a1.672,1.672,0,0,1,.472,1.276.947.947,0,0,0,.166.58,11.431,11.431,0,0,0-.149,1.813c0,.216.007.433.019.648a9.756,9.756,0,0,1-5.946.277c-.175-.047-.343-.108-.512-.164m11.583,6.507c-.117-.1-.235-.2-.346-.314a9.76,9.76,0,0,1-2.71-5.135c.137-.071.273-.14.407-.216a11.671,11.671,0,0,0,5.457-7.067A7.231,7.231,0,0,0,164-97.433a7.005,7.005,0,0,1,2.061,1.486,10.408,10.408,0,0,0-1.409,3.015,11.667,11.667,0,0,0,1.175,8.916c.087.151.188.29.28.437a9.744,9.744,0,0,1-4.988,3.188c-.1.027-.2.042-.3.065m13.565-.314c-.128.129-.266.242-.4.364-.176-.038-.354-.068-.528-.116a9.752,9.752,0,0,1-4.989-3.188c.094-.146.194-.285.282-.437a11.655,11.655,0,0,0,1.178-8.9,10.45,10.45,0,0,0-1.369-2.964c.5-.429,1.082-.915,1.66-1.378.114-.063.236-.117.357-.175a7.231,7.231,0,0,0,.371,4.377,11.666,11.666,0,0,0,5.456,7.067c.218.125.442.244.667.356a9.774,9.774,0,0,1-2.685,5m11.12-6.707c-.048.175-.109.343-.164.514-.172.057-.341.118-.516.164a9.769,9.769,0,0,1-5.669-.171c.015-.25.025-.5.025-.755a11.49,11.49,0,0,0-.264-2.439,1.667,1.667,0,0,1,.47-1.229c1.177-1.284,4.144-1.683,5.21-1.729.246,0,.492-.011.735-.027a9.771,9.771,0,0,1,.173,5.671m7.8-12.869a11.62,11.62,0,0,0-3-4.53,11.6,11.6,0,0,0,3-4.526,9.787,9.787,0,0,1,1.1,4.529,9.788,9.788,0,0,1-1.1,4.527m3.02-4.527a11.664,11.664,0,0,0-2.39-7.1,11.654,11.654,0,0,0-1.482-7.346,11.646,11.646,0,0,0-5.629-4.949,11.644,11.644,0,0,0-4.949-5.63,11.657,11.657,0,0,0-7.346-1.481,11.66,11.66,0,0,0-7.1-2.391,11.664,11.664,0,0,0-7.148,2.424,11.662,11.662,0,0,0-7.587,1.448,11.662,11.662,0,0,0-4.949,5.63,11.661,11.661,0,0,0-5.63,4.949,11.677,11.677,0,0,0-1.482,7.346,11.665,11.665,0,0,0-2.39,7.1,11.664,11.664,0,0,0,2.39,7.1,11.669,11.669,0,0,0,1.482,7.346,11.652,11.652,0,0,0,5.631,4.949,11.66,11.66,0,0,0,4.947,5.63,11.687,11.687,0,0,0,5.856,1.58,11.638,11.638,0,0,0,1.73-.134,11.661,11.661,0,0,0,7.149,2.426,11.659,11.659,0,0,0,7.1-2.39,11.685,11.685,0,0,0,1.492.1,11.68,11.68,0,0,0,5.857-1.58,11.659,11.659,0,0,0,4.949-5.63,11.642,11.642,0,0,0,5.629-4.949,11.651,11.651,0,0,0,1.482-7.346,11.663,11.663,0,0,0,2.39-7.1" transform="translate(3475.735 -777.792)" fill="#fff"/><path d="M132.421-129.854a2.3,2.3,0,0,0-3.091.932l-.947,2.195,4.537,1.956.946-2.194a2.3,2.3,0,0,0-1.445-2.889m2.591,3.352-.957,2.219,2.44,1.052-.59,1.368-9.246-3.985,1.546-3.587a3.63,3.63,0,0,1,4.805-1.788,3.639,3.639,0,0,1,2,4.721" transform="translate(3463.421 -775.556)" fill="#fff"/><path d="M136.951-133.16l-4.3-1.19,2.325,3.8Zm1.278.357-2.554,3.386,1.292,2.1-.946,1.254-5.548-9.362.55-.728,10.524,2.76-.944,1.253Z" transform="translate(3467.471 -780.458)" fill="#fff"/><path d="M145.716-135.739l-5.153,4.061-6.228-7.9,1.17-.922,5.463,6.934,3.985-3.139Z" transform="translate(3471.576 -785.083)" fill="#fff"/><path d="M141.754-138.212a3.723,3.723,0,0,0,4.873,2.079,3.714,3.714,0,0,0,1.762-5,3.733,3.733,0,0,0-4.874-2.079,3.732,3.732,0,0,0-1.761,5m8-3.518A5.041,5.041,0,0,1,147.124-135a5.043,5.043,0,0,1-6.735-2.61,5.044,5.044,0,0,1,2.629-6.728,5.042,5.042,0,0,1,6.733,2.61" transform="translate(3477.531 -789.636)" fill="#fff"/><path d="M159.4-139.111c-.121,1.943-1.977,2.607-3.786,2.507a5.183,5.183,0,0,1-3.626-1.825l1.054-.93a3.734,3.734,0,0,0,2.649,1.523c1.166.06,2.155-.283,2.217-1.273.054-.87-.847-1.291-2.386-2.058-1.265-.63-2.778-1.385-2.673-3.084.084-1.34,1.443-2.654,3.533-2.523a4.68,4.68,0,0,1,3.488,1.844l-1.051.89a3.857,3.857,0,0,0-2.689-1.513,1.511,1.511,0,0,0-1.785,1.261c-.076,1.2,1.29,1.734,2.31,2.214,1.357.636,2.841,1.441,2.745,2.967" transform="translate(3490.328 -791.755)" fill="#fff"/><path d="M164.45-138.563l-.21-4.453-2.888,3.4Zm.058,1.324-4.012-1.369-1.591,1.882-1.487-.506,7.16-8.191.864.295.664,10.859-1.486-.506Z" transform="translate(3496.103 -790.311)" fill="#fff"/><path d="M169.079-130.863l.186-9.659-4.6,6.56-1.221-.856,5.783-8.241,1.461,1.025-.173,9.667,4.6-6.56,1.221.855-5.783,8.242Z" transform="translate(3502.505 -787.798)" fill="#fff"/><path d="M177.151-133.91l-6.836,5.592-.943-1.153,6.835-5.592-1.971-2.409.957-.783,4.885,5.973-.956.783Z" transform="translate(3508.804 -782.693)" fill="#fff"/><path d="M176.046-130.4a3.725,3.725,0,0,0-2.029,4.9,3.716,3.716,0,0,0,5.016,1.711,3.733,3.733,0,0,0,2.031-4.895,3.734,3.734,0,0,0-5.017-1.711m3.6,7.964A5.042,5.042,0,0,1,172.891-125a5.042,5.042,0,0,1,2.542-6.762,5.043,5.043,0,0,1,6.755,2.561,5.041,5.041,0,0,1-2.542,6.761" transform="translate(3512.043 -776.289)" fill="#fff"/><path d="M131.294-108.93a.84.84,0,0,0,1.111.349.812.812,0,0,0,.581-1.011l-.565-1.512-1.7.636Zm-1.594,1.762a1.184,1.184,0,0,0,.843-1.364l-.613-1.642-2.374.888.6,1.6a1.168,1.168,0,0,0,1.546.52m.358.954a2.082,2.082,0,0,1-2.694-1.178l-.955-2.553,6.448-2.412.955,2.554a1.711,1.711,0,0,1-1.049,2.175,1.578,1.578,0,0,1-1.41-.129,2,2,0,0,1-1.294,1.543" transform="translate(3463.153 -755.174)" fill="#fff"/><path d="M131.819-104.546a1.488,1.488,0,0,0,2.086.474,1.494,1.494,0,0,0,.711-2.016l-.793-1.439-2.8,1.541Zm-.114,1.163-1.2,2.349-.562-1.021,1.1-2.147-.759-1.375-1.753.966-.491-.891,6.028-3.325,1.29,2.338a2.417,2.417,0,0,1-.963,3.31,2.41,2.41,0,0,1-2.692-.2" transform="translate(3464.889 -751.424)" fill="#fff"/><path d="M133.442-97.417l-3.037-3.66,5.3-4.4,2.927,3.526-.65.538-2.275-2.74-1.567,1.3,1.858,2.239-.657.546-1.858-2.24-1.774,1.472,2.387,2.876Z" transform="translate(3467.399 -747.862)" fill="#fff"/><path d="M136.612-102.74l.829.7-1.871,4.771,4.454-2.6.4.337-1.8,4.832,4.381-2.657.836.7-6.306,3.688-.4-.337,1.655-4.69-4.336,2.432-.4-.338Z" transform="translate(3471.276 -744.955)" fill="#fff"/><path d="M138.341-93.181l3.549-5.9.874.524-3.549,5.9Z" transform="translate(3475.832 -741.07)" fill="#fff"/><path d="M144.914-89.871l-1.288-6.48L141.511-91.3l-.939-.394,2.658-6.35,1.126.472,1.3,6.482,2.116-5.054.941.394-2.659,6.35Z" transform="translate(3478.202 -739.961)" fill="#fff"/><path d="M151.569-88.713l-1-.2.223-1.136a2.53,2.53,0,0,1-2.574.721,3.3,3.3,0,0,1-2.581-4.062,3.3,3.3,0,0,1,3.923-2.785,3.344,3.344,0,0,1,2.3,1.528l-.787.528a2.56,2.56,0,0,0-1.676-1.228c-1.407-.277-2.448.6-2.753,2.155a2.431,2.431,0,0,0,1.823,3.052,2.142,2.142,0,0,0,2.679-1.729l-1.748-.343.163-.829,2.748.539Z" transform="translate(3483.501 -738.047)" fill="#fff"/><path d="M157.589-88.993a3.469,3.469,0,0,1-3.877-3.059,3.468,3.468,0,0,1,3.068-3.869,3.1,3.1,0,0,1,2.586.936l-.547.692a2.433,2.433,0,0,0-2.032-.779,2.568,2.568,0,0,0-2.064,2.9,2.566,2.566,0,0,0,2.676,2.349,2.285,2.285,0,0,0,1.8-1.227l.692.549a2.928,2.928,0,0,1-2.3,1.506" transform="translate(3492.139 -737.732)" fill="#fff"/><path d="M159.125-92.663a2.548,2.548,0,0,0,3.155,1.787,2.542,2.542,0,0,0,1.579-3.261,2.554,2.554,0,0,0-3.154-1.787,2.554,2.554,0,0,0-1.58,3.261m5.708-1.778a3.45,3.45,0,0,1-2.3,4.372,3.448,3.448,0,0,1-4.379-2.289,3.449,3.449,0,0,1,2.3-4.372,3.451,3.451,0,0,1,4.379,2.29" transform="translate(3496.707 -738.747)" fill="#fff"/><path d="M172.344-93.638l-.894.49-2.481-4.535.155,5.809-.507.277-4.809-3.26,2.481,4.535-.894.489-3.307-6.039,1.161-.634,4.867,3.4-.245-5.935,1.168-.64Z" transform="translate(3501.064 -741.701)" fill="#fff"/><path d="M171.463-100.05a1.574,1.574,0,0,0-2.168-.42l-1.273,1.027,2.126,2.628,1.269-1.027a1.572,1.572,0,0,0,.046-2.208m.5,2.854-1.286,1.04,1.142,1.412-.793.643L166.7-99.458l2.08-1.68a2.482,2.482,0,0,1,3.477.447,2.488,2.488,0,0,1-.292,3.495" transform="translate(3505.965 -743.806)" fill="#fff"/><path d="M174.431-101.512,171.58-102.6l1.342,2.738Zm.847.325-1.954,2.143.744,1.512-.723.795-3.182-6.729.421-.461,6.992,2.55-.723.794Z" transform="translate(3509.646 -746.219)" fill="#fff"/><path d="M180.4-103.91l-6.6.359,4.708,2.811-.522.875-5.913-3.531.626-1.048,6.6-.367-4.709-2.812.523-.874,5.913,3.53Z" transform="translate(3511.67 -751.073)" fill="#fff"/><path d="M179.316-108.59l2.554.985-.367.951-2.554-.985-4.826.98.437-1.129,3.7-.66-2.293-2.98.436-1.131Z" transform="translate(3513.853 -755.39)" fill="#fff"/><path d="M181.376-118.409a2.368,2.368,0,0,1-2.369,2.369,2.371,2.371,0,0,1-2.372-2.369,2.371,2.371,0,0,1,2.372-2.371,2.368,2.368,0,0,1,2.369,2.371" transform="translate(3516.522 -764.124)" fill="#fff"/></g></svg>