<svg xmlns="http://www.w3.org/2000/svg" width="116.856" height="116.855" viewBox="0 0 116.856 116.855"><g transform="translate(-6817.697 -380.958)"><path d="M175.6-78.374a58.427,58.427,0,0,1-58.429,58.427A58.426,58.426,0,0,1,58.746-78.374,58.427,58.427,0,0,1,117.172-136.8,58.428,58.428,0,0,1,175.6-78.374" transform="translate(6758.952 517.76)" fill="#54682a" fill-rule="evenodd"/><path d="M106.84-123.565A34.9,34.9,0,0,0,71.982-88.708,34.9,34.9,0,0,0,106.84-53.852,34.9,34.9,0,0,0,141.7-88.708a34.9,34.9,0,0,0-34.857-34.858m0,70.61A35.793,35.793,0,0,1,71.087-88.708a35.794,35.794,0,0,1,35.753-35.753,35.794,35.794,0,0,1,35.753,35.753A35.793,35.793,0,0,1,106.84-52.956" transform="translate(6769.286 528.093)" fill="#fff"/><path d="M68.118-104.037A2.115,2.115,0,0,1,66-101.923a2.117,2.117,0,0,1-2.117-2.114A2.117,2.117,0,0,1,66-106.153a2.115,2.115,0,0,1,2.116,2.116" transform="translate(6763.255 543.423)" fill="#fff"/><path d="M120.474-78.193a10.379,10.379,0,0,0-.3-4.833,10.4,10.4,0,0,0,4.339-2.162,8.73,8.73,0,0,1-1.166,3.989,8.751,8.751,0,0,1-2.873,3.007m-5.944,5.81a8.757,8.757,0,0,1-3.99,1.167,10.389,10.389,0,0,0,2.164-4.336,10.328,10.328,0,0,0,3.022.457,10.582,10.582,0,0,0,1.812-.163,8.75,8.75,0,0,1-3.009,2.875M98.338-70.2a10.366,10.366,0,0,0,4.023-2.76,10.381,10.381,0,0,0,4.168,2.812,8.723,8.723,0,0,1-4.042.986,8.728,8.728,0,0,1-4.15-1.038M90.19-72.384a8.746,8.746,0,0,1-3.007-2.875A10.563,10.563,0,0,0,89-75.1a10.377,10.377,0,0,0,3.258-.528,10.4,10.4,0,0,0,2.185,4.413,8.733,8.733,0,0,1-4.248-1.173M81.374-81.2a8.748,8.748,0,0,1-1.168-3.99,10.4,10.4,0,0,0,4.339,2.164,10.375,10.375,0,0,0-.3,4.832A8.717,8.717,0,0,1,81.374-81.2M79.132-97.286a10.387,10.387,0,0,0,2.68,4.041,10.366,10.366,0,0,0-2.68,4.042,8.741,8.741,0,0,1-.986-4.041,8.735,8.735,0,0,1,.986-4.042M84.248-108.3a10.394,10.394,0,0,0,.3,4.833,10.386,10.386,0,0,0-4.339,2.164,8.723,8.723,0,0,1,1.168-3.989,8.735,8.735,0,0,1,2.873-3.007M90.19-114.1a8.719,8.719,0,0,1,4.248-1.173,10.386,10.386,0,0,0-2.185,4.411,10.366,10.366,0,0,0-5.067-.367,8.713,8.713,0,0,1,3-2.871m16.34-2.243a10.38,10.38,0,0,0-4.169,2.812,10.393,10.393,0,0,0-4.021-2.759,8.735,8.735,0,0,1,4.148-1.038,8.747,8.747,0,0,1,4.042.985m11.006,5.113a10.391,10.391,0,0,0-4.832.293,10.408,10.408,0,0,0-2.164-4.332,8.748,8.748,0,0,1,3.99,1.169,8.728,8.728,0,0,1,3.006,2.871m5.811,5.946a8.719,8.719,0,0,1,1.166,3.989,10.388,10.388,0,0,0-4.338-2.164,10.392,10.392,0,0,0,.3-4.832,8.733,8.733,0,0,1,2.873,3.007m-4.084,20.122c-1.695-4.724,1.56-6.557,1.7-6.631.011-.005.019-.012.029-.017.2-.113.379-.239.565-.364a8.727,8.727,0,0,1,2.672,4.315c.042.154.067.312.1.47-.107.119-.209.242-.323.356a8.724,8.724,0,0,1-4.47,2.4c-.088-.178-.169-.357-.268-.531m-17.6,2.894a7.374,7.374,0,0,1,.7-1.64,7.563,7.563,0,0,1,.7,1.652,8.712,8.712,0,0,1-.7,6.321,8.712,8.712,0,0,1-.7-6.333m1.4-21.956a.834.834,0,0,0-.029.184,3.911,3.911,0,0,1-.67,1.578,4.118,4.118,0,0,1-.676-1.586.589.589,0,0,0-.028-.176,8.7,8.7,0,0,1,.7-6.32,8.709,8.709,0,0,1,.7,6.32m3.922,17.844a12.127,12.127,0,0,0,1.7,2.227,8.965,8.965,0,0,1,2.576,6.111,8.715,8.715,0,0,1-4-5.273.7.7,0,0,0-.049-.133,4.666,4.666,0,0,1-.229-2.932m-9.312-13.849a8.452,8.452,0,0,0-1.375-2.088,9.2,9.2,0,0,1-2.584-5.957,8.722,8.722,0,0,1,3.744,5.109,9.283,9.283,0,0,1,.214,2.936m9.59-2.937a8.717,8.717,0,0,1,4-5.272,9.36,9.36,0,0,1-2.6,6.137,11.879,11.879,0,0,0-1.575,2.347,9.27,9.27,0,0,1,.178-3.212M92.819-82.37c-1.674-1.825-5.214-2.064-5.8-2.092.007-.018.016-.033.024-.051,1.783-4.865-.715-7.8-2.374-8.74a.755.755,0,0,0,.067-.048,7.93,7.93,0,0,0,2.294-8.711.1.1,0,0,0-.006-.012c.821.028,7.073.417,10.193,5.867a15.6,15.6,0,0,1-.172,7.189.863.863,0,0,0-.068.23c-.025.085-.054.167-.084.251-.008.018-.017.036-.024.054s-.017.056-.027.084a.394.394,0,0,0-.012.044,8.472,8.472,0,0,1-1.775,2.967,11.443,11.443,0,0,0-2.11,3.115c-.041-.048-.08-.1-.123-.147m5.057-2.611a5.288,5.288,0,0,1-.368,1.528.928.928,0,0,0-.049.133,8.719,8.719,0,0,1-3.738,5.106,9.117,9.117,0,0,1,2.573-5.949,9.448,9.448,0,0,0,1.482-2.086,3.712,3.712,0,0,1,.1,1.268m19.807.469c.006.018.016.033.023.051-.585.027-4.06.266-5.752,2.044a11.123,11.123,0,0,0-2.038-2.928,10.219,10.219,0,0,1-2.061-3.092c-.007-.015-.013-.03-.02-.045-.08-.189-.152-.377-.22-.567a.106.106,0,0,1,0-.014,19.171,19.171,0,0,1-.567-4.663A14.093,14.093,0,0,1,107.42-96c3.085-5.589,9.439-5.99,10.281-6.019l-.005.012A7.929,7.929,0,0,0,119.99-93.3c.021.019.045.032.066.049-1.659.94-4.157,3.875-2.373,8.739m3.871-9.8c-.16-.106-.316-.218-.484-.317a6.174,6.174,0,0,1-1.81-6.684c.1-.177.184-.36.274-.541a8.71,8.71,0,0,1,4.469,2.4c.115.113.216.237.323.356-.033.156-.058.313-.1.469a8.718,8.718,0,0,1-2.672,4.314m-3.078-14.92c.05.152.1.3.148.459a8.72,8.72,0,0,1-.156,5.062c-.222-.014-.445-.024-.67-.024h-.013a15.192,15.192,0,0,0-7.708,2.4,11.072,11.072,0,0,0,2.9-7.215c0-.226-.01-.45-.024-.673a8.726,8.726,0,0,1,5.061-.155c.156.043.307.1.46.148m-10.137-5.853c.12.108.242.21.357.324a8.72,8.72,0,0,1,2.4,4.461c-.2.1-.4.2-.6.316a10.42,10.42,0,0,0-4.887,6.369,10.748,10.748,0,0,0-.188,4.087,13.291,13.291,0,0,1-1.939-1.574,6.124,6.124,0,0,0,1.247-2.75,10.416,10.416,0,0,0-1.066-7.9c-.078-.134-.167-.259-.25-.39a8.7,8.7,0,0,1,4.453-2.846c.156-.042.314-.069.471-.1m-11.752.045c.088.021.178.034.268.058a8.7,8.7,0,0,1,4.452,2.845c-.083.131-.173.255-.251.39a10.418,10.418,0,0,0-1.065,7.9,6.127,6.127,0,0,0,1.248,2.753A13.191,13.191,0,0,1,99.3-99.525a10.754,10.754,0,0,0-.187-4.089,10.419,10.419,0,0,0-4.888-6.37c-.12-.069-.24-.133-.362-.2a8.718,8.718,0,0,1,2.418-4.58c.1-.1.205-.187.308-.279M86.1-108.773c.041-.156.1-.307.147-.459.152-.05.3-.106.458-.148a8.714,8.714,0,0,1,5.308.25c-.011.192-.017.385-.017.578a10.748,10.748,0,0,0,3.051,7.4c.075.08.15.167.223.257a15.086,15.086,0,0,0-8.329-2.839h-.015c-.225,0-.45.01-.673.024a8.709,8.709,0,0,1-.154-5.062M80.5-98.626c-.041-.156-.067-.313-.1-.469.107-.12.209-.243.323-.356a8.715,8.715,0,0,1,4.471-2.4c.09.181.172.363.273.539a6.223,6.223,0,0,1-1.812,6.685c-.167.1-.323.211-.484.317A8.727,8.727,0,0,1,80.5-98.626m2.672,6.448c.186.125.369.251.565.364l.029.017A4.478,4.478,0,0,1,85.24-90.32a5.734,5.734,0,0,1,.217,5.154c-.1.174-.181.353-.268.531a8.726,8.726,0,0,1-4.471-2.4c-.114-.115-.216-.238-.323-.356.033-.158.059-.316.1-.47a8.732,8.732,0,0,1,2.672-4.315m3.08,14.921c-.05-.152-.106-.3-.147-.46a8.708,8.708,0,0,1,.154-5.061c.216.014.435.023.654.023.955.043,3.6.4,4.652,1.543a1.494,1.494,0,0,1,.421,1.139.832.832,0,0,0,.149.517A10.077,10.077,0,0,0,92-77.937c0,.193.006.387.017.579a8.714,8.714,0,0,1-5.308.248c-.156-.042-.305-.1-.458-.147m10.34,5.808c-.1-.093-.209-.181-.308-.279a8.72,8.72,0,0,1-2.419-4.584c.122-.064.243-.125.363-.193a10.42,10.42,0,0,0,4.871-6.307,6.451,6.451,0,0,0,.331-3.908,6.23,6.23,0,0,1,1.839,1.327,9.317,9.317,0,0,0-1.257,2.691,10.416,10.416,0,0,0,1.049,7.959c.078.135.167.26.251.39a8.7,8.7,0,0,1-4.453,2.845c-.09.025-.18.038-.268.06m12.109-.279c-.115.113-.237.215-.357.324-.157-.033-.315-.061-.471-.1a8.685,8.685,0,0,1-4.453-2.845c.083-.13.172-.255.25-.39a10.4,10.4,0,0,0,1.053-7.945,9.383,9.383,0,0,0-1.222-2.646c.443-.383.965-.816,1.482-1.229.1-.057.21-.1.318-.157a6.448,6.448,0,0,0,.332,3.908,10.416,10.416,0,0,0,4.87,6.307c.2.112.395.217.6.318a8.721,8.721,0,0,1-2.4,4.46m9.927-5.988c-.043.158-.1.307-.148.46-.153.049-.3.105-.46.147a8.725,8.725,0,0,1-5.061-.153c.014-.224.024-.447.024-.675a10.243,10.243,0,0,0-.237-2.177,1.5,1.5,0,0,1,.419-1.1c1.051-1.146,3.7-1.5,4.653-1.543.218,0,.437-.009.654-.023a8.718,8.718,0,0,1,.156,5.061M125.59-89.2a10.38,10.38,0,0,0-2.68-4.043,10.355,10.355,0,0,0,2.679-4.04,8.727,8.727,0,0,1,.985,4.042,8.747,8.747,0,0,1-.984,4.041m2.7-4.041a10.409,10.409,0,0,0-2.134-6.342,10.406,10.406,0,0,0-1.323-6.557,10.4,10.4,0,0,0-5.025-4.417,10.406,10.406,0,0,0-4.418-5.026,10.4,10.4,0,0,0-6.558-1.322,10.4,10.4,0,0,0-6.34-2.134,10.4,10.4,0,0,0-6.379,2.164,10.407,10.407,0,0,0-6.773,1.292,10.408,10.408,0,0,0-4.417,5.026,10.4,10.4,0,0,0-5.025,4.417,10.42,10.42,0,0,0-1.322,6.559,10.4,10.4,0,0,0-2.134,6.34A10.407,10.407,0,0,0,78.571-86.9a10.4,10.4,0,0,0,1.322,6.557,10.386,10.386,0,0,0,5.027,4.418A10.4,10.4,0,0,0,89.335-70.9a10.434,10.434,0,0,0,5.227,1.412,10.394,10.394,0,0,0,1.543-.121,10.413,10.413,0,0,0,6.382,2.165,10.418,10.418,0,0,0,6.338-2.132,10.434,10.434,0,0,0,1.332.088,10.425,10.425,0,0,0,5.227-1.412,10.416,10.416,0,0,0,4.418-5.026,10.384,10.384,0,0,0,5.025-4.418,10.4,10.4,0,0,0,1.323-6.557,10.407,10.407,0,0,0,2.134-6.341" transform="translate(6773.764 532.63)" fill="#fff"/><path d="M69.966-115.432a2.054,2.054,0,0,0-2.76.833l-.845,1.959,4.05,1.745.844-1.958a2.054,2.054,0,0,0-1.29-2.579m2.312,2.993-.854,1.981,2.178.939-.526,1.221-8.254-3.558,1.381-3.2a3.241,3.241,0,0,1,4.29-1.6,3.248,3.248,0,0,1,1.785,4.214" transform="translate(6764.04 534.395)" fill="#fff"/><path d="M74.425-118.887,70.59-119.95l2.075,3.4Zm1.141.32-2.282,3.022,1.154,1.874-.845,1.119-4.952-8.356.489-.65,9.4,2.464-.843,1.119Z" transform="translate(6767.237 530.524)" fill="#fff"/><path d="M82.673-121.666l-4.6,3.625L72.513-125.1l1.044-.823,4.877,6.191,3.556-2.8Z" transform="translate(6770.479 526.872)" fill="#fff"/><path d="M79.75-124.342a3.324,3.324,0,0,0,4.35,1.856,3.318,3.318,0,0,0,1.572-4.461,3.331,3.331,0,0,0-4.351-1.856,3.33,3.33,0,0,0-1.571,4.461m7.139-3.14a4.5,4.5,0,0,1-2.345,6.005,4.5,4.5,0,0,1-6.012-2.33,4.5,4.5,0,0,1,2.346-6.005,4.5,4.5,0,0,1,6.011,2.329" transform="translate(6775.183 523.277)" fill="#fff"/><path d="M96.814-125.363c-.107,1.734-1.765,2.327-3.38,2.238a4.623,4.623,0,0,1-3.235-1.63l.94-.83a3.335,3.335,0,0,0,2.365,1.36c1.04.052,1.923-.253,1.978-1.138.049-.777-.756-1.151-2.13-1.837-1.129-.563-2.48-1.235-2.385-2.753A2.738,2.738,0,0,1,94.12-132.2a4.179,4.179,0,0,1,3.113,1.646l-.937.794a3.441,3.441,0,0,0-2.4-1.35,1.35,1.35,0,0,0-1.593,1.126c-.067,1.075,1.152,1.547,2.061,1.976,1.213.568,2.536,1.286,2.451,2.649" transform="translate(6785.288 521.603)" fill="#fff"/><path d="M101.922-124.726l-.188-3.975-2.578,3.031Zm.053,1.182-3.582-1.222-1.421,1.679-1.327-.452,6.392-7.312.771.263.592,9.694-1.327-.453Z" transform="translate(6789.848 522.743)" fill="#fff"/><path d="M106.714-117.593l.166-8.622-4.108,5.856-1.089-.764,5.161-7.357,1.3.915-.155,8.629,4.109-5.856,1.088.764-5.161,7.357Z" transform="translate(6794.903 524.728)" fill="#fff"/><path d="M114.567-119.787l-6.1,4.992-.843-1.029,6.1-4.992-1.76-2.151.854-.7,4.361,5.332-.853.7Z" transform="translate(6799.877 528.759)" fill="#fff"/><path d="M113.916-115.993a3.325,3.325,0,0,0-1.813,4.369,3.317,3.317,0,0,0,4.477,1.528,3.333,3.333,0,0,0,1.814-4.37,3.332,3.332,0,0,0-4.477-1.527m3.212,7.11a4.5,4.5,0,0,1-6.029-2.287,4.5,4.5,0,0,1,2.271-6.036,4.5,4.5,0,0,1,6.029,2.286,4.5,4.5,0,0,1-2.271,6.036" transform="translate(6802.436 533.816)" fill="#fff"/><path d="M68.931-94.655a.749.749,0,0,0,.992.311.725.725,0,0,0,.519-.9L69.937-96.6l-1.519.567Zm-1.423,1.574A1.057,1.057,0,0,0,68.26-94.3l-.547-1.465-2.118.793.533,1.427a1.042,1.042,0,0,0,1.38.463m.32.852a1.857,1.857,0,0,1-2.405-1.052l-.852-2.278,5.755-2.154.853,2.28a1.528,1.528,0,0,1-.937,1.942,1.407,1.407,0,0,1-1.259-.115,1.783,1.783,0,0,1-1.155,1.377" transform="translate(6763.828 550.489)" fill="#fff"/><path d="M69.578-90.354a1.329,1.329,0,0,0,1.862.423,1.333,1.333,0,0,0,.635-1.8l-.708-1.283-2.5,1.375Zm-.1,1.037-1.07,2.1-.5-.911.982-1.917-.677-1.227-1.565.862-.439-.8,5.382-2.966,1.15,2.086a2.157,2.157,0,0,1-.859,2.955,2.149,2.149,0,0,1-2.4-.182" transform="translate(6765.198 553.451)" fill="#fff"/><path d="M71.286-83.625l-2.711-3.267,4.73-3.926,2.613,3.149-.58.48-2.031-2.446-1.4,1.162,1.659,2-.587.487-1.659-2-1.584,1.314,2.131,2.567Z" transform="translate(6767.181 556.263)" fill="#fff"/><path d="M74.514-88.076l.74.623-1.67,4.258,3.976-2.318.357.3L76.311-80.9l3.912-2.371.745.628-5.629,3.291-.358-.3,1.478-4.185-3.871,2.17-.357-.3Z" transform="translate(6770.243 558.559)" fill="#fff"/><path d="M76.527-79.143,79.7-84.412l.78.469-3.168,5.269Z" transform="translate(6773.84 561.626)" fill="#fff"/><path d="M82.64-76.075,81.49-81.859,79.6-77.346l-.839-.352,2.374-5.668,1,.42L83.3-77.158l1.888-4.512.839.351-2.373,5.669Z" transform="translate(6775.711 562.503)" fill="#fff"/><path d="M89.126-74.844l-.894-.175.2-1.014a2.258,2.258,0,0,1-2.3.644,2.947,2.947,0,0,1-2.3-3.627,2.95,2.95,0,0,1,3.5-2.486,2.985,2.985,0,0,1,2.055,1.363l-.7.473a2.283,2.283,0,0,0-1.5-1.1c-1.256-.246-2.183.533-2.458,1.924a2.171,2.171,0,0,0,1.629,2.724,1.912,1.912,0,0,0,2.39-1.543l-1.559-.305.145-.74,2.452.481Z" transform="translate(6779.896 564.014)" fill="#fff"/><path d="M95.389-75.061a3.1,3.1,0,0,1-3.461-2.731,3.1,3.1,0,0,1,2.739-3.453,2.766,2.766,0,0,1,2.308.834l-.489.618a2.17,2.17,0,0,0-1.814-.695A2.29,2.29,0,0,0,92.832-77.9a2.289,2.289,0,0,0,2.388,2.1,2.039,2.039,0,0,0,1.6-1.095l.618.49a2.612,2.612,0,0,1-2.054,1.344" transform="translate(6786.717 564.263)" fill="#fff"/><path d="M97.231-78.441a2.274,2.274,0,0,0,2.816,1.6,2.27,2.27,0,0,0,1.41-2.912,2.28,2.28,0,0,0-2.816-1.6,2.279,2.279,0,0,0-1.41,2.912m5.093-1.587a3.077,3.077,0,0,1-2.054,3.9,3.078,3.078,0,0,1-3.908-2.044,3.08,3.08,0,0,1,2.054-3.9,3.079,3.079,0,0,1,3.908,2.045" transform="translate(6790.324 563.461)" fill="#fff"/><path d="M109.48-79.616l-.8.437-2.217-4.047.138,5.185-.452.247-4.293-2.91,2.215,4.047-.8.437-2.953-5.391,1.036-.566,4.346,3.039-.22-5.3,1.042-.57Z" transform="translate(6793.765 561.129)" fill="#fff"/><path d="M109.2-85.557a1.405,1.405,0,0,0-1.935-.373l-1.136.917,1.9,2.346,1.134-.916a1.407,1.407,0,0,0,.041-1.972m.447,2.549-1.148.928,1.02,1.261-.708.573-3.864-4.782,1.855-1.5a2.217,2.217,0,0,1,3.105.4,2.222,2.222,0,0,1-.261,3.121" transform="translate(6797.636 559.466)" fill="#fff"/><path d="M112.226-87.11l-2.543-.967,1.2,2.444Zm.756.29-1.744,1.913.664,1.349-.646.709-2.84-6.005.375-.413,6.242,2.278-.646.708Z" transform="translate(6800.542 557.561)" fill="#fff"/><path d="M117.76-89.751l-5.891.32,4.2,2.509-.467.781-5.279-3.152.56-.935,5.9-.328-4.2-2.509.467-.781,5.279,3.152Z" transform="translate(6802.14 553.728)" fill="#fff"/><path d="M117.021-94.373l2.28.88-.328.85-2.28-.88-4.308.874.389-1.009,3.3-.588-2.048-2.662.39-1.009Z" transform="translate(6803.864 550.319)" fill="#fff"/><path d="M119.134-104.037a2.114,2.114,0,0,1-2.114,2.114,2.116,2.116,0,0,1-2.118-2.114,2.116,2.116,0,0,1,2.118-2.116,2.114,2.114,0,0,1,2.114,2.116" transform="translate(6805.972 543.423)" fill="#fff"/></g></svg>