<svg xmlns="http://www.w3.org/2000/svg" width="373.98" height="163.338" viewBox="0 0 373.98 163.338">
  <g id="nitsuga" transform="translate(-685.72 -1321.83)">
    <path id="Path_1170" data-name="Path 1170" d="M738.59,1339.57l2.593,5.145.165,92.918-.867.824.325,6.318-1.949-.025-.046,3.274,1.465,10.528-1.329.037L721.8,1423.342l-2.562-3.5.042,1.335,18.275,47.406-2.9-3.628L702,1383.513l-7.964,60.93-1.534,4.35.153-5.586L694.4,1430l-1.846,8.885-1.19,2.723a8.625,8.625,0,0,1-1.387-4.582l5.555-31.274-7.256,31.553.077,2.984-.871.83-1.3-1.6-.459-5.71,3.16-15.183,9.059-45.553-.205-2.322-1.856-5.365-.542-3.767,1.619,1.654,2.169,4.114,1.68-6.592-1.277-14.462,1.407-.4,1.174,2.262.551,3.711.991-4.716,1.633,2.99.6,8.394-.923,4.413,19.678,46.751-5.482-15-1.716-9,1.31,1.6,10.766,24.38,1.057-35.109,1.6-1.31L734.215,1340l1.242,1.9Zm-34.89,32.758-.8,3.813,3.371,8.969-1.9-9.675Zm8.854,19.318.722,4.451,2.169,3.8L714,1395.936Zm3.127,8.926.532.484-.1-1.03Zm21.568-53-1.395.335.871,5.485-.254,7.581.774-2.171a89.649,89.649,0,0,0,0-11.244ZM724.8,1410.73l.532.484-.108-1.025Z" transform="translate(0 16.585)" fill="#fff"/>
    <path id="Path_1171" data-name="Path 1171" d="M728.19,1351.33l1.354.251v3.378l-.9.246v3.581l2.231,3.175,2.041,22.219-.194.248,2.036,41-.886,1.6,1.341,11.075-.455,1.587-.685-.691-2.69-18.089-1.834,3.38.246,3.825-.948.246v3.63l-.443-.449-2.241-5.911,1.794,8.843-.892.248-2.742-8.843-4.975-55.76.253-11.78.9-.445,1.592,27.882V1366.49a10.733,10.733,0,0,0,.892-4.079l-1.586-3.382,1.782,1.6.948-3.38,2.233-2.541Zm1.79,45.772.695,5.859v-12.217l-.453-11.081Z" transform="translate(31.442 27.58)" fill="#fff"/>
    <path id="Path_1172" data-name="Path 1172" d="M752.15,1336.38l1.029,1.031-.679,8.266h20.373L786.3,1347.4l15.559,4.189,3.442-.689,2.757,1.38-1.385,2.413a15.691,15.691,0,0,1-6.192,2.066l-33.809,2.063.341,46.266,5.514,37.588-3.444-8.6-3.787-4.133-.352,3.1.7,3.1v3.454l-2.819-1.382-1.031-1.72c-.118,1.029-.8,1.608-2.061,1.72l-2.757-5.164-3.454-12.461-1.37-44.139-.691,2.413-1.031-6.948-.695-15.5-20.719.691a6.578,6.578,0,0,1-4.818-2.407l-3.1-.35,2.757-2.062,17.966-2.813-22.031.747-.759-.343,2.763-3.506,2.751.691,20.723-1.031,1.026.34a4.4,4.4,0,0,0,4.485-3.44Zm-8.607,13.086,2.746,1.093,3.1-.346Zm8.607,6.6.35,16.188,1.02-14.125a4.275,4.275,0,0,0-1.37-2.068Zm.35-6.6,1.02.747.7-.343Zm4.127,0,2.062.4.695-.4Zm0,9.011.346,3.1.335-2.415c-.027-.313-.263-.526-.681-.681Z" transform="translate(31.144 13.603)" fill="#fff"/>
    <path id="Path_1173" data-name="Path 1173" d="M780.972,1351.04l5.06,1.9,2.515,2.233-.913,2.817-.979-1.548-6.323.923-4.412,2.869-5.056,2.183-8.216,6.323-3.448,3.787-1.608,5.394,4.427,3.16,4.768,2.184,16.06,5.685,4.433,2.865,3.789,3.448,3.154,4.422,4.133,16.426-1.6,6.952-2.181,5.056-6.664,7.916-4.063,3.166-4.768,2.515-12.008,2.525h-4.423l-1.89-.968-2.81.968-.979-1.608,4.139-3.16-1.623.35-4.063,3.154-3.16-.979.294,1.27-3.454-.919-3.789-.35-.967-.629.635-.627,6.023-1.269,4.717-2.525,3.493-3.788,22.749-20.847,2.181-5.056.979-5.685-4.777-2.813-16.7-5.05-4.766-2.525-3.789-3.506-2.819-4.421-1.892-5.344-.35-2.516.644-3.795,2.515-5.056,3.5-3.787,4.083-3.16Zm-22.1,36.64,1.9,2.243,6.029,2.809,11.029,2.87,6.041,2.813-1.62-2.516-5.673-3.157-4.083-.635Zm.339-23.026.923-.344-.639-.289Zm.923-.633.985-.344-.635-.286Zm1.9-1.261.967-.346-.623-.289Zm.967-.635.923-.344-.623-.284Zm28.089,57.771-2.531,4.771-6.319,7.865-3.783,3.5-7.581,4.717,6.319-2.187,4.766-2.531,7.577-6.658,2.813-4.077,2.243-4.768.911-6.314-.629-5.054Z" transform="translate(54.808 27.309)" fill="#fff"/>
    <path id="Path_1174" data-name="Path 1174" d="M781.751,1330.71l.989,4.183-1.627,9.421,1.912,6.747v48.566l3.607,12.621,3.841,7.092,3.549,1.976,4.541.933,3.891-.635,2.268-3.206,1.623-3.6.938-4.473-2.918-58.286.356-5.174-.639-4.837.639-1.627.989,2.56,1.279,9.421.635-3.893,1.283-2.9.985-4.542,1.915,1.922.362-1.277,2.556-.288.989,1.565,4.837,80.612.985,3.835,1.629,3.607,2.272,1.284.635,1.277-4.824,3.55,3.541,1.273-3.541,1.284-3.262-2.211-5.8-9.709-1.923,3.545-2.962,2.618-4.195,1.279-8.727-1.979-4.173-1.571-3.262-1.979-2.912-2.552-2.262-3.262-5.462-16.167-.362,1.277.64,5.818,3.554,12.333,3.891,7.092,2.912,2.614,3.891,1.571,4.837.645,4.535-.645-1.623,1.635-4.541.989-4.475-.989-6.805-4.185-5.53-10.71-2.277-8.707-1.918-23.91,1.635-31.754,2.268-13.264,1.935-3.552.639-4.535Zm3.541,92.181,1.339,2.968a13.66,13.66,0,0,0-1.339-2.97Zm7.792,1.624,1.277,2.277,3.262-.638Zm13.26-.635-4.535,3.9-4.185,1.627.938,1.279,3.535-.638,2.268-1.635a6.946,6.946,0,0,0,1.979-4.52Zm2.9,1.279-2.258,5.18,2.258-2.556.644-1.923c-.031-.3-.248-.532-.644-.687Zm-.341-43.328.633,10.993V1387Zm2.9-38.5.362,5.524,1.273,6.741-.288-11.632Z" transform="translate(81.627 8.302)" fill="#fff"/>
    <path id="Path_1175" data-name="Path 1175" d="M847.963,1342.95h7.562l5.725,1.787,4.309,3.253,3.622,3.939.737,2.516-2.531.367-.731-.733-5.781-1.41-2.515.365,6.137,4.669,3.268,3.939.685,2.21-.685.679-10.087-8.612-5.031-2.525-11.184,3.208-13.291,9.032-2.891,4.669-1.778,12.979,1.045,20.1,4,11.19,5.031,9.721,9.353,4.3,6.087-1.052-1.412,1.79,9.709-.738,5.778-1.784,4.99-2.515.375-1.1-1.062-11.5a12.626,12.626,0,0,0-5.772-1.418H849.743l-3.941-3.99.691-1.788,2.515-.371,6.828,1.79,9.721-.681-16.178-2.516-2.515-1.107,2.875-1.418,26.27,1.418v-1.047l2.515-1.84,1.468,2.155,3.934,3.622-3.934,3.253.321,5.045,1.469.681-1.1,5.783.366,6.822-1.053,10.449-2.515-.362-3.984-3.566-.377-3.266-20.111,5.772-25.206-2.887,1.056,4.3-2.844-1.413-2.887-4.355-5.04-2.515-4.3-3.206-3.624-3.618-5.406-9.719-3.581-11.133-.731-5.031,1.1-7.933,3.21-11.87,11.546-18.012,7.513-7.562,4.355-2.885,8.988-3.937-14.028,10.449-10.081,12.55L808,1376.105l-1.778,5.72-2.163,12.608,1.057,5.406,3.618,11.5,5.363,9.03,3.99,3.572,3.566,2.154-5.354-9.349-6.881-23.047.371-14.756,3.632-11.141,2.877-4.671,6.828-7.933,8.978-5.776Zm-23.424,17.64-6.828,11.505-.726,3.993,1.834-4.365,4.675-7.19Zm-4.313,42.123,1.109,7.2v-3.993Zm24.481-54.352-3.938,1.051-6.515,2.883-3.932,2.893,1.778.367-2.515,2.15-2.154,4.305h.737l9.71-6.455,10.091-3.626-.737-1.786a9.267,9.267,0,0,0-2.523-1.776Zm5.031-.371,4.315,2.516,5.772-.366-4.3-1.416Zm20.539,62.285,1.045,11.869.743-3.628a28.688,28.688,0,0,0-1.782-8.25Z" transform="translate(107.252 19.745)" fill="#fff"/>
    <path id="Path_1176" data-name="Path 1176" d="M868.788,1321.83l5.06,6.035,42.994,90.976,1.935,6.732a14.285,14.285,0,0,1-5.546-4.718l-.989,1.295,8.336,29.746-3.005-1.98,1.865,16.525-1.906,3,.871,8.086-16.426-53.21-3.676-6.881-6.933-3.87-11.853-2.84-15.549.58-6.366,46.539a15.066,15.066,0,0,1-3.467,7.374l-2.067-12.577,3.4-40.4-11.116.793-1.741-.505-1.258-1.83,14.812-2.87.53-2.155-16.476.954-5.685-2.041,1.422-1.695,21.893-3.369-12.925-6.91,3.289-3.792,8.461-1.418,3.587.18,7.767-41.794,4.2-12.2-.722-4.064Zm-14.452,68.622-3.7,2,7.819,4.406,1.161-6.147Zm11.01,1.388-1.161,6.147.8.954,23.412,2.92-3.87-2.868Zm8.513-36.9-.236,4.855-1.954,2.583-5.236,25.986,3.926.615,12.211,5.466,8.607,5.781-2.217-9.411Zm-4.978,1.093.418,1.366,2.237-9.694Zm21.336,36.6,1.068,5.344,2,3.692-1.521-4.944Zm1.238-16.8.654,5.321,7.3,13.686-1.066-5.418Zm2.107,28.95-1.329,1.279,2.154.53a3.415,3.415,0,0,0-.83-1.821Zm4.818-7.74,1.97,5.815,3.253,5.515-2.388-5.9Zm16.575,60.275.811,2.289a3.4,3.4,0,0,0-.817-2.283Z" transform="translate(139.123 0)" fill="#fff"/>
  </g>
</svg>
