<svg xmlns="http://www.w3.org/2000/svg" width="368.87" height="317.025" viewBox="0 0 368.87 317.025"><g transform="matrix(-0.292, -0.956, 0.956, -0.292, 68.884, 317.025)"><path d="M71.308,145.882l22.7-5.615c-2.778-2.223-4.994-3.748-6.9-5.595a34.817,34.817,0,0,1-4.758-5.725,51.737,51.737,0,0,1-5.159-8.987,151.134,151.134,0,0,1-5.751-16.893c-2.06-7.645-3.6-15.429-5.476-23.634a20,20,0,0,1,4.169-1.128c2.436-.109,4.888.123,8.072.238-3.321-7.332-4.133-14.452-4.162-21.648a77.49,77.49,0,0,1,.912-11.119c.362-2.563,2.654-3.628,5.094-2.587,2.032.867,3.977,1.936,5.743,2.809,2.134-.677,1.991-2.39,2.334-3.711A57.68,57.68,0,0,1,93.7,28.523c4.116-7.343,6.283-9.427,14.077-13.1.087-4.706.178-9.631.278-15,1.256-.123,2.629-.7,3.473-.261,3.111,1.617,6.128,3.186,9.773,1.992,8.514.822,16.709,2.582,23.639,8.056a11.259,11.259,0,0,0,1.188.893c.193.115.486.063.971.109l5.737-3.655c1.339,1.052,2.925,1.862,3.9,3.138,4.1,5.383,9.075,9.854,14.161,14.242a65.572,65.572,0,0,1,5.38,5.155c1.479,1.6,2.728,3.419,4.383,5.529,1.289-1.241,2.412-2.469,3.682-3.516,3.291-2.71,5.751-2.212,7.724,1.49.7,1.315,1.392,2.639,2.013,3.994a125.448,125.448,0,0,0,17.275,27.757c5.125,6.2,9.515,12.772,10.792,21.388a24.047,24.047,0,0,0,4.238-1.1c2.465-1.15,4.82-2.531,7.76-2.585.46.588,1.15,1.1,1.3,1.747a7.069,7.069,0,0,1,.019,2.925c-1.962,9.836-1.69,19.773-1.516,29.717.078,4.465-.028,8.944-.3,13.4-.782,12.927-5.049,24.8-11.674,35.786a39.153,39.153,0,0,1-7.788,8.931c-5.417,4.742-11.1,9.215-17.74,12.233a13.515,13.515,0,0,1-3.392,1.5c-6.073.835-10.3,4.5-14.377,9.171.223,1.684.386,3.651.753,5.578q7.052,36.967,14.161,73.922c1.782,9.269,3.627,18.526,5.444,27.788a12.37,12.37,0,0,1,.418,2.186c.021,1.761-.13,3.518-1.853,4.579-2.49,1.532-5.115,1.576-6.984.094a10,10,0,0,1-3.563-5.527c-3.712-14.537-11.676-26.756-20.956-38.244a30.57,30.57,0,0,0-8.844-7.888,3.706,3.706,0,0,0-4.78.6,39.255,39.255,0,0,0-3.153,4.084c-4.009,5.363-7.852,10.86-12.056,16.066-6.53,8.086-15.239,12.442-25.38,14.344a75.056,75.056,0,0,1-22.268.555A37.68,37.68,0,0,1,74.84,291.73q-7.418-4.285-14.79-8.645c-.617-.365-1.567-.893-1.6-1.4-.171-2.59-2.228-2.882-3.978-3.66A102.474,102.474,0,0,1,34.8,266.019c-3.161-2.37-3.42-4.3-1.212-7.624,1.193-1.8,2.588-3.462,4.075-5.428-2.528-2.2-4.869-4-6.908-6.091a41.627,41.627,0,0,1-5.163-6.358c-2.966-4.577-5.7-9.308-8.5-13.99a2.207,2.207,0,0,1-.455-1.381c1.027-4.082-2.171-6.266-3.915-9.152a74.958,74.958,0,0,1-4.8-9.239C5.284,200.595,2.863,194.34.42,188.1c-1.076-2.751-.074-4.3,2.893-4.537,2.178-.172,4.456.34,6.418-1.08-1.96-6.505-3.548-19.408-2.911-24.547,7.458-1.926,14.818-4.884,22.766-5.668,1.227-.121,2.754.028,3.608-.635,5.584-4.342,12.638-4.1,18.928-6.167C58.192,143.467,63.868,144.1,71.308,145.882Zm75.344,57.825c-.6-.746-1.252-1.2-2.13-.379-.548-1.7-2.24-1.724-3.485-2.434-4.5-2.567-9.029-5.107-13.4-7.893-1.241-.792-1.968-2.39-3.117-3.853,1.034-.076,1.619-.306,1.981-.114a38.07,38.07,0,0,1,5.093,2.986,51.182,51.182,0,0,0,13.79,7.15c3.5,1.246,7.1,2.3,10.9,1.631.591-.1,1.106-.641,2.175-1.3-1.3-.676-2.072-1.17-2.911-1.5-10.966-4.35-20.261-11.335-29.249-18.743a95.863,95.863,0,0,1-8.434-8.341c-.761-.805-1.4-2.06.089-3.03,2.408.361,3.88,2.112,5.451,3.662A114.948,114.948,0,0,0,142.1,186.109a14.387,14.387,0,0,0,3.278,1.13l1.522.979c-.071-.2-.106-.558-.218-.585a9.125,9.125,0,0,0-1.35-.149c-.883-1.486-1.84-2.933-2.638-4.463a63.148,63.148,0,0,0-21.585-24.126c-.4-.265-.38-1.176-.675-2.2,5.823.128,8.654,4.9,13.289,7.184.314-4.187-1.159-7.91-1.291-11.813-2.339-1.35-4.563-2.45-6.59-3.837-5.108-3.493-10.853-4.741-16.88-5.039-8.222-.409-16.368.048-24.288,2.537-1.6.5-3.552.224-4.612,1.99l-.482,0,.507-.188a13.1,13.1,0,0,0,1.744,2.326,82.207,82.207,0,0,1,16,19.338,79.546,79.546,0,0,0,14.908,17.334c4.786,4.253,9.884,8.166,14.981,12.052a32.506,32.506,0,0,0,6.993,4.116c3.127,1.317,6.446,2.549,9.825.491l2.156.208.308.179ZM17,159.06c1.173,1.029,2.222.41,3.269-.246,3.53.192,7,.135,9.829-2.463,1.9,1.291,3.606.6,5.262-.537l.382.228L35.362,156c-1.83-.492-3.658-.976-5.284.536-3.563-1.335-6.74-.3-9.78,1.587-1.474-.626-2.445.142-3.314,1.2-1.5-1.228-2.277.432-3.37.833l-4.577.12c.853,7.716,1.115,15.126,5.82,21.745l5.723.048a11.527,11.527,0,0,0-.472-1.772c-2.588-5.334-5.254-10.631-7.774-16-.8-1.7-.648-3.4,1.313-4.421Zm52.2-1.085a2.582,2.582,0,0,0,.6.293c.1.022.24-.143.362-.222l-.98.179c-1-2.365-3.7-2.146-5.346-3.509a19.685,19.685,0,0,1-1.813-2.035c3.693-.642,6.333.747,9.054,1.767l6.757,2.532c.316-.088.947,1.021.951-.25l-.968.531a10.468,10.468,0,0,0-1.482-2.5c-5.319-5-11.6-7.516-18.925-6.395-4.369.669-8.667,1.837-12.968,2.9-1.048.259-2.571.2-2.68,2.162l6.993,4.441c4.388-2.121,4.39-2.132,7.423-1.492C60.469,157.282,64.684,158.846,69.2,157.975ZM140.4,26.306c2.721-2.739,3.111-6.448,4.389-9.583-6.732-8-16.11-12.049-23.118-10.075,1.5,3.4,3.3,6.683,4.411,10.183a20.1,20.1,0,0,0,10.284,12.461,11.355,11.355,0,0,0-.423-2.981c-.711-1.567-1.693-3.01-2.524-4.525-.51-.928-.568-1.807.9-2.582l6.124,7.106-.454.5.782.057Q140.59,26.586,140.4,26.306Zm24.172,212.3c.5-.523,1.259-.964,1.449-1.581,3.37-11.036,2.942-22.049-.494-32.978-.329-1.047-1.394-1.862-2.517-3.294-5.943,5.548-13.465,6.294-20.974,7.739.1,1.415-.152,2.759.312,3.779,2.589,5.68,6.21,10.691,10.852,16.148.194-2.224.428-3.62.417-5.014-.032-4.218-.232-8.436-.208-12.653.007-1.266.633-2.387,2.665-1.563.453,6.529.9,13.2,1.387,19.878a72.05,72.05,0,0,0,.759,7.4c.185,1.034,1.077,1.941,1.648,2.906a36.909,36.909,0,0,0,.483-9.845c-.1-2.227-.317-4.454-.283-6.678.014-.936.465-1.957,2.062-1.471,1.415,3.4,1.1,7.163,1.558,10.808.272,2.16-.43,4.5,1.094,6.444-.274.394-1.32.856.1,1.1Q164.731,239.167,164.577,238.605Zm-45.062-31.049a2.494,2.494,0,0,0,.474.3c.093.035.231-.048.349-.078l-.856.03a45.7,45.7,0,0,0-3.815-3.426c-2.414-1.742-5.011-3.229-7.425-4.972a76.114,76.114,0,0,1-6.374-5.127c-.87-.783-1.559-1.978.281-3.168,8.252,5.308,15.9,12.084,27.464,14.977-3.807-2.846-6.448-4.612-8.855-6.656-8.329-7.074-16.77-14.055-23.289-22.965a6.01,6.01,0,0,0-5.725-2.745c-2.378.207-4.827.08-7.235,1.593,2.478,5.922,4.848,11.612,7.24,17.29.674,1.6,1.4,3.178,2.129,4.755,3.274,7.078,9.435,10.608,16.356,13.1.946.342,2.515.368,2.538-1.467-1.766-2.414-5.449-2.478-6.68-5.424,1.2-1.478,2.359-.769,3.419-.278C112.8,204.823,115.683,207.3,119.515,207.556ZM167.3,58.255c1.964-.847,2.229-2.6,2.029-4.354-.251-2.211-.867-4.377-1.216-6.581-.185-1.159-.136-2.356-.254-4.816l4.678,5.965c.911-1.449,1.616-2.457,2.206-3.528,2.663-4.829,2.137-8.93-1.665-12.758-.87-.876-1.95-1.538-2.859-2.38-4.182-3.875-8.379-7.737-12.483-11.693-1.933-1.863-3.668-3.93-5.827-6.264-4.724,7.691-7.833,15.28-7.1,24.183,1.078.9,2.208,1.854,3.342,2.8,1.334,1.115,2.73,2.162,3.987,3.358a32.668,32.668,0,0,1,2.961,3.341,45.7,45.7,0,0,0,3.155,4.138c.88.875.638,3.038,2.985,2.651-.5-7.734-4.449-14.567-5.705-22.7a10.377,10.377,0,0,1,5.079,6.849c1.746,5.95,3.374,11.935,5.133,17.88a32.581,32.581,0,0,0,1.729,3.932c-.5.387-1.156.786.091,1.016Q167.433,58.773,167.3,58.255ZM102.135,78.924l.513.261-.546-.041c-1.516-1.943-2.994-3.919-4.556-5.826-2.986-3.641-6.067-7.2-9-10.888-.634-.8-.792-1.971-1.784-4.6,8.643,8.366,14.588,17.028,24.493,24.044-2.5-3.826-4.122-6.211-5.624-8.672-.591-.97-1.184-2.133.61-3.3l5.008,6.386c.4-.6.664-.816.649-1.007-.267-3.444-.583-6.886-.858-10.331-.416-5.178-3.071-8.754-8.153-10.19-3.8-1.075-7.817-1.413-11.6-2.539-3.967-1.182-7.773-2.915-12.024-4.55-1.279,4.706-.726,9.148-.351,13.472a97.209,97.209,0,0,0,2.347,12.373,7.481,7.481,0,0,0,1.5,2.544c1.681,2.28,3.761,2.593,6.706,1.2-1.229-1.7-2.263-3.047-3.2-4.458-.561-.843-.893-1.78.247-2.608,2.5.805,3.576,3.2,5.292,4.894C94.671,77.906,97.685,80.349,102.135,78.924ZM65.365,242.662c.6.68,1.133,1.023,1.316-.278l-1.294.108a32.549,32.549,0,0,0-4.3-2.511c-2.946-1.184-6.017-2.051-8.975-3.21-.727-.285-1.21-1.187-2.146-2.158a11.94,11.94,0,0,1,2.831-.294,50.812,50.812,0,0,1,4.957,1.288c5.1,1.554,10.183,3.15,15.273,4.73l.405-.033-.432.28c-3.055-6.4-7.964-10.7-14.867-12.332a106.108,106.108,0,0,0-15.308-2.682c-6.151-.524-12.363-.352-18.55-.421a28.088,28.088,0,0,0-3.644.452c5.2,10.614,11.059,19.926,22.344,24.627,2.286-1.647,5.638-1.352,7.784-3.99-2.967-2.768-7.881-2.244-9.581-6.477,2.379-.8,4.067.4,5.911,1.07,3.25,1.173,6.519,2.345,9.86,3.205C59.863,244.786,62.824,244.725,65.365,242.662Zm13.717-43.3a1.793,1.793,0,0,0,.347.441c.092.064.275,0,.417-.014l-.805-.2c-5.722-4.419-11.9-8.062-18.92-9.9a47.4,47.4,0,0,0-10.278-1.381c-4.99-.175-15.131,2.04-21.992,4.381.8,3.519,1.514,7.117,2.45,10.657,2.908,10.981,10.074,17.282,21.254,19.106,1.7.278,3.389.684,5.938,1.208-1.961-3.611-4.874-4.744-6.884-6.783-2.087-2.115-5.413-3.146-6.091-6.649,2.394-.837,3.474.876,4.943,1.631a10.431,10.431,0,0,0,2.169.566c1.227-1.541,2.392-3,3.778-4.743-2.911-1.236-5.435-2.236-7.9-3.373-2.368-1.1-5.158-1.567-6.716-3.974.272-.38.4-.716.524-.713,6.6.139,11.794,4.925,18.389,5.575,2.234-.731,4.6-1.445,6.923-2.3a15.235,15.235,0,0,0,2.6-1.768c-3.242-1.2-5.842-2.034-8.328-3.126-2.337-1.027-5.344-1.143-6.7-4.066,2.629-1.344,4.627-.022,6.668.646,4.953,1.621,9.869,3.355,14.827,4.959C76.782,199.892,78.022,200.6,79.081,199.362Zm81.86-115.357c1.644-1.8,1.119-4.176,1.679-6.264a8.847,8.847,0,0,0-1.973-8.3,23.586,23.586,0,0,0-8.478-7.029c-6.019-2.843-12.027-5.539-18.88-6.732-.368,1.353-.681,2.264-.861,3.2-1.409,7.314-2.678,14.656-4.209,21.943a96.188,96.188,0,0,0,.252,42.834c1.253,5.21,2.264,10.5,4.376,15.455.644-.232.979-.254,1.031-.387,1.954-5.081,3.882-10.171,5.5-14.429-1.4-7.833-2.721-14.884-3.888-21.961a35.673,35.673,0,0,1-.382-6.672c.027-1.071-.021-2.515,2.43-3.137,1.288,8.137,1.374,16.491,4.46,25.256a54.386,54.386,0,0,0,5.583-13.07c-1.436-4.352-2.737-8.1-3.862-11.893-.193-.652.359-1.524.868-3.406,1.911,3.543,3.256,6.036,4.874,9.038,2.878-4.893,2.137-10.936,7.14-13.907-1.121-5.818-5.093-10.488-6.865-16.717,1.371.424,2.257.423,2.589.851a39.538,39.538,0,0,1,3.292,4.91c1.923,3.445,3.716,6.963,5.563,10.45-.014.174-.028.35-.043.524Q161.038,84.28,160.941,84.005Zm14.768,105.97c2.443-1.716,2.02-4.457,2.057-6.782.128-8.177.2-16.371-.19-24.534a146.845,146.845,0,0,0-4.059-26.442c-.425-1.812-1.179-3.67-.154-6.029,2.61,1.913,3.1,4.342,3.665,6.7,4.225,17.471,6.5,35.1,4.406,53.1-.18,1.534-.721,3.121-.149,4.8,2.643-1.051,2.959-3.133,3.155-5.038.407-3.943.707-7.913.735-11.874.03-4.46-.351-8.921-.416-13.386-.019-1.309-.495-2.983,1.506-3.753a7,7,0,0,1,1.008,1.844,51.212,51.212,0,0,1,.864,5.871c.341,4.428.563,8.867.835,13.3-.131.81-.151-.337-.254-.014.736-.591,1.8-1.034,2.148-1.8a48.769,48.769,0,0,0,2.6-6.95c4.374-15.416.652-29.65-7.28-42.832-7.871-13.08-18.9-23.532-30.454-34.136-.647,1.586-1.126,2.666-1.533,3.771-3.011,8.149-5.949,16.325-9.033,24.446-1.586,4.176-3.543,8.211-5.123,12.389a46.863,46.863,0,0,0-1.689,28.571c.724,2.884,1.6,5.736,2.527,8.565a34.978,34.978,0,0,0,11.765,16.866c.395.314,1.154.17,2.337.308a111.35,111.35,0,0,1-7.323-25.44c-2.639-15.912-2.862-20.093-.911-25.71.508.648,1.2,1.136,1.293,1.722.318,1.952.462,3.937.6,5.914a152.33,152.33,0,0,0,5.236,30.05,62.249,62.249,0,0,0,7.429,17.01,11.515,11.515,0,0,0,10.9,5.628c-.3-3.743-.458-7.207-.863-10.642a336.512,336.512,0,0,0-7.386-41.8c-.878-3.529-2.1-7.079-1.263-11.538,2.744,2.276,3.085,5,3.732,7.492a327.286,327.286,0,0,1,8.02,42.436c.326,2.667.993,5.293,1.5,7.936a2.509,2.509,0,0,0-.294.567c-.026.1.114.247.18.373Q175.773,190.456,175.709,189.975Zm2.222,44.819c.244,1.782.346,2.989.58,4.169,1.931,9.746,3.739,19.521,5.884,29.22,1.392,6.293,3.292,12.474,4.948,18.708.486,1.826,1.843,3.649.35,5.549-.768.978-2.316-.795-3.651-4.619a47.038,47.038,0,0,0-9.1-16.109c-3.8-4.253-7.876-8.276-12.072-12.139-2.819-2.6-5.15-5.337-6.037-9.143-.707-3.037-2.611-5.158-4.966-7.181a107.328,107.328,0,0,0-15.37-10.467c-2.267-1.352-4.971-2.207-6.949-5.541,8.9,1.8,14.9,7.675,23.073,11.381A75.133,75.133,0,0,0,140.8,220.705a29.344,29.344,0,0,0-14.968-7.851c-6.7-1.276-12.837.52-18.894,2.784-7.2,2.693-14.288,5.7-21.407,8.607-.34.139-.515.685-.831,1.135,3.779,5.475,7.479,11.053,11.411,16.463a94.52,94.52,0,0,0,8.837,11c9.009,9.132,20.032,12.525,32.695,10.422,2.2-.366,4.364-.947,6.52-1.523.375-.1.624-.674,1.217-1.358-1.838-.3-3.458-.531-5.063-.843a85.858,85.858,0,0,1-26.415-9.857c-1.838-1.051-3.723-2.081-4.332-5.349,2.672,1.22,4.749,1.963,6.62,3.06a78.2,78.2,0,0,0,24.383,8.93c3.617.727,7.514,1.36,11.071.765,4.145-.692,7.261.433,10.4,2.676a40.238,40.238,0,0,1,8.15,7.56,114.648,114.648,0,0,1,17.787,30.863,36.52,36.52,0,0,0,1.744,4.09c.768,1.444,1.437,1.605,5.011,1.5a10.883,10.883,0,0,0,0-2.165q-5.764-29.241-11.557-58.478A13.855,13.855,0,0,0,177.931,234.794Zm14.826-117.378c9.17-11.98,7.969-9.066,7.031-21.424-.337-4.445-1.181-8.848-1.7-13.28-.1-.854-.123-2.02,1.667-2,3.3,6.2,2.644,13.375,4.249,20.411a18.247,18.247,0,0,0,6.887-5.677c.878-3.118-1.021-5.526.162-7.9,2.827.209,1.749,3.588,3.954,4.139,1.688-.079,2.844-1.006,2.638-2.766a48.784,48.784,0,0,0-1.446-7.257c-1.215-4.41-3.917-8.053-6.791-11.445a133.116,133.116,0,0,1-20.779-33.363c-.447-1.032-.718-2.452-2.919-2.422-1.492,2.119-3.35,4.434-4.86,6.957-6.289,10.512-11.047,21.684-13.272,33.762-.892,4.843-.949,9.846-1.278,14.784-.36,5.4,2.015,9.573,6.071,12.929.918.76,1.759,1.76,3.4.908-.03-3.593-.114-7.3-.083-11.01.068-7.8.093-7.8,2.8-11.227.2,2.127.452,3.77.494,5.417.141,5.7.027,11.42.352,17.111.408,7.126,2.134,9.829,9.153,15.335.528-3.737.151-7.171.05-10.575-.1-3.471-.5-6.936-.549-10.407-.049-3.335-1.61-6.734.228-10.322.66.741,1.374,1.2,1.573,1.82C192.545,98.55,191.629,107.611,192.757,117.415Zm-68.71,23.673c-5-5.583-9.653-10.374-13.826-15.551-4.095-5.081-10.246-8.479-13.092-15.406,1.337.089,2.226-.125,2.638.223a93.565,93.565,0,0,1,7.178,6.483c5.162,5.373,10.148,10.915,15.292,16.306,1.108,1.162,1.941,3.029,4.374,2.521-.939-5.916-2.182-11.625-5.962-16.563-3.921-5.122-7.6-10.427-11.354-15.677-.779-1.09-2.02-2.117-.941-4.069a4.675,4.675,0,0,1,3.018,1.7c.828.927,1.672,1.842,2.478,2.787.968,1.135,1.914,2.29,2.852,3.449a37.078,37.078,0,0,0,2.33,2.908c.731.738,1.022,2.256,3.055,1.753-.183-4.906-.367-9.8-.53-14.133C110.228,84.289,90.583,77.647,71.45,82.132c1.127,5.3,2.413,10.578,3.344,15.921a95.7,95.7,0,0,0,5.684,18.482,40.533,40.533,0,0,0,14.09,17.939,22.057,22.057,0,0,0,13.905,4.677c-2.772-3.024-4.909-5.335-7.026-7.667-4.436-4.889-4.432-4.893-5.331-8.782a58.784,58.784,0,0,1,7.475,6.713c2.814,2.8,5.727,5.5,8.621,8.225C115.311,140.551,119.05,141.284,124.048,141.089Zm79.858-10.16c.465,2.711,1,4.1.89,5.444-1.257,15.7-5.9,30.55-12.1,45.8,1.818-1.425,3.186-2.148,4.08-3.254,7.988-9.89,15.005-20.388,19.832-32.237.934-2.292,2.091-4.494,3.206-6.706.393-.777.731-1.847,2.33-1.164a26.727,26.727,0,0,1-2.157,9.216c-3.785,9.824-9.307,18.638-15.5,27.068-1.119,1.521-2.537,2.871-2.415,5.363,6.171-4.079,11.306-8.745,14.98-14.751C224.027,154.3,228.316,142,228.908,128.5c.575-13.1-.2-26.257,1.458-39.653-5.111.511-8.533,3.94-12.159,6.748-11.728,9.082-18.9,21.423-24.419,34.55,1.72,5.559,3.33,10.766,4.953,15.97a1.183,1.183,0,0,0,.424.6,2.366,2.366,0,0,0,.775.17C202.016,142.26,200.582,136.727,203.906,130.929ZM138.392,266.677c-4.409.27-7.206.211-9.868,2.223-9.272,7.008-19.993,10.833-31.216,13.36a23.019,23.019,0,0,1-4.29.125c.942-2.338,2.722-2.531,4.357-3.085,5.632-1.909,11.3-3.738,16.814-5.955,3.576-1.438,7.257-2.9,10.527-5.939-3.506-1.127-6.841-1.619-9.544-3.195-4.79-2.792-9.435-2.487-14.2-.577a76.549,76.549,0,0,0-10.75,4.959c-7.467,4.447-14.705,9.283-23.129,11.856-.359.109-.592.631-.882.963,4.457,4.439,13.986,9.52,20.633,10.788a70.021,70.021,0,0,0,24.452.4c14.236-2.293,24.2-10.389,31.2-22.63a52.147,52.147,0,0,0-6.524,4.44,60.379,60.379,0,0,1-22.649,10.859c-1.338.322-2.808.1-5.255.15,5.071-4.849,11.38-4.592,16-7.742S134.215,272.527,138.392,266.677Zm-67.8-5.967c.141-.612.122-1.007.262-1.075,7.374-3.568,15.469-.441,23.668-2.4-2.746-2.632-5.87-3.573-8.656-5-16.391-8.4-31.785-4.728-46.669,4.095-1.906,1.13-3.633,2.656-3.748,5.411A99.064,99.064,0,0,0,55.5,274.205c5.172,2.472,10.362,3.285,15.782.714,1.555-.739,3.327-1.008,4.935-1.653.971-.389,2.3-.648,2.194-1.8-4.582-.68-8.995-1.31-13.4-2-1.013-.159-1.856-.639-1.452-2.36,2.125.109,4.327.278,6.533.325,3.72.08,7.482.441,11.152.026,4.316-.489,8.486-1.819,12-5.5C85.43,260.143,77.884,262.474,70.587,260.709Zm33.25-48c-12.578-8.716-38.5-10.868-47.3-.382a4.067,4.067,0,0,0,.451,1.336c5.978,7.273,11.7,14.786,18.08,21.69a153.3,153.3,0,0,0,15.441,13.882c2.366,1.948,5.042,3.914,8.992,3.873-4.109-5.869-8.01-11.211-11.656-16.722-2.608-3.942-5.215-7.794-8.86-10.911-2.5-2.137-1.86-4.309,1.444-5.363,2.825-.9,5.748-1.5,8.59-2.351C93.7,216.352,98.529,215.328,103.837,212.71ZM120.125,49.363c3.669,5.727,2.853,12.891,6.365,19.852,2.11-9.39,4.391-17.438.99-25.789-.467-1.144-.214-2.581-.341-4.64,1.172,1.113,1.9,1.512,2.173,2.118.9,2.029,1.7,4.11,2.423,6.209,1.875,5.425,4.707,7.227,10.981,6.98-.108-3.743-4.885-5.406-4.6-10.428a29.364,29.364,0,0,1,7.324,8.086,21.509,21.509,0,0,0,10.131,8.3c1.084.418,2.1,1.345,3.1-.146a65.2,65.2,0,0,0-34.812-30.7,12.887,12.887,0,0,0-1.324,2.185c-1.842,5.66-3.859,11.276-5.393,17.021a56.02,56.02,0,0,0,3.278,38.516,15.968,15.968,0,0,0,1.989,2.581c.48-2.147.755-3.853,1.25-5.493a20.019,20.019,0,0,0-.443-12.339,175.385,175.385,0,0,1-4.077-17.366C118.818,52.78,118.148,50.977,120.125,49.363ZM91.508,169.218a32.515,32.515,0,0,0-2.875-2.58c-4.295-2.845-9.247-3.282-14.183-3.863-6.139-.722-12.257-1.634-18.391-2.4a11.977,11.977,0,0,0-2.637.251c2.062,17.081,8.517,25.845,23.121,30.9-1.852-1.669-3.159-2.756-4.348-3.958-.667-.675-1.328-1.514-.071-2.9,5.931,2.057,9.934,7.435,16.011,10.486-1.016-5.67-2.545-10.363-7.576-13.339a72.486,72.486,0,0,1-8.377-6.134,30.313,30.313,0,0,1-3.346-3.736c.661-.323.884-.529,1.106-.525,3.746.045,5.654,3.764,9.04,4.544C82.408,171.683,82.408,171.683,91.508,169.218Zm-39.479,15c-.7-2.032-2.428-2.575-3.822-3.464-2.29-1.461-4.62-2.86-6.933-4.287-.8-.5-1.753-.928-.737-2.538a30.017,30.017,0,0,1,4.651,1.4c2.227,1.055,4.306,2.421,6.458,3.64.874.495,1.755.8,2.413-.208-.89-3.391-2.013-6.681-2.573-10.065-.668-4.037-3-6.21-6.774-6.79-3.649-.561-7.408-1.214-11.038-.9-5.866.51-11.668,1.779-17.771,2.772a49.089,49.089,0,0,0,9.034,17.312,13.444,13.444,0,0,0,6.839,4.2c2.23.656,4.54,1.409,7.768.075-2.482-1.988-4.568-3.2-6.539-4.565-2.161-1.5-4.446-2.95-5.089-5.859,1.96-.56,3.027.639,4.255,1.374,3.813,2.284,7.58,4.644,11.439,6.847C46.2,184.642,48.962,185.394,52.029,184.218Zm-23.2,27.445c.163-2.923-.59-5.116-2.722-6.817-1.739-1.387-3.465-2.8-5.1-4.31-.778-.721-.984-1.661.247-2.306,1.588-.394,2.782,1.989,4.9.81-.732-2.107-1.847-3.937-1.866-5.777-.016-1.682,1.153-3.376,1.9-5.321C19.068,185.2,12.1,185.88,5.15,187.447c-.1.868-.333,1.4-.181,1.788,2.469,6.23,4.858,12.5,7.551,18.629a37.007,37.007,0,0,0,4.589,7.631c4.7,6.093,8.42,7.061,16.688,4.693-3.6-2.793-7.256-5.353-10.58-8.288-3.523-3.108-6.788-6.52-10.039-9.922a2.022,2.022,0,0,1,.371-3.295C18.492,202.968,22.746,208.18,28.832,211.663Zm77.391-159.6c-.588-3.143-1.046-5.232-1.352-7.342A58.573,58.573,0,0,1,104.2,38.1c-.024-.807.165-2.1,1.9-1.69,1.448,2.553,1.341,5.618,2.112,8.442.816,2.986.97,6.251,3.469,9.3l3.07-12.2c-5.316-6.223-7.226-13.888-9.508-21.817-4.152,2.382-5.848,6.017-7.726,9.421a48.673,48.673,0,0,0-5.964,19.209l7.373,1.3c-.072-2.156-.126-3.8-.2-5.973,1.186.61,2.049.762,2.308,1.242.822,1.521,1.292,3.238,2.162,4.724C103.6,50.725,104.613,51.031,106.222,52.068Zm66.239,178.217c-2.465,6.755-4.894,13.141-7.109,19.6-1.011,2.945.515,5.224,2.564,7.291,3.494,3.523,6.857,7.177,10.328,10.724.72.737.985,2.232,2.562,1.9C180.364,264.438,174.342,235.749,172.461,230.284ZM123.93,23.149c-3.744-9.745-6.192-13.242-11.612-16.856-1.772,7.051-2.055,15.182-.374,21.015.922,3.2,1.488,6.72,4.657,9.089,1.9-3,2.379-6.192,3.081-9.259C120.208,24.841,121.737,23.935,123.93,23.149Zm67.984,284.3-.763.771a21.13,21.13,0,0,0,1.737,2.175c.805.784,2.316.671,2.338-.1a2.451,2.451,0,0,0-.722-1.828A10.509,10.509,0,0,0,191.914,307.453ZM147.127,264.69a19.537,19.537,0,0,0-2.563,1.332c-.179.138-.073.643-.1.982.22-.02.52.044.644-.074C145.585,266.473,146,265.956,147.127,264.69ZM78.875,193.2c.245.424.371.641.5.86.035-.1.127-.24.092-.289A5.231,5.231,0,0,0,78.875,193.2Z" transform="translate(0 0)" fill="#dbdbdb"/><path d="M8.634,36.238A161.69,161.69,0,0,1,.692,7.506C.238,5.154-.552,2.766.588,0c.638.62,1.309.98,1.5,1.512C2.755,3.358,3.3,5.251,3.811,7.149q3.335,12.492,6.618,25C10.789,33.516,11.6,35.009,8.634,36.238Z" transform="translate(155.033 149.507)" fill="#dbdbdb"/><path d="M2.7,3.937C1.5,3.572.541,3.559.345,3.166A2.233,2.233,0,0,1,1,.064c.35-.216,1.571.163,1.624.424A19.016,19.016,0,0,1,2.7,3.937Z" transform="translate(158.495 117.457)" fill="#dbdbdb"/><path d="M0,0C6.929.308,22.94,5.226,33.714,10.442c2.545,1.233,5.668,1.856,7.059,4.843.077.164-.1.444-.156.671-.437.159-1,.578-1.289.438C27.012,10.467,14.012,6.344,1.172,1.794.825,1.67.659,1.037,0,0Z" transform="translate(113.896 235.894)" fill="#dbdbdb"/><path d="M0,.272C3.042-.583,5.071.736,7.116,2.048,6.858,3.527,6,4.412,4.628,3.919,2.918,3.306.7,3.219,0,.272Z" transform="translate(101.53 231.952)" fill="#dbdbdb"/><path d="M2.482,6.394C.062,5.022-.464,3.144.368.817A1.562,1.562,0,0,1,1.446.01,1.468,1.468,0,0,1,2.671.486C3.9,2.424,4.261,4.379,2.482,6.394Z" transform="translate(192.658 62.104)" fill="#dbdbdb"/><path d="M.008,0C3.64.319,4.992,2.511,5.852,5.125c.082.252-.807.972-1.359,1.227A1.668,1.668,0,0,1,3.15,6.073,6.344,6.344,0,0,1,.008,0Z" transform="translate(86.121 105.49)" fill="#dbdbdb"/><path d="M1.057,7.89C-.634,2.243-.511,1.874,3.016,0,2.291,2.919,1.674,5.4,1.057,7.89Z" transform="translate(216.639 112.783)" fill="#dbdbdb"/><path d="M1.407,7.788C.9,5.775.333,3.9.013,1.993A2.132,2.132,0,0,1,.839.184c1.057-.525,1.852.135,2.2,1.2A41.313,41.313,0,0,1,4.479,6.316,2.12,2.12,0,0,1,3.53,8.051C3.068,8.3,2.258,7.921,1.407,7.788Z" transform="translate(139.227 74.507)" fill="#dbdbdb"/><path d="M.077,2.108C.045,1.39-.055,1.043.04.977A4.257,4.257,0,0,1,1.779,0,4.436,4.436,0,0,1,3.65.663c.02.009-.1.615-.231.652C2.346,1.612,1.252,1.84.077,2.108Z" transform="translate(79.233 282.386)" fill="#dbdbdb"/><path d="M4.732,0A3.055,3.055,0,0,1,1.038,2.26C.648,2.207.031,1.845,0,1.573-.037,1.187.315.444.6.394,1.887.166,3.212.125,4.732,0Z" transform="translate(47.306 259.56)" fill="#dbdbdb"/><path d="M0,1.08C.087.724.065.242.273.1.534-.073.984.033,1.352.018,1.329.24,1.378.6,1.269.659A7.807,7.807,0,0,1,0,1.08Z" transform="translate(33.983 195.245)" fill="#dbdbdb"/><path d="M2.939,0c-.617,1.328-.7,1.841-.994,2.078C1.1,2.747,0,2.353,0,1.41A1.236,1.236,0,0,1,.68.534,15.26,15.26,0,0,1,2.939,0Z" transform="translate(32.745 230.583)" fill="#dbdbdb"/><path d="M0,3.8A20.1,20.1,0,0,1,.349.281C.405.059,1.769-.14,2.269.131c1.287.7,1.179,2.024.868,3.236-.1.4-.565.987-.877,1A9,9,0,0,1,0,3.8Z" transform="translate(164.116 33.199)" fill="#dbdbdb"/><path d="M3.115,2.728A17.722,17.722,0,0,1,.477,2.053,1.311,1.311,0,0,1,.011.9C.079.542.654-.052.85,0a9.3,9.3,0,0,1,2.426,1.1C3.433,1.209,3.208,1.911,3.115,2.728Z" transform="translate(60.285 166.448)" fill="#dbdbdb"/><path d="M5.847,3.171C3.369,4.277,1.694,2.9,0,1.646.014.375.7-.207,1.794.066,3.517.5,5.719.452,5.847,3.171Z" transform="translate(30.155 169.216)" fill="#dbdbdb"/><path d="M2.129,2.057a6.513,6.513,0,0,1-1.79-.346A1.229,1.229,0,0,1,.042.559C.352-.2,2-.183,2.357.583,2.5.889,2.249,1.378,2.129,2.057Z" transform="translate(14.489 193.168)" fill="#dbdbdb"/></g></svg>