<svg xmlns="http://www.w3.org/2000/svg" width="151.732" height="209.921" viewBox="0 0 151.732 209.921"><g transform="translate(44.092 1447.754)"><path d="M25.769-1444.524c5.741-1.441,10.9-.376,15.915,1.844a9.327,9.327,0,0,1,3.485,2.862c.628.791,1.228,1.6,1.7,2.217,2.446.613,4.7,1.142,6.932,1.744a26.514,26.514,0,0,1,7.934,3.7c1.759,1.185,3.529,2.358,5.344,3.455a2.882,2.882,0,0,1,1.492,2.48,27.717,27.717,0,0,1-.21,3.924,22.177,22.177,0,0,0,.366,7.83c.93,3.791,2.977,6.57,6.789,7.875,2.1.718,4.173,1.513,6.26,2.269.189.069.395.094.582.169,3.556,1.432,7.132,2.818,10.66,4.317,5.886,2.5,9.387,7.189,11.464,13.023a58.932,58.932,0,0,1,2.509,11.834,95,95,0,0,1,.631,11.8c.1,7.9-.154,15.782-.717,23.65a141.436,141.436,0,0,1-3.485,23.363c-.453,1.862-1.029,3.7-1.632,5.518a25.936,25.936,0,0,1-9.264,12.452c-2.4,1.851-4.757,3.767-7,5.8a38.988,38.988,0,0,0-5.018,5.232,33.874,33.874,0,0,0-6.21,14.337,20.255,20.255,0,0,0-.2,3.929c.023,2.224.111,4.448.218,6.669a5.474,5.474,0,0,1-1.1,3.686,27.346,27.346,0,0,1-7.133,6.92,86.557,86.557,0,0,1-12.46,6.869,56.779,56.779,0,0,1-12.8,3.658c-4.976.855-9.963,1.7-14.976,2.283a113.5,113.5,0,0,1-22.407.7,65.779,65.779,0,0,1-13.111-2.328c-7.576-2.221-15.02-4.786-21.8-8.957a30.381,30.381,0,0,1-9.026-7.987,20.776,20.776,0,0,1-3.267-6.794,11.112,11.112,0,0,1-.305-3.286c.188-4.646.494-9.287.685-13.933.253-6.16.394-12.326.667-18.485.238-5.351.638-10.694.883-16.044.152-3.333.15-6.673.217-10.01q.216-10.914.429-21.83c.023-1.213-.02-2.428.005-3.641a3.168,3.168,0,0,0-1.028-2.7,4.622,4.622,0,0,1-1.214-3.639c-.022-4.144-.045-8.29.041-12.433.059-2.826.293-5.649.462-8.473.357-5.954.759-11.906,1.071-17.862.221-4.239.29-8.485.492-12.725.278-5.851.392-11.718,1.439-17.506a7.407,7.407,0,0,1,.261-1.182,24,24,0,0,1,5.716-9.19,9.226,9.226,0,0,1,7.365-2.957,8.722,8.722,0,0,0,5.647-1.745c1.434-.941,2.9-1.844,4.4-2.676,5.763-3.2,11.576-3.054,17.406-.167.362.18.7.419,1.067.578a3.274,3.274,0,0,0,3.185-.132c.688-.424,1.391-.825,2.1-1.216a19.474,19.474,0,0,1,13.229-1.939A10.022,10.022,0,0,1,25.769-1444.524Zm-66.218,51.8c-.766.717-.567,1.675-.6,2.555q-.5,13.789-.953,27.582a21.872,21.872,0,0,0,.487,5.993,6.242,6.242,0,0,0,.325-1.107c.141-2.724.3-5.448.376-8.174.075-2.826.023-5.655.089-8.481.134-5.658.319-11.315.458-16.973a7.4,7.4,0,0,0-.259-1.457c.743-.97.458-2.113.49-3.186.057-1.909.019-3.82.02-5.731v-3.061a33.4,33.4,0,0,0-.408,6.319C-40.427-1396.538-40.44-1394.631-40.449-1392.724Zm33.377,48.557c-.578.238-.531.777-.63,1.26-.384,1.876-.691,3.775-1.211,5.614a2.253,2.253,0,0,1-2.519,1.739,3.06,3.06,0,0,1-2.99-1.7,15.56,15.56,0,0,1-1.217-3.092,29.5,29.5,0,0,1-.94-10.518,106.817,106.817,0,0,0,.339-11.208,15.4,15.4,0,0,0-.361-5.063,11.267,11.267,0,0,0-3.793-1.164c-.038,1.406-.1,2.611-.1,3.817-.017,7.077.168,14.149.322,21.224.27,12.432.118,24.874.134,37.312a27.551,27.551,0,0,1-.12,3.029,3.592,3.592,0,0,1-.556,1.355.783.783,0,0,1-1.276-.086,2.937,2.937,0,0,1-.3-.842,45.4,45.4,0,0,1-.408-4.525c-.033-5.256.008-10.513.039-15.77.028-4.85.161-9.7.1-14.552-.1-8.9-.372-17.79-.452-26.686-.056-6.166-.04-12.34.18-18.5.217-6.055.729-12.1,1.119-18.149a1.817,1.817,0,0,1,.192-.862,1,1,0,0,1,.706-.426.9.9,0,0,1,.7.443,5.733,5.733,0,0,1,.27,1.765q-.245,10-.541,20.005c-.083,2.921-.121,5.839.1,9.036,1.271.079,2.172,1.347,3.667.918.1-3.216.234-6.323.274-9.431.021-1.612-.222-3.229-.173-4.839.1-3.13.158-6.275.527-9.379a35.07,35.07,0,0,0-.1-7.549,9.446,9.446,0,0,0-3.593-7.065,6.927,6.927,0,0,1-2.683-5.836c0-1-.047-2-.076-3.1-4.634-1.976-9.5-2.975-14.067-4.98a4.128,4.128,0,0,0-.354,1q-.148,6.063-.246,12.129a8.318,8.318,0,0,0,.258,1.4c.682-.893,1.179-1.626,1.759-2.286,1.181-1.34,2.8-1.481,4.442-1.506a3.576,3.576,0,0,1,3.195,1.958c.235.376.27.714-.157.981a1.21,1.21,0,0,1-.282-.117c-.242-.18-.476-.37-.706-.564a2.925,2.925,0,0,0-4.056-.259,5.546,5.546,0,0,0-2.122,2.881c-.249.762-.408,1.553-.612,2.354l-1.6.155c-.045.487-.126.972-.128,1.458-.008,2.222-.013,4.444.015,6.666.15,11.731-.267,23.444-.894,35.158-.416,7.771-.455,15.561-.686,23.342s-.441,15.557-.749,23.332c-.34,8.584-.8,17.162-1.172,25.744-.2,4.545-.342,9.093-.491,13.639a17.967,17.967,0,0,0,.12,1.807,67.3,67.3,0,0,0,9.258,6.406c3.375,1.824,6.776,3.61,10.242,5.252a65.83,65.83,0,0,0,10.531,3.8,62.908,62.908,0,0,0,11.34,1.908c3.7.334,7.436.337,11.539.5-.566.429-.834.795-1.144.836a17.291,17.291,0,0,1-3.021.189c-3.634-.157-7.262-.454-10.9-.555a46.034,46.034,0,0,1-13.623-2.657c-1.528-.521-3.052-1.053-4.581-1.57a58.174,58.174,0,0,1-17.624-9.252c-.7-.548-1.4-1.092-2.206-1.723-.191.447-.433.734-.377.939a4.3,4.3,0,0,0,.686,1.638,58.352,58.352,0,0,0,7.9,7.938,51.4,51.4,0,0,0,15.093,8.236c.949.339,1.933.586,2.873.946a3.582,3.582,0,0,1,.935.725.292.292,0,0,1,.037.279c-.092.152-.221.38-.353.393a2.886,2.886,0,0,1-1.185-.042,47.618,47.618,0,0,1-5.952-2.187c-3.425-1.72-6.75-3.647-10.081-5.55a35.124,35.124,0,0,1-9.48-7.938l-.127-.032.207-.009c-.4.86.039,1.564.422,2.276a27.4,27.4,0,0,0,9.64,9.882,73.828,73.828,0,0,0,19.679,8.535,82.9,82.9,0,0,0,27.3,3.09,183.1,183.1,0,0,0,23.763-2.782,68.7,68.7,0,0,0,10.568-2.654,66.406,66.406,0,0,0,17.029-9.145,6.514,6.514,0,0,0,1.169-.956c.268-.311.828-.666.344-1.122-2.289.966-4.467,2.073-6.763,2.815-4.418,1.428-8.895,2.677-13.367,3.933a3.7,3.7,0,0,1-3.11-.035,5.674,5.674,0,0,1,1.135-.635,87.717,87.717,0,0,0,16.665-6.387c2.54-1.238,5.037-2.582,7.468-4.021,1.5-.888,1.3-2.133-.383-3.141-1.633.749-3.31,1.453-4.93,2.271a76.04,76.04,0,0,1-18.012,6.172,132.209,132.209,0,0,1-19.79,2.79,17.217,17.217,0,0,1-2.724.013c-.281-.026-.523-.485-.783-.746.281-.255.523-.635.851-.733a5.217,5.217,0,0,1,1.5-.1,37.119,37.119,0,0,0,7.531-.761c3.168-.637,6.328-1.314,9.488-1.985a90.852,90.852,0,0,0,25.082-9.637c.784-.433,1.531-.934,2.387-1.46.031-1.159.136-2.263.075-3.359-.15-2.72-.4-5.435-.567-8.155q-.615-10.29-1.179-20.583c-.313-5.856-.582-11.715-.853-17.574-.313-6.765-.648-13.53-.9-20.3-.28-7.58-.458-15.163-.716-22.743-.12-3.536-.313-7.069-.5-10.6a12.593,12.593,0,0,0-.362-1.773l-9.991,3.948c0,.394-.026.794,0,1.189.259,3.426.624,6.847.775,10.277.354,7.979.605,15.962.9,23.944.018.5.091,1.005.13,1.509.271,3.423.613,6.843.792,10.271.327,6.258.469,12.527.861,18.781.252,4.029.728,8.05,1.274,12.051a30.574,30.574,0,0,0,1.4,5.259,3.064,3.064,0,0,0,1.771,2.232c.783.139,1.518-.968,2.306.2l-2.085,2.273a3.709,3.709,0,0,1-3.808-2.208,23.874,23.874,0,0,1-2.562-7.421c-.365-2.4-.592-4.81-.923-7.211a174.5,174.5,0,0,1-1.441-18.424c-.24-7.681-.4-15.364-.6-23.046-.058-2.224-.142-4.447-.213-6.67q-.258-8.182-.515-16.365c-.049-1.616-.048-3.235-.116-4.852-.11-2.623-.252-5.246-.393-7.868a7.4,7.4,0,0,1,.636-3.363,1.192,1.192,0,0,1,1.021,1.161c.163,1.507.292,3.018.456,4.525.06.554.181,1.1.3,1.783,1.878-.761,3.569-1.422,5.241-2.128,1.653-.7,3.472-1.053,4.953-2.239.029-.557.084-1.055.076-1.551-.154-10.312-.13-20.626-.729-30.929a5,5,0,0,0-1.936-3.9c-.71-.566-1.5-1.036-2.212-1.595-.248-.194-.737-.373-.418-.881,1.608-.192,2.532,1.442,4.182,1.656a26.6,26.6,0,0,0-.352-7.742c-.482.212-.857.342-1.2.532a51.208,51.208,0,0,1-12.988,4.949A135.158,135.158,0,0,1,26.5-1412.25c-3.029.158-6.057.347-9.085.534a3.63,3.63,0,0,0-1.477.207c-1.646.92-3.239,1.933-4.852,2.912l.118-.08c-1.011.021-2.024.012-3.033.068a42.47,42.47,0,0,0-8.4,1.09,7,7,0,0,0-4.6,3.611,8.626,8.626,0,0,0-.955,3.149c-.768,5.615-1.128,11.265-1.361,16.924-.188,4.545.209,9.1-.405,13.641a9.66,9.66,0,0,0,.068,2.418c.043.358.316.735.932.39.036-.332.066-.723.124-1.111a4.814,4.814,0,0,1,.294-1.456,1.258,1.258,0,0,1,.937-.6,1.306,1.306,0,0,1,.849.673,2.59,2.59,0,0,1,.236,1.178c.109,5.056.27,10.112.275,15.168,0,4.551-.228,9.1-.251,13.652-.083,16.185-.117,32.37-.185,48.555a22.361,22.361,0,0,1-.232,3.014.96.96,0,0,1-1.06.884c-.051-.058-.156-.121-.162-.192-.1-1.2-.163-2.406-.295-3.6-.8-7.249-.823-14.539-.936-21.811-.152-9.708.065-19.421.1-29.132a14.154,14.154,0,0,0-.289-2.058,4.133,4.133,0,0,0,.3-.448c.021-.04-.064-.136-.1-.206ZM61.295-1426.9a2.22,2.22,0,0,0-.571-2.012c-1.8-1.606-3.313-3.646-5.607-4.558-2.508-1-5.007-2.237-7.864-1.86a2.721,2.721,0,0,1-2.416-1.014,15.368,15.368,0,0,1-1.2-1.366,14.143,14.143,0,0,0-8.9-5.328,15.222,15.222,0,0,0-6.013-.483c-.677.125-1.406.166-1.749.976-.317.751-.965.679-1.5.331a18.334,18.334,0,0,1-1.887-1.519,8.733,8.733,0,0,0-5.534-2.148,15.1,15.1,0,0,0-7.111,1.17c-1.736.811-3.411,1.753-5.1,2.652-1.151.611-2.288,1.248-3.337,1.821l-4.951-3.283c-2.727-1.809-5.636-1.9-8.716-1.077-3.78,1.005-6.856,3.3-10.547,5.323,1.318.388,2.238.7,3.177.927,1.176.29,2.375.491,3.549.789a3.059,3.059,0,0,1,1.016.6c.061.046-.023.46-.1.483a2.55,2.55,0,0,1-1.133.166c-2.374-.489-4.76-.945-7.1-1.578a20.429,20.429,0,0,0-5.414-.465,4.239,4.239,0,0,0-2.547.85c-3.272,2.389-7.07,7.149-5.132,13.2a12.4,12.4,0,0,0,4.873,2.244c2.415.734,4.883,1.294,7.294,2.039,3.009.929,3.674.921,3,4.652a6.924,6.924,0,0,0,2.6,7,8.5,8.5,0,0,1,3.293,7.12c-.09,6.776.042,13.554,0,20.33-.061,9.81-.217,19.62-.285,29.43-.016,2.322.074,4.652.259,6.967a15.751,15.751,0,0,0,1.752,6.389c.275.5.579,1.088,1.5.858a6.065,6.065,0,0,0,.422-1.317c.2-2.011.432-4.026.469-6.042.078-4.246.016-8.494.054-12.74.052-5.967.025-11.938.248-17.9.249-6.664.431-13.334,1.082-19.98a35.16,35.16,0,0,1,1.847-8.56,6.822,6.822,0,0,1,5.116-4.71,56.135,56.135,0,0,1,6.842-1.246c6.655-.594,5.965-.719,10.287-3.746a2.3,2.3,0,0,0,.247-.176,3.978,3.978,0,0,1,2.793-.926c6.167-.117,12.31-.576,18.449-1.195a97.742,97.742,0,0,0,19.265-3.9,48.3,48.3,0,0,0,6.131-2.595,7.074,7.074,0,0,0,3.664-4.222c-1.583-.306-1.622-.353-2.056,0-2.885,2.35-6.371,3.443-9.778,4.7-.543.2-1.114.548-1.856.006.733-1.092,2.015-1.132,3.026-1.611,1.095-.52,2.22-.974,3.332-1.457S60.859-1425.82,61.295-1426.9Zm33.77,71.238-.234-.019c.045-.5.113-1.005.131-1.509.242-6.881.319-13.761-1.91-20.4-2.212-6.585-5.855-11.873-12.893-14.174-4.524-1.478-8.909.707-10.106,5.36-.4,1.562-.741,3.142-1.059,4.724a7.576,7.576,0,0,0-.122,1.8c.348,8.375.724,16.749,1.064,25.124.087,2.12.029,4.245.113,6.365.29,7.266.622,14.53.919,21.8.115,2.826.145,5.657.287,8.482a8.7,8.7,0,0,0,.533,3.254,25.637,25.637,0,0,0,2.663,4.028,4.161,4.161,0,0,0,4.87,1.478,20.925,20.925,0,0,0,3.141-1.109c2.618-1.221,4.886-2.864,6.019-5.668a47.994,47.994,0,0,0,1.928-5.087,102.8,102.8,0,0,0,3.17-16.644C94.205-1343.775,94.58-1349.722,95.065-1355.658ZM73.722-1281.38a16.268,16.268,0,0,0,1.208-2.086,23.223,23.223,0,0,1,6.671-9.252,108.411,108.411,0,0,1,8.28-7.091,25.057,25.057,0,0,0,9.271-13.133c.354-1.16.724-2.32.993-3.5a145.642,145.642,0,0,0,3.109-20.371,265.079,265.079,0,0,0,.707-32.441,60.266,60.266,0,0,0-3.236-17.23c-2.048-5.951-5.818-10.333-11.834-12.577-.851-.318-1.68-.708-2.547-.97A135.184,135.184,0,0,1,72-1405.757c-1.251-.541-2.413-1.289-3.83-2.059,0,.867-.025,1.469,0,2.068q.306,6.345.644,12.689a2.565,2.565,0,0,0,.351.781c.745-.233,1.434-.39,2.077-.658,4.206-1.758,8.252-1.207,12.334.565,3.466,1.505,5.995,4.06,8.413,6.795a15.1,15.1,0,0,1,3.285,5.752,58.425,58.425,0,0,1,2.578,14.888c.146,5.263-.249,10.51-.455,15.764a140.775,140.775,0,0,1-2.609,21.956,52.474,52.474,0,0,1-3.5,11.895,12.267,12.267,0,0,1-5.658,6.1,17.783,17.783,0,0,1-4.466,1.823c-3.143.61-6.282.671-8.583-2.229-.1-.131-.354-.144-.6-.237a2.992,2.992,0,0,0-.19.8q.363,7.713.771,15.423c.008.154.192.3.295.45.192-.036.471,0,.563-.118,2.687-3.348,6.1-5.889,9.432-8.52.5-.4.849-1.218,1.745-.883.51.19.192.9-.884,1.919-.366.348-.792.635-1.14,1-2.03,2.112-4.1,4.188-6.047,6.375a14.364,14.364,0,0,0-3.2,6.458A9.278,9.278,0,0,0,73.722-1281.38Zm-80.7-67.831.278-.009q.036-7.982.064-15.964a.413.413,0,0,0-.136-.262c-.04-.038-.145-.007-.391-.007a8.844,8.844,0,0,0-.333,1.345,20.4,20.4,0,0,0-.133,2.7c.118,3.308.274,6.615.433,9.921C-7.163-1350.724-7.056-1349.968-6.982-1349.211Zm.051,1.89.055.207.05-.206Z" fill="#fff"/><path d="M11.091-1408.6c1.5.159,3.009.265,4.5.5.838.131,1.115.776.893,1.771-.384.1-.84.233-1.3.325a38.136,38.136,0,0,0-5.317,1.079c-3.588,1.271-5.638,3.816-5.523,7.788q.122,4.236.314,8.471c.189,4.036.48,8.063.266,12.114-.138,2.619,0,5.252.024,7.879,0,.175.156.348.24.522,4.895.894,15.727,1.177,19.74.472a11.635,11.635,0,0,0,.3-1.613,129.571,129.571,0,0,0-.49-16.342q-.315-4.228-.875-8.436A21.568,21.568,0,0,0,18.5-1406.32c.343-.674.9-.47,1.283-.294a8.584,8.584,0,0,1,4.077,3.91,29.547,29.547,0,0,1,2.917,8.889c1.272,7.514,1.266,15.091,1.032,22.674-.137,4.443-.323,8.884-.513,13.325-.117,2.723-.387,5.443-.408,8.165-.053,6.771-.01,13.542.014,20.314,0,1.008.122,2.015.168,3.024a5.615,5.615,0,0,1-.035,1.189,1.205,1.205,0,0,1-1.421.834,1.353,1.353,0,0,1-.8-.749,7.092,7.092,0,0,1-.206-1.8c-.332-9.2-.315-18.389.2-27.581.2-3.529.216-7.068.3-10.6a2.615,2.615,0,0,0-.273-.719,6.048,6.048,0,0,0-1.035-.114,104.6,104.6,0,0,1-14.843-.035,10.06,10.06,0,0,0-4,.173c-.089.926-.172,1.82-.263,2.714a2.084,2.084,0,0,1-.142.886,2.17,2.17,0,0,1-.842.668,1.076,1.076,0,0,1-.488-.6c-.112-1.205-.181-2.416-.214-3.627-.118-4.24-.18-8.482-.329-12.721-.222-6.36-.509-12.715-.613-19.081a10.573,10.573,0,0,1,7.238-10.4c.654-.208,1.272-.527,1.907-.8Z" fill="#fff"/><path d="M50.916-1306.753c-1.466-.124-1.8-.313-1.937-1.076a6.358,6.358,0,0,1-.085-.9c-.273-7.369-.7-14.737-.771-22.109-.084-9.2.145-18.4.214-27.6.023-3.031-.026-6.062-.06-9.092a10.358,10.358,0,0,0-.205-1.323c-1.367.226-2.623.468-3.889.633-1.4.183-2.811.32-4.22.433-1.287.1-2.579.146-3.968.222-.062,3.171-.025,6.185.179,9.2.15,2.218.283,4.438.377,6.66q.237,5.6.408,11.211c.051,1.717.032,3.438,0,5.156q-.087,5.457-.225,10.912a10.286,10.286,0,0,1-.34,3.548.812.812,0,0,1-1.13-.717c-.209-1.905-.439-3.817-.475-5.731-.1-5.459-.038-10.922-.187-16.38-.2-7.376-.6-14.747-.8-22.124-.073-2.722.179-5.452.293-8.178a1.183,1.183,0,0,1,.167-.57.666.666,0,0,1,.426-.312.6.6,0,0,1,.49.241,5.264,5.264,0,0,1,.4,1.418c.107,1.2.138,2.4.2,3.543,3.074.7,8.808-.047,12.309-1.565a10.253,10.253,0,0,0,.1-1.119c-.032-3.843.061-7.692-.15-11.525-.327-5.944-.359-11.922-1.619-17.785a13.711,13.711,0,0,0-2.938-6.551c.51-.716,1.078-.3,1.536-.041a5.794,5.794,0,0,1,2.26,2.775,26.529,26.529,0,0,1,2.046,8.513c.7,6.333.867,12.694,1,19.064.335,15.472.189,30.942.114,46.415-.028,5.957.4,11.916.6,17.874.06,1.718.113,3.437.115,5.155A11.438,11.438,0,0,1,50.916-1306.753Z" fill="#fff"/><path d="M3.336-1353.789c.97-.34,1.611-.13,1.828.708a10.468,10.468,0,0,1,.321,2.391c.078,3.94.164,7.881.151,11.822-.023,6.368.119,12.749-.249,19.1-.461,7.983-.283,15.962-.406,23.943a95.232,95.232,0,0,0,.555,12.709,18.2,18.2,0,0,0,2.349,6.5,3.442,3.442,0,0,0,2.36,1.747,16.956,16.956,0,0,0,9.243-.637,6.045,6.045,0,0,0,3.95-3.919c.63-1.8,1.115-3.66,1.643-5.5.2-.705.436-1.345,1.472-1.438a5.811,5.811,0,0,1,.228,3.734,20.083,20.083,0,0,1-1.437,4.6c-1.094,2.385-3.337,3.492-5.68,4.19a21.29,21.29,0,0,1-10.476.73,5.616,5.616,0,0,1-4.545-3.535,21.9,21.9,0,0,1-1.256-4.039,74.135,74.135,0,0,1-1.155-13.862c.067-5.05.308-10.1.411-15.149.134-6.565.6-13.117.492-19.693-.089-5.252.128-10.508.166-15.763.016-2.222-.1-4.444-.115-6.667C3.18-1352.5,3.287-1353.178,3.336-1353.789Z" fill="#fff"/><path d="M-28.323-1300.095c-.2-.31-.544-.609-.58-.942a25.609,25.609,0,0,1-.13-3.023c.082-8.791.132-17.584.288-26.375.125-7.069.378-14.137.587-21.2.146-4.946.331-9.891.46-14.838a12.4,12.4,0,0,0-.13-3.859c-1.816-.795-3.576-1.53-5.3-2.341a4.336,4.336,0,0,1-1.394-1.086,1.192,1.192,0,0,1-.185-1.076,1.116,1.116,0,0,1,1.033-.207c.844.328,1.63.8,2.447,1.2a7.343,7.343,0,0,0,3.324,1.053,6.676,6.676,0,0,0,.473-1.573c.125-2.319.217-4.643.242-6.966.067-6.364.1-12.729.137-19.093.008-1.195,0-2.391,0-3.853.441.39.861.584.958.882a11.6,11.6,0,0,1,.6,2.648c.19,2.516.39,5.039.387,7.56,0,4.95-.1,9.9-.234,14.849-.265,10.1-.583,20.2-.865,30.3-.13,4.643-.258,9.286-.33,13.93-.052,3.329-.011,6.659-.011,10.151l1.869.527c.683,1.338.352,2.766.278,4.149-.238,4.435-.548,8.865-.808,13.3-.065,1.109-.027,2.223-.082,3.333a10.956,10.956,0,0,1-.469,1.681c-.729-3.44-.257-6.245-.3-9.027-.037-2.713-.008-5.428-.008-8.666-.457.609-.712.791-.72.982-.2,5.144-.36,10.289-.561,15.433C-27.369-1301.486-27.279-1300.61-28.323-1300.095Z" fill="#fff"/><path d="M35.547-1316.192a.827.827,0,0,1,1.123.765c.175,1.3.319,2.6.411,3.912.475,6.749.711,13.505.8,20.27.035,2.617.367,5.233.634,7.841a6.631,6.631,0,0,0,2.226,4.49,4.791,4.791,0,0,0,7.694-1.206,10.974,10.974,0,0,0,1.167-3.407,29.486,29.486,0,0,0,.321-4.52c.074-4.339.082-8.679.146-13.018.012-.869-.2-1.853.76-2.45a1.624,1.624,0,0,1,1.488,1.631,36.718,36.718,0,0,1,.417,4.816c-.058,3.933-.17,7.87-.448,11.792a17.549,17.549,0,0,1-1.142,4.367,8.806,8.806,0,0,1-1.331,2.36c-1.98,2.616-4.073,3.367-7.161,2.3-3.235-1.112-5.551-3.2-6.227-6.77a44.887,44.887,0,0,1-.553-9.053c.087-5.958.133-11.91-.362-17.858A23.191,23.191,0,0,1,35.547-1316.192Z" fill="#fff"/><path d="M31.706-1333.592c.167,2.8.385,5.6.49,8.405.229,6.153.471,12.307.57,18.462.064,4.031-.126,8.066-.178,12.1-.023,1.711-.039,3.424.04,5.132.224,4.838.507,9.673.75,14.509a29.027,29.027,0,0,0,1.176,7.109c-.414.488-.747.121-1.032-.1a3.392,3.392,0,0,1-1.3-2.313,77.044,77.044,0,0,1-.93-7.8c-.167-7.366-.135-14.736-.18-22.1q-.08-12.869-.154-25.738c-.013-2.119-.033-4.238-.015-6.357a8.927,8.927,0,0,1,.239-1.425Z" fill="#fff"/><path d="M-21.636-1296.574c.71-.4,1.207-.318,1.452.2a5.076,5.076,0,0,1,.307,1.453,86.625,86.625,0,0,0,1.293,8.664,31.307,31.307,0,0,0,2.69,6.381,7.224,7.224,0,0,0,2.048,2.184,4.075,4.075,0,0,0,5.288.022,3.469,3.469,0,0,0,.9-1.178c.318-.626.491-1.325.808-1.952.111-.219.619-.492.68-.438.271.237.643.6.623.891-.224,3.3-.859,4.1-3.773,5.123a6.656,6.656,0,0,1-6.826-1.163,16.515,16.515,0,0,1-5.453-9.861,50.687,50.687,0,0,1-.477-7.231A10.119,10.119,0,0,1-21.636-1296.574Z" fill="#fff"/><path d="M35.717-1382.718c-.577,1.2.339,2.52-.646,3.69-.3-.225-.773-.392-.872-.685a11.66,11.66,0,0,1-.6-2.632c-.444-4.916-.863-9.835-1.227-14.758a34.628,34.628,0,0,1-.009-4.533,9.907,9.907,0,0,1,3.429-7.163,9.586,9.586,0,0,1,2.585-1.488,2.554,2.554,0,0,1,1.428.169.672.672,0,0,1,.246,1.01,4.607,4.607,0,0,1-.726.525,8.065,8.065,0,0,0-3.906,5.505,20.539,20.539,0,0,0-.644,5.072c.1,4.426.4,8.848.64,13.514.865-.369,1.469-.677,2.108-.872a.818.818,0,0,1,.748.257.848.848,0,0,1-.173.8C37.389-1383.764,36.614-1383.3,35.717-1382.718Z" fill="#fff"/><path d="M.321-1279.433a5.709,5.709,0,0,1-1.273-3.716c-.153-2.115-.3-4.239-.286-6.358q.129-15.313.355-30.626c.117-8.285.276-16.57.429-24.855a5,5,0,0,1,.385-2.819c.883.137.8.722.8,1.175-.031,4.447.017,8.9-.156,13.34-.453,11.619-.538,23.241-.5,34.865.013,4.043.052,8.086.141,12.127.036,1.614.259,3.222.353,4.835A15.084,15.084,0,0,1,.321-1279.433Z" fill="#fff"/><path d="M67.9-1293.428c-.851-.263-.845-1.028-.9-1.681-.266-3.017-.563-6.035-.709-9.059-.281-5.849-.5-11.7-.685-17.554-.12-3.733-.128-7.468-.215-11.2-.054-2.321-.168-4.64-.239-6.961-.015-.494.043-.991.092-1.969.491.728.908,1.067.94,1.441.148,1.708.166,3.428.272,5.141.374,6.046.828,12.087,1.133,18.137.269,5.342.367,10.693.565,16.04.072,1.915.226,3.828.32,5.743C68.507-1294.666,68.637-1293.928,67.9-1293.428Z" fill="#fff"/><path d="M66.372-1287.88c-.224-.064-.6-.056-.69-.214a19.69,19.69,0,0,1-1.734-3.158,33.21,33.21,0,0,1-1.985-9.125c-.609-7.957-.666-15.923-.583-23.9.045-4.336-.065-8.674-.079-13.012,0-.677.137-1.355.258-2.464.488.606.877.866.9,1.158.125,1.405.2,2.818.207,4.229.047,6.257,0,12.515.119,18.769.1,5.042.273,10.089.642,15.117a29.624,29.624,0,0,0,2.689,11.1,8.16,8.16,0,0,1,.415,1.136C66.555-1288.174,66.464-1288.075,66.372-1287.88Z" fill="#fff"/><path d="M55.2-1385.774c-.816.294-1.36.116-1.55-.595a13.866,13.866,0,0,1-.419-2.385,114.876,114.876,0,0,1-.724-15.435,31.868,31.868,0,0,1,.606-4.8,3.662,3.662,0,0,1,2.236-3.032c.289-.1.684.095,1.076.162-1.728,4.1-1.821,4.216-1.759,8.963.04,3.128.322,6.252.482,9.378.109,2.12.213,4.241.275,6.363A6.919,6.919,0,0,1,55.2-1385.774Z" fill="#fff"/><path d="M-32.6-1312.665a159.153,159.153,0,0,1,.088-16.179,13.808,13.808,0,0,1,.486-2.344.533.533,0,0,1,.454-.244.625.625,0,0,1,.424.342,2.5,2.5,0,0,1,.137.874c-.041,4.331-.1,8.661-.14,12.992a23.023,23.023,0,0,0,.069,2.719c.687,6.238.345,12.488.261,18.735,0,.3-.019.6-.048.906-.059.619-.486,1.135-.846,1.016a1.135,1.135,0,0,1-.792-1.156c-.011-1.613,0-3.226.038-4.838A87.6,87.6,0,0,0-32.6-1312.665Z" fill="#fff"/><path d="M26.189-1290.7c-.6.079-.895-.18-.919-.62-.1-1.91-.195-3.822-.249-5.734q-.241-8.617-.443-17.236a14.842,14.842,0,0,1,.149-2.7c.04-.246.558-.5.9-.579a.824.824,0,0,1,.669.445,6.122,6.122,0,0,1,.313,1.765q.093,10.437.138,20.874A9.691,9.691,0,0,1,26.189-1290.7Z" fill="#fff"/><path d="M-36.058-1275.485c4.967,2.782,10.17,4.35,15.364,5.937,2.789.853,5.6,1.641,8.388,2.486.754.229,1.595.4,1.835,1.435-.274.062-.572.23-.807.167-7.281-1.95-14.68-3.512-21.657-6.474a32.28,32.28,0,0,1-3.221-1.624C-36.658-1273.842-36.611-1274.487-36.058-1275.485Z" fill="#fff"/><path d="M-31.963-1367.421c.917-.176,1.364.209,1.491.862a12.55,12.55,0,0,1,.231,2.4c-.005,2.92-.028,5.841-.1,8.759-.111,4.731-.257,9.461-.41,14.191a16.032,16.032,0,0,1-.293,1.863c-.387-.338-.721-.488-.782-.712a5.63,5.63,0,0,1-.156-1.491c.041-5.74.11-11.479.136-17.219.01-2.012-.083-4.024-.118-6.037C-31.976-1365.689-31.963-1366.572-31.963-1367.421Z" fill="#fff"/><path d="M59.9-1269.439a7.822,7.822,0,0,1-1.287,1.5,9.288,9.288,0,0,1-1.939.808,77.845,77.845,0,0,1-12.785,3.419,30.515,30.515,0,0,1-4.186.243c-.107,0-.3-.262-.316-.418a.619.619,0,0,1,.2-.516,3.912,3.912,0,0,1,1.093-.434c5.99-1.278,11.914-2.808,17.756-4.655A5.46,5.46,0,0,1,59.9-1269.439Z" fill="#fff"/><path d="M-38.738-1296.171c0-.132-.013-.335,0-.536.038-.488,0-1.013.581-1.256.442-.185,1.006.323,1.08,1.155a17.621,17.621,0,0,0,2.237,7.477,12.2,12.2,0,0,0,.98,1.523,1.62,1.62,0,0,0,2.6.083,13.579,13.579,0,0,1,1-1.117.932.932,0,0,1,.844-.009.956.956,0,0,1,.419.734A2.729,2.729,0,0,1-31.7-1285.4c-2.044.017-3.784-.62-4.752-2.6A20.023,20.023,0,0,1-38.738-1296.171Z" fill="#fff"/><path d="M60.393-1410.657a.854.854,0,0,1,1.339.3,9.96,9.96,0,0,1,1.164,2.418,43.952,43.952,0,0,1,1.491,11.3,1.65,1.65,0,0,1-.176.865,1.027,1.027,0,0,1-.666.495.866.866,0,0,1-.683-.444,7.221,7.221,0,0,1-.246-1.465c-.422-3.178-.356-6.415-1.144-9.547C61.139-1408.06,60.749-1409.371,60.393-1410.657Z" fill="#fff"/><path d="M-1.085-1403.066c.089,1.122.24,2.009.217,2.892-.185,7.039.017,14.1-.8,21.1-.888,0-.974-.5-.957-1.015.069-2.114.2-4.227.243-6.341.1-4.839.136-9.679.233-14.518C-2.134-1401.595-2.372-1402.385-1.085-1403.066Z" fill="#fff"/><path d="M62.461-1346.569c-1.047.034-1.009-.656-1.037-1.238-.16-3.228-.317-6.457-.439-9.687q-.171-4.543-.26-9.089a22.022,22.022,0,0,1,.182-2.2c.433.23.764.3.889.5a1.848,1.848,0,0,1,.147.875q.328,9.237.635,18.475C62.6-1348.146,62.5-1347.352,62.461-1346.569Z" fill="#fff"/><path d="M18.842-1306.7c-.514-.039-.963.06-1.22-.118a11.49,11.49,0,0,1-1.828-1.577q-4.243-4.531-8.432-9.114a5.809,5.809,0,0,1-.59-.921c.344-.826.817-.992,1.476-.579a1.07,1.07,0,0,1,.233.19q4.909,5.559,9.809,11.128A6.444,6.444,0,0,1,18.842-1306.7Z" fill="#fff"/><path d="M-21.842-1273.754c-.808-.389-1.244-.466-1.453-.725a9.216,9.216,0,0,1-1.5-2.218,21.1,21.1,0,0,1-.9-12.586,6.767,6.767,0,0,1,.766,1.685,28.829,28.829,0,0,1,.064,3.92,13.245,13.245,0,0,0,2.575,8.786A8.27,8.27,0,0,1-21.842-1273.754Z" fill="#fff"/><path d="M30.629-1348.164c-.069-.682-.173-1.362-.2-2.045-.1-2.6-.194-5.2-.243-7.8a17.833,17.833,0,0,1,.186-2.68.745.745,0,0,1,.6-.429.854.854,0,0,1,.539.594q.042,5.856-.006,11.713c0,.232-.25.462-.384.693Z" fill="#fff"/><path d="M32.65-1408.562c-.173.386-.22.713-.408.874a17.369,17.369,0,0,0-3.267,3.483c-.623.93-1.446.809-2.169-.121-.672-.863-1.39-1.691-2.065-2.553-.35-.446-.651-.931-.943-1.353a.67.67,0,0,1,1.118-.116c.886.79,1.729,1.627,2.672,2.524C29.23-1406.806,30.151-1409.089,32.65-1408.562Z" fill="#fff"/><path d="M64.72-1379.3c-.35-.221-.771-.341-.909-.608a3.485,3.485,0,0,1-.354-1.433c-.092-2.291-.146-4.585-.181-6.878a2.255,2.255,0,0,1,.309-.775c.236.064.531.061.58.17C64.928-1387.147,65.269-1381.6,64.72-1379.3Z" fill="#fff"/><path d="M-34.788-1308.71a1.2,1.2,0,0,1-1.257-1.208c-.13-2.2-.187-4.4-.2-6.6a1.032,1.032,0,0,1,.73-.72c.3,0,.636.369.9.636a.926.926,0,0,1,.116.574c.019,2.108.044,4.215.025,6.322A3.5,3.5,0,0,1-34.788-1308.71Z" fill="#fff"/><path d="M51.339-1272.412c1.892-2.175,2.2-2.619,2.68-5.231.347-1.882.458-3.807.67-5.714.062-.559.111-1.12.166-1.675a.765.765,0,0,1,.826.86c-.159,2.918.029,5.893-.983,8.694a19.988,19.988,0,0,1-1.744,3.151C52.818-1272.095,52.771-1272.123,51.339-1272.412Z" fill="#fff"/><path d="M10.158-1263.359a5.611,5.611,0,0,1-1.343.207c-3.033-.269-6.119-.115-9.438-.963.45-.387.639-.687.82-.683,2.9.067,5.792.15,8.685.293a4.4,4.4,0,0,1,1.335.554Z" fill="#fff"/><path d="M-22.528-1409.531c-.38.075-.668.2-.72.132a5.281,5.281,0,0,1-.811-1.237c-.949-2.357-2.865-3.291-5.207-3.568a20.218,20.218,0,0,0-2.361-.014c-.085-.663.217-.834.643-.915a7.907,7.907,0,0,1,4.732.7C-24.21-1413.537-22.661-1412.173-22.528-1409.531Z" fill="#fff"/><path d="M27.875-1263.261c-.313.187-.624.53-.94.533-2.187.024-4.376-.009-6.564-.073a.809.809,0,0,1-.583-.534c-.02-.19.311-.6.488-.6C22.756-1263.945,25.245-1264.126,27.875-1263.261Z" fill="#fff"/><path d="M3.619-1269.249c-.178-.021-.432.025-.521-.075A13.611,13.611,0,0,1-.249-1275.9a.821.821,0,0,1,.415-.678.8.8,0,0,1,.733.275c1,2.161,1.954,4.342,2.895,6.528C3.849-1269.647,3.683-1269.426,3.619-1269.249Z" fill="#fff"/><path d="M22.5-1244.2a6.738,6.738,0,0,1-1.6-.157,42.276,42.276,0,0,1-6.178-4.123c.126-.6.559-.835.9-.666A26.168,26.168,0,0,1,22.5-1244.2Z" fill="#fff"/><path d="M-16.917-1297.843c.535-.794,1.055-.58,1.416-.269,1.517,1.3,2.989,2.661,4.468,4.008.05.045.007.193.007.292C-12.57-1293.6-13.691-1294.366-16.917-1297.843Z" fill="#fff"/><path d="M-1.913-1373.864c.748,3.313.765,5.082.143,7.009a2.588,2.588,0,0,1-.9-2.2C-2.891-1371.927-2.84-1372.322-1.913-1373.864Z" fill="#fff"/><path d="M44.654-1380.534c.023.253.067.358.034.427-.7,1.475-2.111,1.4-3.387,1.435a2.6,2.6,0,0,1-2.5-1.416c-.333-.624-.346-1.16.437-1.453a9.548,9.548,0,0,0,2.569,1.368A9.194,9.194,0,0,0,44.654-1380.534Z" fill="#fff"/><path d="M50.153-1407.241c-1.97-.994-2.446-2.8-3.762-3.764.344-.624.7-.655,1.036-.358.673.591,1.309,1.223,1.964,1.843,1.072-.111,1.263-1.825,2.608-1.441.049.158.189.37.132.466C51.532-1409.468,50.9-1408.46,50.153-1407.241Z" fill="#fff"/><path d="M10.372-1319.678c.547-.2.805-.379.9-.316a27.316,27.316,0,0,1,5.7,6.032c-.389.627-.757.548-1.055.232C14.118-1315.634,12.344-1317.556,10.372-1319.678Z" fill="#fff"/><path d="M15.364-1388.219a2.752,2.752,0,0,1-3.029,1.847,3.072,3.072,0,0,1-3.07-2.554,4.158,4.158,0,0,1,1.138-.216,1.269,1.269,0,0,1,.723.465,2.3,2.3,0,0,0,3.18.63A4.959,4.959,0,0,1,15.364-1388.219Z" fill="#fff"/><path d="M44.845-1342.233c-1.541.436-1.546.433-5.678-2.438.6-.18,1.1-.508,1.486-.413A7.743,7.743,0,0,1,44.845-1342.233Z" fill="#fff"/><path d="M-11.817-1300.268a11.941,11.941,0,0,1-5.032-4.24c.287-.1.634-.336.8-.245A10.5,10.5,0,0,1-11.817-1300.268Z" fill="#fff"/><path d="M42.728-1398.843c.153.5.374.818.293,1.012a3.081,3.081,0,0,1-4.862,1.392c-.166-.116-.2-.5-.182-.759.008-.111.3-.28.462-.285a1.957,1.957,0,0,1,.854.155,1.827,1.827,0,0,0,2.7-.942C42.071-1398.422,42.284-1398.505,42.728-1398.843Z" fill="#fff"/><path d="M16.284-1244.889a1.105,1.105,0,0,1-1.378.021,9.759,9.759,0,0,1-3.844-3.185c.292-.085.616-.3.837-.225A11.691,11.691,0,0,1,16.284-1244.889Z" fill="#fff"/><path d="M16.358-1320.352a1.346,1.346,0,0,1-.22.2.448.448,0,0,1-.271.069,1.1,1.1,0,0,1-.557-.162c-1.205-1.17-2.39-2.361-3.83-3.793.728-.1,1.147-.3,1.42-.174A8.182,8.182,0,0,1,16.358-1320.352Z" fill="#fff"/><path d="M-33.022-1277.708l3.224-3.977c.728-.007.8.446.656.988a5.067,5.067,0,0,1-2.969,3.17C-32.313-1277.428-32.663-1277.629-33.022-1277.708Z" fill="#fff"/><path d="M25.623-1245.3c-.122.45-.47.743-.873.593a8.552,8.552,0,0,1-3.9-2.675c-.085-.108.173-.483.341-.909l4.528,3.084Z" fill="#fff"/><path d="M40.676-1292.882c.752-1.125,1.384-1.028,1.921-.783,1.035.471,2.263.743,2.813,2.145C43.438-1290.969,42.348-1292.439,40.676-1292.882Z" fill="#fff"/><path d="M15.648-1371.935a9.621,9.621,0,0,0,1.792.722,9.495,9.495,0,0,0,1.93.029c.287.66-.025.886-.405,1.049a3.147,3.147,0,0,1-3.607-.688C15.018-1371.135,15.091-1371.531,15.648-1371.935Z" fill="#fff"/><path d="M-32.08-1403.657c.556-.491.93-.782,1.255-1.12s.594-.717.908-1.1c.9,1.052,1.036,1.565.558,2.148C-30.067-1402.868-30.907-1402.961-32.08-1403.657Z" fill="#fff"/><path d="M61.489-1392.956c-1.266,1.5-2.338,1.632-3.38.492a.656.656,0,0,1-.118-.537.741.741,0,0,1,.394-.378,1.029,1.029,0,0,1,.569-.073C59.781-1393.307,60.6-1393.133,61.489-1392.956Z" fill="#fff"/><path d="M-33.643-1391.851c.234-.115.4-.268.578-.273.884-.025,1.768-.011,2.628-.011.254,1.147-.474,1.432-1.144,1.488C-32.466-1390.574-33.4-1390.683-33.643-1391.851Z" fill="#fff"/><path d="M15.426-1377.475c.1,1.227-.761,1.228-1.367,1.286a2.357,2.357,0,0,1-2.806-1.435c.879.1,1.531.208,2.186.229S14.755-1377.444,15.426-1377.475Z" fill="#fff"/><path d="M55.016-1290.994c1.235,1.531.67,3.069.157,4.612A7.415,7.415,0,0,1,55.016-1290.994Z" fill="#fff"/><path d="M10.469-1331.48c.665,0,1.132-.145,1.368.028a14.726,14.726,0,0,1,1.757,1.625c.107.108.083.346.119.524-.279.039-.614.2-.827.1A7.107,7.107,0,0,1,10.469-1331.48Z" fill="#fff"/><path d="M25.715-1245.21c-.011-1.361.5-1.856,1.391-1.3A20.549,20.549,0,0,1,28.96-1245a4.9,4.9,0,0,1-1.362.255,20.109,20.109,0,0,1-1.975-.56Z" fill="#fff"/><path d="M44.305-1346.949a3.661,3.661,0,0,1-3.4-1.907C42.695-1349.22,43.493-1348.079,44.305-1346.949Z" fill="#fff"/><path d="M-20.617-1404.008c-.509.085-.814.191-.849.133-.457-.751-.875-1.525-1.263-2.222.57-.745,1.03-.59,1.3-.086A18.359,18.359,0,0,1-20.617-1404.008Z" fill="#fff"/><path d="M42.769-1295.5c.541-.068,1.038-.281,1.391-.139a5.552,5.552,0,0,1,1.341,1.028.283.283,0,0,1-.026.271c-.137.122-.341.32-.462.286C44.2-1294.281,43.26-1294.339,42.769-1295.5Z" fill="#fff"/><path d="M43.183-1353c-1.638.482-2.239-.572-3.108-1.13a.9.9,0,0,1,1.367-.335A18.147,18.147,0,0,1,43.183-1353Z" fill="#fff"/><path d="M16.422-1390.762l2.9-.73c.263.906-.354,1.064-.854,1.257A1.454,1.454,0,0,1,16.422-1390.762Z" fill="#fff"/><path d="M-12.549-1306.724c-1.629.2-2.648-.245-2.961-1.212-.03-.092.194-.384.3-.383A3.356,3.356,0,0,1-12.549-1306.724Z" fill="#fff"/><path d="M21.255-1371.741c.449-.328.768-.568,1.1-.8a.885.885,0,0,1,1.091-.132c.332.218.243.92-.209,1.3C22.614-1370.855,22-1370.748,21.255-1371.741Z" fill="#fff"/><path d="M10.809-1373.237a9.583,9.583,0,0,1-2.059.141c-.55-.126-1.155-.341-1.169-1.1a.351.351,0,0,1,.1-.241c.565-.508,1.078-.2,1.58.123C9.574-1374.111,9.873-1373.889,10.809-1373.237Z" fill="#fff"/><path d="M41.809-1390.853a6.078,6.078,0,0,1-.942.81,1.7,1.7,0,0,1-1.922-.03.272.272,0,0,1-.065-.243c.286-.88,1.1-.637,1.725-.77A4.246,4.246,0,0,1,41.809-1390.853Z" fill="#fff"/><path d="M40.873-1384.922a3.512,3.512,0,0,1,3-.073,1.2,1.2,0,0,1-1.557.8A5.882,5.882,0,0,1,40.873-1384.922Z" fill="#fff"/><path d="M8.243-1398.063h2.55c.229.39.279.749-.213.96a2.315,2.315,0,0,1-2.289-.16C8.2-1397.323,8.263-1397.619,8.243-1398.063Z" fill="#fff"/><path d="M-31.942-1386.65h2.648c.18.956-.546.938-1.047,1.022A1.254,1.254,0,0,1-31.942-1386.65Z" fill="#fff"/><path d="M60.295-1382.717a1.473,1.473,0,0,1-2.087.112c-.122-.079-.162-.312-.2-.483a.287.287,0,0,1,.148-.226A1.737,1.737,0,0,1,60.295-1382.717Z" fill="#fff"/><path d="M13.8-1395.562H16.75C15.774-1394.39,15.474-1394.362,13.8-1395.562Z" fill="#fff"/><path d="M42.148-1372c-1.087.706-1.779.468-2.36-.475A1.549,1.549,0,0,1,42.148-1372Z" fill="#fff"/><path d="M-30.861-1381c-.877.82-1.411.531-1.9.161a.577.577,0,0,1-.164-.518.53.53,0,0,1,.462-.247C-31.991-1381.469-31.536-1381.261-30.861-1381Z" fill="#fff"/><path d="M56.809-1379.612a19.06,19.06,0,0,1,2.086-1.094c.163-.058.449.229.679.358-.145.245-.258.668-.442.7A16.009,16.009,0,0,1,56.809-1379.612Z" fill="#fff"/><path d="M-29.422-1396.782c-1.434.923-2.075.615-2.825-.087C-31.371-1397.4-30.7-1396.966-29.422-1396.782Z" fill="#fff"/><path d="M57.6-1402.546h2.763C59.859-1401.327,59.776-1401.316,57.6-1402.546Z" fill="#fff"/><path d="M42.121-1402.946c-.275-.314-.614-.608-.575-.672a1.874,1.874,0,0,1,.719-.741c.314-.143.832.4.665.657A4.6,4.6,0,0,1,42.121-1402.946Z" fill="#fff"/><path d="M20.686-1385.806c.16-.085.334-.257.478-.235a6.585,6.585,0,0,1,1,.3c-.106.158-.178.374-.325.462a.756.756,0,0,1-1.037-.261A.988.988,0,0,1,20.686-1385.806Z" fill="#fff"/><path d="M21.79-1380.508c.269,1.452.277,1.465-1.5,1.488Z" fill="#fff"/><path d="M45.5-1395.422l.705.544c-.273.233-.544.646-.82.649s-.538-.415-.808-.648Z" fill="#fff"/><path d="M-14.533-1313.621c-.007.493-.308.69-.734.58-.231-.059-.412-.316-.729-.577a5.489,5.489,0,0,1,.942-.2A1.464,1.464,0,0,1-14.533-1313.621Z" fill="#fff"/><path d="M-16.072-1321.05a1.9,1.9,0,0,1,.274.069c.465.193.718.687.433.828a1.842,1.842,0,0,1-.814.057.319.319,0,0,1-.219-.173c-.074-.161-.193-.379-.137-.5S-16.234-1320.96-16.072-1321.05Z" fill="#fff"/><path d="M-30.28-1376.8c-.454.985-.958.553-1.811.166a3.686,3.686,0,0,1,.9-.354A4.488,4.488,0,0,1-30.28-1376.8Z" fill="#fff"/><path d="M58.306-1388.372c-.16.065-.426.219-.463.177a2.821,2.821,0,0,1-.328-.615c.174-.017.39-.106.51-.034C58.163-1388.761,58.216-1388.536,58.306-1388.372Z" fill="#fff"/><path d="M7.495-1381.7c.442,0,.745-.081.952.025.177.092.244.4.36.609a2.007,2.007,0,0,1-.745.006C7.872-1381.135,7.754-1381.393,7.495-1381.7Z" fill="#fff"/><path d="M60.814-1377.02h2.421C62.387-1376.22,61.854-1376.159,60.814-1377.02Z" fill="#fff"/><path d="M15.531-1402.418h1.487C16.343-1401.651,16.343-1401.651,15.531-1402.418Z" fill="#fff"/><path d="M10.048-1402.361a7.17,7.17,0,0,1,.956-.065c.1.005.185.2.276.308-.075.054-.151.155-.224.153-.337-.012-.673-.054-1.009-.084Z" fill="#fff"/><path d="M-29.789-1407.506a7.367,7.367,0,0,1-1.009.092c-.1,0-.2-.218-.275-.348-.006-.012.143-.17.217-.167.355.013.71.058,1.064.092Z" fill="#fff"/><path d="M-31.893-1400.894l.822.35c-.161.157-.313.429-.485.442a2.257,2.257,0,0,1-.785-.23Z" fill="#fff"/><path d="M43.705-1297.865c-.154.091-.31.254-.462.249s-.291-.179-.436-.279c.157-.09.315-.252.471-.25S43.563-1297.965,43.705-1297.865Z" fill="#fff"/><path d="M-28.706-1383.44v.209l-.721-.128c.071-.065.145-.188.215-.186A2.624,2.624,0,0,1-28.706-1383.44Z" fill="#fff"/><path d="M-9.19-1410.389c-.371,1.234-1.333,1.236-2.163,1.375a3,3,0,0,1-2.518-.649,4.206,4.206,0,0,1-.422-.421c-.726-.809-.923-1.875-.368-2.066.843-.291,1.27.315,1.67.9a2.047,2.047,0,0,0,2.579.882A4.326,4.326,0,0,1-9.19-1410.389Z" fill="#fff"/><path d="M-4.687-1424.88c.309.018.545-.037.691.053a3.516,3.516,0,0,1,.92.735,1.813,1.813,0,0,0,2.38.584c.141-.062.436.231.661.36-.166.215-.287.542-.5.63-1.981.8-3.737.124-4.386-1.688C-4.99-1424.388-4.765-1424.674-4.687-1424.88Z" fill="#fff"/><path d="M30.819-1422.57c-1.228,1.737-2.874,2.109-4.091,1.005a2.173,2.173,0,0,1-.4-1.351c-.015-.2.285-.478.5-.626a.588.588,0,0,1,.543.116c.346.352.638.757.928,1.113Z" fill="#fff"/><path d="M10.306-1416.166c.054.241.253.608.149.746A3.565,3.565,0,0,1,6-1414.23a1.642,1.642,0,0,1-.609-.615.608.608,0,0,1-.021-.531c.079-.141.378-.321.456-.274,1.518.909,2.818.205,4.124-.511C10.017-1416.2,10.126-1416.166,10.306-1416.166Z" fill="#fff"/><path d="M11.57-1422.738a21.433,21.433,0,0,0,2.328.167c.693-.021,1.378-.226,2.072-.3.117-.012.336.229.371.384a.573.573,0,0,1-.19.489,3.606,3.606,0,0,1-4.454-.044C11.594-1422.112,11.629-1422.381,11.57-1422.738Z" fill="#fff"/><path d="M-29.021-1431.46a16.72,16.72,0,0,0,2.546,1.015,10.66,10.66,0,0,0,2.3-.068,3.112,3.112,0,0,1-3.729,1.085C-28.439-1429.59-28.665-1429.985-29.021-1431.46Z" fill="#fff"/><path d="M50.748-1425.867c.56-.677,1.1-1.384,1.706-2.02.139-.145.548-.1.8-.034.117.031.246.335.231.5a2.358,2.358,0,0,1-1.483,2.108A.936.936,0,0,1,50.748-1425.867Z" fill="#fff"/><path d="M3.435-1422.767c1.026-.06,1.961-.141,2.9-.136.119,0,.4.528.324.684a1.51,1.51,0,0,1-1.453.83C4.363-1421.368,4.167-1421.508,3.435-1422.767Z" fill="#fff"/><path d="M21.291-1425.3c.626-.456,1.143-.876,1.7-1.227a.621.621,0,0,1,.976.224.956.956,0,0,1-.156.781,1.822,1.822,0,0,1-1.77.773C21.811-1424.781,21.61-1425.056,21.291-1425.3Z" fill="#fff"/><path d="M-.176-1429.041l3.813-.639C2.352-1428.067,1.787-1427.953-.176-1429.041Z" fill="#fff"/><path d="M32.839-1422.21a8.935,8.935,0,0,1,3.93-.116C35.69-1421.285,34.606-1421.487,32.839-1422.21Z" fill="#fff"/><path d="M-6.075-1415.866c-1.107,1.48-1.713,1.531-3.323.364.108-.123.212-.345.322-.348C-8.1-1415.878-7.126-1415.866-6.075-1415.866Z" fill="#fff"/><path d="M-.365-1412.4c-.815,1.074-1.517,1.381-2.3,1.227a7.881,7.881,0,0,1-1.759-.965Z" fill="#fff"/><path d="M59.709-1427.886a9.6,9.6,0,0,1-1.626.861.8.8,0,0,1-.71-.329c-.19-.524.272-.619.642-.647A15.36,15.36,0,0,1,59.709-1427.886Z" fill="#fff"/><path d="M42.969-1423.6c-.585,1.2-1.408,1.181-2.6.87A3.268,3.268,0,0,1,42.969-1423.6Z" fill="#fff"/><path d="M6.172-1427.782a4.758,4.758,0,0,1,.386.867c.088.431-.449.784-1.039.627-.186-.049-.462-.5-.419-.554A7.486,7.486,0,0,1,6.172-1427.782Z" fill="#fff"/><path d="M-13.229-1420.317a3.77,3.77,0,0,1-1.086.044c-.216-.052-.367-.377-.547-.58.212-.138.415-.37.638-.393C-13.682-1421.3-13.279-1421.077-13.229-1420.317Z" fill="#fff"/><path d="M20.054-1430.838a1.692,1.692,0,0,1,2.149-.012C21.3-1430.416,21.3-1430.416,20.054-1430.838Z" fill="#fff"/><path d="M38.143-1430.255a1.507,1.507,0,0,1-.08.273.89.89,0,0,1-1.157.507c-.163-.058-.353-.591-.275-.677a1.022,1.022,0,0,1,1.277-.261A2.1,2.1,0,0,1,38.143-1430.255Z" fill="#fff"/><path d="M-12.221-1427.587a1.334,1.334,0,0,1-2.067.487A1.489,1.489,0,0,1-12.221-1427.587Z" fill="#fff"/><path d="M-10.744-1428.255a.95.95,0,0,1,.228-.184c.611-.23,1.354.091,1.4.6a.3.3,0,0,1-.071.215,1.025,1.025,0,0,1-1.484-.347A1,1,0,0,1-10.744-1428.255Z" fill="#fff"/><path d="M21.776-1420.461c-.043.062-.073.154-.132.182a.926.926,0,0,1-1.233-.18.286.286,0,0,1,.01-.257c.183-.307.9-.313,1.257-.007C21.74-1420.669,21.745-1420.55,21.776-1420.461Z" fill="#fff"/><path d="M52.1-1430.337a5.758,5.758,0,0,1-.877.527.578.578,0,0,1-.495-.215.509.509,0,0,1,.092-.483,1.967,1.967,0,0,1,.733-.457c.136-.044.349.11.509.206C52.1-1430.734,52.079-1430.6,52.1-1430.337Z" fill="#fff"/><path d="M-19.016-1426.2l-.509-.244a1.982,1.982,0,0,1,.6-.3c.124-.015.276.191.416.3Z" fill="#fff"/><path d="M10.689-1429.692c.172-.068.335-.186.486-.172.1.009.185.2.277.317a1.271,1.271,0,0,1-.475.166C10.875-1429.389,10.787-1429.579,10.689-1429.692Z" fill="#fff"/><path d="M98.317-1331.009a3.534,3.534,0,0,1-.123-2.661c.7-4.8,1.321-9.6,1.691-14.44.448-5.854.466-11.713.575-17.574a46.375,46.375,0,0,0-1.822-14.905c1.02-.65,1.516-.667,1.777-.1a2.772,2.772,0,0,1,.313.841c.311,3.216.782,6.43.86,9.653.2,8.392-.093,16.782-.727,25.152-.29,3.826-.784,7.636-1.227,11.449a8.415,8.415,0,0,1-.581,2.023C98.967-1331.354,98.622-1331.233,98.317-1331.009Z" fill="#fff"/><path d="M89.824-1305.521c-.117-.142-.349-.306-.327-.422a1.821,1.821,0,0,1,.357-.8,24.08,24.08,0,0,0,4.639-8.753c.2-.7.187-1.656,1.279-2.027.577.727.22,1.453,0,2.167C94.355-1310.647,92.294-1307.242,89.824-1305.521Z" fill="#fff"/><path d="M87.26-1397.6c-2.24.033-4.014-1.312-6.037-1.655-2.061-.35-4.114-.747-6.276-1.143.2-.287.368-.717.5-.706,3.992.329,7.964.77,11.521,2.852C87.091-1398.181,87.113-1397.944,87.26-1397.6Z" fill="#fff"/><path d="M96.786-1325.887c.463.288.835.385.9.583a4.432,4.432,0,0,1-.329,3.2c-.048.113-.354.192-.517.161a.7.7,0,0,1-.446-.34C95.841-1323.534,96.577-1324.579,96.786-1325.887Z" fill="#fff"/></g></svg>