<svg xmlns="http://www.w3.org/2000/svg" width="18.846" height="18.847" viewBox="0 0 18.846 18.847">
  <path id="Path_5122" data-name="Path 5122" d="M6.654,17.077a1.882,1.882,0,1,0,1.333.551A1.885,1.885,0,0,0,6.654,17.077ZM1,2V3.885H2.885l3.392,7.152L5.005,13.346a1.822,1.822,0,0,0-.236.9,1.89,1.89,0,0,0,1.885,1.885H17.962V14.25H7.05a.233.233,0,0,1-.236-.236l.028-.113.848-1.536h7.02a1.876,1.876,0,0,0,1.649-.971l3.374-6.116a.921.921,0,0,0,.113-.452.945.945,0,0,0-.942-.942H4.967L4.081,2ZM16.077,17.077a1.882,1.882,0,1,0,1.333.551A1.885,1.885,0,0,0,16.077,17.077Z" transform="translate(-1 -2)" fill="#515356"/>
</svg>
