<svg xmlns="http://www.w3.org/2000/svg" width="24" height="24" viewBox="0 0 24 24">
  <g id="Group_689" data-name="Group 689" transform="translate(-1115 -110)">
    <circle id="Ellipse_33" data-name="Ellipse 33" cx="12" cy="12" r="12" transform="translate(1115 110)" fill="#515356"/>
    <path id="instagram" d="M6.007,0C4.375,0,4.172.008,3.531.036A4.43,4.43,0,0,0,2.073.315a2.942,2.942,0,0,0-1.064.693A2.931,2.931,0,0,0,.315,2.073,4.417,4.417,0,0,0,.036,3.531C.006,4.172,0,4.375,0,6.007S.008,7.843.036,8.484A4.432,4.432,0,0,0,.315,9.942a2.946,2.946,0,0,0,.693,1.064,2.938,2.938,0,0,0,1.064.693,4.435,4.435,0,0,0,1.458.279c.641.03.845.036,2.477.036s1.836-.008,2.477-.036A4.445,4.445,0,0,0,9.942,11.7,3.07,3.07,0,0,0,11.7,9.942a4.432,4.432,0,0,0,.279-1.458c.03-.641.036-.845.036-2.477s-.008-1.836-.036-2.477A4.443,4.443,0,0,0,11.7,2.073a2.948,2.948,0,0,0-.693-1.064A2.927,2.927,0,0,0,9.942.315,4.419,4.419,0,0,0,8.484.036C7.843.006,7.639,0,6.007,0Zm0,1.081c1.6,0,1.795.008,2.428.036a3.31,3.31,0,0,1,1.115.208,1.977,1.977,0,0,1,1.14,1.14A3.317,3.317,0,0,1,10.9,3.579c.029.634.035.824.035,2.428S10.925,7.8,10.9,8.435a3.381,3.381,0,0,1-.211,1.115,1.907,1.907,0,0,1-.45.692,1.874,1.874,0,0,1-.691.449,3.341,3.341,0,0,1-1.119.207c-.638.029-.826.035-2.432.035S4.2,10.925,3.56,10.9a3.406,3.406,0,0,1-1.119-.211,1.86,1.86,0,0,1-.69-.45A1.824,1.824,0,0,1,1.3,9.544a3.409,3.409,0,0,1-.21-1.119C1.067,7.794,1.059,7.6,1.059,6s.008-1.8.031-2.433A3.405,3.405,0,0,1,1.3,2.448a1.781,1.781,0,0,1,.451-.691,1.777,1.777,0,0,1,.69-.45A3.325,3.325,0,0,1,3.552,1.1c.638-.023.826-.03,2.432-.03l.023.015Zm0,1.841A3.085,3.085,0,1,0,9.092,6.007,3.085,3.085,0,0,0,6.007,2.923Zm0,5.087a2,2,0,1,1,2-2A2,2,0,0,1,6.007,8.01ZM9.935,2.8a.721.721,0,1,1-.721-.72A.721.721,0,0,1,9.935,2.8Z" transform="translate(1121 116)" fill="#fff"/>
  </g>
</svg>
