<svg xmlns="http://www.w3.org/2000/svg" width="19.382" height="19.382" viewBox="0 0 19.382 19.382">
  <path id="Icon" d="M1044.382,1626.305c0-1.309-1.973-2.036-2.971-2.431-.6-.249-1.226-.5-1.828-.768a6.54,6.54,0,0,1-2.244-1.5,1.04,1.04,0,0,1-.332-.748,6.467,6.467,0,0,1,.229-1.412,11.383,11.383,0,0,1,.81-1.953,13.88,13.88,0,0,0,.623-2.555,6.732,6.732,0,0,0,.166-1.1c0-2.576-1.35-4.84-4.155-4.84s-4.155,2.264-4.155,4.84a6.779,6.779,0,0,0,.187,1.1,13.945,13.945,0,0,0,.644,2.555,9.939,9.939,0,0,1,.81,1.953,5.425,5.425,0,0,1,.228,1.412,1.04,1.04,0,0,1-.332.748,6.543,6.543,0,0,1-2.244,1.5c-.6.291-1.226.519-1.828.768-1,.416-2.991,1.122-2.991,2.431v2.077h19.382v-2.077Z" transform="translate(-1025 -1609)" fill="#515356"/>
</svg>
