<svg xmlns="http://www.w3.org/2000/svg" width="24" height="24" viewBox="0 0 24 24">
  <g id="Group_688" data-name="Group 688" transform="translate(-1162 -110)">
    <circle id="Ellipse_37" data-name="Ellipse 37" cx="12" cy="12" r="12" transform="translate(1162 110)" fill="#515356"/>
    <g id="whatsapp-logo" transform="translate(1168 116)">
      <path id="WhatsApp" d="M11.8,5.748a5.8,5.8,0,0,1-8.593,5.033L0,11.8,1.046,8.716A5.688,5.688,0,0,1,.214,5.748a5.793,5.793,0,0,1,11.586,0ZM6.007.915a4.857,4.857,0,0,0-4.87,4.833,4.782,4.782,0,0,0,.928,2.833l-.609,1.795,1.872-.595a4.875,4.875,0,0,0,7.55-4.033A4.857,4.857,0,0,0,6.007.915ZM8.933,7.072c-.036-.059-.13-.094-.272-.164s-.84-.411-.97-.458-.225-.071-.32.07-.367.458-.45.552-.166.106-.308.036a3.887,3.887,0,0,1-1.142-.7,4.248,4.248,0,0,1-.79-.976c-.083-.141-.009-.217.062-.287s.142-.165.213-.247A.944.944,0,0,0,5.1,4.664a.257.257,0,0,0-.012-.247c-.035-.07-.32-.764-.438-1.046s-.236-.235-.319-.235-.178-.012-.272-.012a.524.524,0,0,0-.379.176,1.576,1.576,0,0,0-.5,1.175,2.726,2.726,0,0,0,.58,1.457A5.8,5.8,0,0,0,6.187,8.06c1.444.564,1.444.376,1.7.352a1.436,1.436,0,0,0,.959-.67A1.175,1.175,0,0,0,8.933,7.072Z" fill="#fff"/>
    </g>
  </g>
</svg>
